/* XPM */
static char	*awake[] = {
"32 32 3 1",
"  c None",
"X c black",
". c white",
"      ...               ...     ",
"      .X.....X.. ..X.....X.     ",
"      .XX...XXXX.XXXX...XX.     ",
"       .XX.XXXX.XX..XX.XX.      ",
"       .X.XXXXXXXXXX.XX.X.      ",
"       .X.XXXXXXXXXX.XX.X.      ",
"   .    .XXXXXX.XX.XX.XX.    .  ",
"    .   .XXXXXX.XXX.X.XX.   .   ",
"        .XX.XX.XX.X.X.XX.       ",
"        .XX.XX.XX.X.X.XX.       ",
"        .X.X.X.XXX.X..XX.       ",
"        .X.XXXXXXXXXX.XX.       ",
" ..     .XX.XX.XXX.XX.XX.     ..",
"         .X.XX.XXX.XX.X.        ",
"         .X.XXXXXXXXX.X.        ",
"         .X.XXXXXXXXX.X.  X     ",
"         .XX.XXXXXXX.XX.  .     ",
"    .     .X ..XXX.. X.   .  .  ",
"   .        .XX...XX.    X.   . ",
"           ..XX...XX..   .      ",
"           ....X.X....  X.      ",
"           ....XXX.... X.       ",
"           ...XX.XX... .        ",
"          .XXXXXXXXXXX.         ",
"         .XXXXXX.XXXXXX.        ",
"        .XXXXXXXXXXXXXXX.       ",
"         .XXXXXXXXXXXXX.        ",
"          ..XXXXXXXXX..         ",
"            .........           ",
"              .....             ",
"              .X.X.             ",
"              .....             "
};