/* XPM */
static char	*bottom[] = {
"32 32 3 1",
"  c None",
"X c white",
". c black",
"                                ",
"                                ",
"              .. ..             ",
"     ........XXX.XXX........    ",
"     .......XXX.XXXXX.......    ",
"      .XX..XXXXXXX..XX..XX.     ",
"      .XX.XXXXXXXXXX.XX.XX.     ",
"       .X.XXXXXXXXXX.XX.X.      ",
"        .XXXXXX.XX.XX.XX.       ",
"        .XXXXXX.XXX.X.XX.       ",
"        .XX.XX.XX.X.X.XX.       ",
"        .XX.XX.XX.X.X.XX.       ",
"        .X.X.X.XXX.X..XX.       ",
"        .X.XXXXXXXXXX.XX.       ",
"        .XX.XX.XXX.XX.XX.       ",
"         .X.XX.XXX.XX.X.        ",
"         .X.XXXXXXXXX.X.        ",
"         .XX.XXXXXXX.XX.        ",
"          .XX.XXXXX.XX.         ",
"            .........           ",
"          ....X...X....         ",
"        ......XX.XX......       ",
"       .XX...XXXXXXX...XX.      ",
"       .XX..XXXX.XXXX..XX.      ",
"        ...XXXXXXXXXXX...       ",
"         .XXXXXX.XXXXXX.X   XX  ",
"        .XXXXXXXXXXXXXXX.XXX..  ",
"         .XXXXXXXXXXXXX. ...    ",
"          ..XXXXXXXXX..         ",
"            .........           ",
"              .X.X.             ",
"              .....             "
};