/* XPM */
static char	*down_left_alt[] = {
"32 32 3 1",
"  c None",
"X c white",
". c black",
"       ........ ..X.......      ",
"       .....XXX.XXXX...XX.      ",
"       ...XXXX.XXXXXX.XXX.      ",
"        .XXXXXXXX..XXX.X.       ",
"       .XXXXXXXXXXX.XX.X.       ",
"       .XXXXX.XXX.XX.XX..       ",
"       .XXXXX.X.XX.X.XX.X.      ",
"       .X.XX.XX.XX.X.XX.X.      ",
"       .X.XX.XXX.X.X.XX.X.      ",
"        .X.X.XXX.XX.X.XXX.      ",
"         .XXXXXXXXXX.XXX.       ",
"        ..XX.XX.XXXX.XXX.       ",
"        ..XX.XX.XXXX.XXX.       ",
"        ..XXXXXXXXXX.XX.  X     ",
"        .X.XXXXXXXX.XXX. X.     ",
"         .X.XXXXXXXXX..  .      ",
"         .X .XXXX........       ",
"            ......X....XX.      ",
"            ...X..X....XX.      ",
"            .XX..XX......       ",
"            .XX.XXXXXXXXX.      ",
"           .X..XX.XXXXXXX.      ",
"           .XXXXXXXXXXXX.       ",
"           .XXXXXXXXXXX.        ",
"            .X...XXXX..         ",
"             .........          ",
"               .X.....          ",
"                ....X.          ",
"                    ..          ",
"                                ",
"                                ",
"                                "
};