/* XPM */
static char	*down_left[] = {
"32 32 3 1",
"  c None",
"X c white",
". c black",
"         ........ ..X.......    ",
"         .....XXX.XXXX...XX.    ",
"         ...XXXX.XXXXXX.XXX.    ",
"          .XXXXXXXX..XXX.X.     ",
"         .XXXXXXXXXXX.XX.X.     ",
"         .XXXXX.XXX.XX.XX..     ",
"         .XXXXX.X.XX.X.XX.X.    ",
"         .X.XX.XX.XX.X.XX.X.    ",
"         .X.XX.XXX.X.X.XX.X.    ",
"          .X.X.XXX.XX.X.XXX.    ",
"           .XXXXXXXXXX.XXX.     ",
"          ..XX.XX.XXXX.XXX.     ",
"          ..XX.XX.XXXX.XXX.     ",
"          ..XXXXXXXXXX.XX.      ",
"          .X.XXXXXXXX.XXX.      ",
"           .X.XXXXXXXXX..  X    ",
"           .X .XXXX..X.. XX.    ",
"              .......... ..     ",
"              .X..X......       ",
"            ..X...X.XX..X..     ",
"            .XXXX.X.XX..XXX.    ",
"            .XXXXXXX...XXX.     ",
"             .XXXXXXXXXXXX.     ",
"             .XXXXX.XXXXX.      ",
"             .XXXXXXXXXX..      ",
"              .XXXXXXXX...      ",
"               .XXXXX..         ",
"               ......           ",
"                ....            ",
"                ....            ",
"                .X.             ",
"                ..              "
};