/* XPM */
static char	*down_alt[] = {
"32 32 3 1",
"  c None",
"X c white",
". c black",
"     ........X.. ..X........    ",
"     .XX....XXXX.XXXX....XX.    ",
"      .XXX.XXXX.XX..XX.XXX.     ",
"      .XX.XXXXXXXXXX.XX.XX.     ",
"       .X.XXXXXXXXXX.XX.X.      ",
"        .XXXXXX.XX.XX.XX.       ",
"        .XXXXXX.XXX.X.XX.       ",
"        .XX.XX.XX.X.X.XX.       ",
"        .XX.XX.XX.X.X.XX.       ",
"        .X.X.X.XXX.X..XX.       ",
"        .X.XXXXXXXXXX.XX.       ",
"        .XX.XX.XXX.XX.XX.       ",
"         .X.XX.XXX.XX.X.        ",
"         .X.XXXXXXXXX.X.        ",
"         .X.XXXXXXXXX.X.        ",
"         .XX.XXXXXXX.XX.        ",
"          .XX..XXX..XX.         ",
"       .......X...X....         ",
"      .XX.....X...X...X.        ",
"      .XX.....XX.XX...X.        ",
"       ......XXXXXXXX..  XX     ",
"         .XXXXXX.XXXXXX. ..     ",
"        .XXXXXXXXXXXXXXX.       ",
"        .XXXXXXX.XXXXXX..       ",
"         .XXXXXXXXXXX..         ",
"          .XXXXXXXXX.           ",
"           ..XXXXXX..           ",
"             .......            ",
"                ....            ",
"                 ...            ",
"                 .X.            ",
"                 ..             "
};