/* XPM */
static char	*down_right_alt[] = {
"32 32 3 1",
"  c None",
"X c white",
". c black",
"     .......X.. ........        ",
"     .XX...XXXX.XXX.....        ",
"     .XXX.XXXXXX.XXXX...        ",
"      .X.XXX..XXXXXXXX.         ",
"      .X.XX.XXXXXXXXXXX.        ",
"      ..XX.XX.XXX.XXXXX.        ",
"     .X.XX.X.XX.X.XXXXX.        ",
"     .X.XX.X.XX.XX.XX.X.        ",
"     .X.XX.X.X.XXX.XX.X.        ",
"     .XXX.X.XX.XXX.X.X.         ",
"      .XXX.XXXXXXXXXX.          ",
"      .XXX.XXXX.XX.XX..         ",
"      .XXX.XXXX.XX.XX..         ",
"       .XX.XXXXXXXXXX..         ",
"       .XXX.XXXXXXXX.X.         ",
"     X  ..XXXXXXXXX.X.          ",
"     .XX ..X..XXXX. X.          ",
"      .. ..........             ",
"        ......X..X.             ",
"      ..X..XX.X...X..           ",
"     .XXX..XX.X.XXXX.           ",
"      .XXX...XXXXXXX.           ",
"      .XXXXXXXXXXXX.            ",
"       .XXXXX.XXXXX.            ",
"       ..XXXXXXXXXX.            ",
"       ...XXXXXXXX.             ",
"          ..XXXXX.              ",
"            ......              ",
"             ....               ",
"             ....               ",
"              .X.               ",
"               ..               "
};