/* XPM */
static char	*down_right[] = {
"32 32 3 1",
"  c None",
"X c white",
". c black",
"       .......X.. ........      ",
"       .XX...XXXX.XXX.....      ",
"       .XXX.XXXXXX.XXXX...      ",
"        .X.XXX..XXXXXXXX.       ",
"        .X.XX.XXXXXXXXXXX.      ",
"        ..XX.XX.XXX.XXXXX.      ",
"       .X.XX.X.XX.X.XXXXX.      ",
"       .X.XX.X.XX.XX.XX.X.      ",
"       .X.XX.X.X.XXX.XX.X.      ",
"       .XXX.X.XX.XXX.X.X.       ",
"        .XXX.XXXXXXXXXX.        ",
"        .XXX.XXXX.XX.XX..       ",
"        .XXX.XXXX.XX.XX..       ",
"      X  .XX.XXXXXXXXXX..       ",
"      .X .XXX.XXXXXXXX.X.       ",
"       .  ..XXXXXXXXX.X.        ",
"        ........XXXX. X.        ",
"       .XX....X......           ",
"       .XX....X..X...           ",
"        ......XX..XX.           ",
"       .XXXXXXXXX.XX.           ",
"       .XXXXXXX.XX..X.          ",
"        .XXXXXXXXXXXX.          ",
"         .XXXXXXXXXXX.          ",
"          ..XXXX...X.           ",
"           .........            ",
"           .....X.              ",
"           .X....               ",
"           ..                   ",
"                                ",
"                                ",
"                                "
};