/* XPM */
static char	*left[] = {
"32 32 3 1",
"  c None",
"X c white",
". c black",
"     X..   .                    ",
"    .XXX..X..X...               ",
"   .XXXXXXX..XXXX.              ",
"   .XXXXXXX...XXXX.             ",
"  .XXX.XXXXX..XXXXX.            ",
"  .XX.XXXXXX.XXXXXX.            ",
"  .XX.XXX.XXXXXXXXXX.           ",
"  .XX.X.X.XXXXXXXXXX.           ",
"  .XX.X.X.XXXXXXXXXX.           ",
"   .XX.X..XXXXXXXXXX.           ",
"    .XXXX.XXXXXXXXXX.           ",
"    .X.XX.XX.XXXXX..            ",
"   .XX.XX.XX.XXXXX.             ",
"   .XXXXX.XX.XX...              ",
"    .XXXX.XX.XX.                ",
"     .XXX.X.XX.                 ",
"      ...X....X..        XXX    ",
"         .....X...      X...    ",
"      ........X...     X.       ",
"     .XX.....XXXXX......        ",
"     .XX....XXXXXXXXXX.         ",
"      .....XXXXXXXXXXX.         ",
"      .XXXXXXXXXXXXXXX.         ",
"       .XXXXXXXXXXXXX.          ",
"        .XXXXXXXXXXX.           ",
"        ...XXXXXXX...           ",
"         ...XXX.......          ",
"         .X....  ......         ",
"          .       .....         ",
"                   .X.          ",
"                    .           ",
"                                "
};