/* XPM */
static char	*left_alt[] = {
"32 32 3 1",
"  c None",
"X c white",
". c black",
"                                ",
"                                ",
"          X..   .               ",
"         .XXX..X..X...          ",
"        .XXXXXXX..XXXX.         ",
"        .XXXXXXX...XXXX.        ",
"       .XXX.XXXXX..XXXXX.       ",
"       .XX.XXXXXX.XXXXXX.       ",
"       .XX.XXX.XXXXXXXXXX.      ",
"       .XX.X.X.XXXXXXXXXX.      ",
"       .XX.X.X.XXXXXXXXXX.      ",
"        .XX.X..XXXXXXXXXX.      ",
"         .XXXX.XXXXXXXXXX.      ",
"         .X.XX.XX.XXXXX..       ",
"        .XX.XX.XX.XXXXX.        ",
"        .XXXXX.XX.XX...         ",
"         .XXXX.XX.XX.           ",
"          .XXX.X.XX.            ",
"           ...X.X...     XXXX   ",
"             ..X.....    ....   ",
"            ..XX.........       ",
"           .X.XXX...XX.X.       ",
"           .X..XXX..XX.X.       ",
"            ...XXXX...XX.       ",
"          ..XXXXXXXXXXXX.       ",
"          .XXXXXXXXXXXX.        ",
"           .XXXXXXXXXX.         ",
"           ...XXXXXXX.          ",
"          ......XXXX.           ",
"         .X.... ....            ",
"          ....                  ",
"           ..                   "
};