/* XPM */
static char	*right_alt[] = {
"32 32 3 1",
"  c None",
"X c white",
". c black",
"                     .   ..X    ",
"                ...X..X..XXX.   ",
"               .XXXX..XXXXXXX.  ",
"              .XXXX...XXXXXXX.  ",
"             .XXXXX..XXXXX.XXX. ",
"             .XXXXXX.XXXXXX.XX. ",
"            .XXXXXXXXXX.XXX.XX. ",
"            .XXXXXXXXXX.X.X.XX. ",
"            .XXXXXXXXXX.X.X.XX. ",
"            .XXXXXXXXXX..X.XX.  ",
"            .XXXXXXXXXX.XXXX.   ",
"             ..XXXXX.XX.XX.X.   ",
"              .XXXXX.XX.XX.XX.  ",
"               ...XX.XX.XXXXX.  ",
"                 .XX.XX.XXXX.   ",
"                  .XX.X.XXX.    ",
"     XXX        ..X....X...     ",
"     ...X      ...X.....        ",
"        .X     ...X........     ",
"         ......XXXXX.....XX.    ",
"          .XXXXXXXXXX....XX.    ",
"          .XXXXXXXXXXX.....     ",
"          .XXXXXXXXXXXXXXX.     ",
"           .XXXXXXXXXXXXX.      ",
"            .XXXXXXXXXXX.       ",
"            ...XXXXXXX...       ",
"           .......XXX...        ",
"          ......  ....X.        ",
"          .....       .         ",
"           .X.                  ",
"            .                   ",
"                                "
};