/* XPM */
static char	*right[] = {
"32 32 3 1",
"  c None",
"X c white",
". c black",
"                                ",
"                                ",
"                .   ..X         ",
"           ...X..X..XXX.        ",
"          .XXXX..XXXXXXX.       ",
"         .XXXX...XXXXXXX.       ",
"        .XXXXX..XXXXX.XXX.      ",
"        .XXXXXX.XXXXXX.XX.      ",
"       .XXXXXXXXXX.XXX.XX.      ",
"       .XXXXXXXXXX.X.X.XX.      ",
"       .XXXXXXXXXX.X.X.XX.      ",
"       .XXXXXXXXXX..X.XX.       ",
"       .XXXXXXXXXX.XXXX.        ",
"        ..XXXXX.XX.XX.X.        ",
"         .XXXXX.XX.XX.XX.       ",
"          ...XX.XX.XXXXX.       ",
"            .XX.XX.XXXX.        ",
"             .XX.X.XXX.         ",
"    XXXX     ...X.X...          ",
"    ....    .....X..            ",
"        .........XX..           ",
"        .X.XX...XXX.X.          ",
"        .X.XX..XXX..X.          ",
"        .XX...XXXX...           ",
"        .XXXXXXXXXXXX..         ",
"         .XXXXXXXXXXXX.         ",
"          .XXXXXXXXXX.          ",
"           .XXXXXXX...          ",
"            .XXXX......         ",
"             .... ....X.        ",
"                   ....         ",
"                    ..          "
};