/* XPM */
static char	*scratch[] = {
"32 32 3 1",
"  c None",
"X c white",
". c black",
"      ...               ...     ",
"      .X.....X.. ..X.....X.     ",
"     ..XX...XXXX.XXXX...XX.     ",
"    .X..XX.XXXX.XX..XX.XX.      ",
"   .XX..X.XXXXXXXXXX.XX.X.      ",
"  .XX. .X.XXXXXXXXXX.XX.X.      ",
" ..XX.  .XXXXXX.XX.XX.XX.       ",
" .X...  .XXXXXX.XXX.X.XX.       ",
"......  .XX.XX.XX.X.X.XX.       ",
"..   .. .XX.XX.XX.X.X.XX.       ",
".     ...X.X.X.XXX.X..XX.       ",
"       ....XXXXXXXXXX.XX.       ",
"        ....XX.XXX.XX.XX.       ",
"         ...XX.XXX.XX.X.        ",
"          ..XXXXXXXXX.X.        ",
"         .X..XXXXXXXX.X.        ",
"         .XX..XXXXXX.XX.  X     ",
"         ......XXX..XX.   .     ",
"          ............    .     ",
"           ...X..XX....  X.     ",
"            ..XX.XX....  .      ",
"            ..XXX...... X.      ",
"           .XXXX.X..X.  .       ",
"          .XXXXXXXX..X..        ",
"         .XXXXXX.XXX..X.        ",
"        .XXXXXXXXXXXX..X.       ",
"         .XXXXXXXXXXXX..        ",
"          ..XXXXXXXXX....       ",
"            .........   ..      ",
"              .....      .      ",
"              .X.X.             ",
"              .....             "
};