/* XPM */
static char	*side_l[] = {
"32 32 3 1",
"  c None",
"X c white",
". c black",
"                                ",
"    X..   .                     ",
"   .XXX..X..X...                ",
"  .XXXXXXX..XXXX.               ",
"  .XXXXXXX...XXXX.              ",
" .XXX.XXXXX..XXXXX.             ",
" .XX.XXXXXX.XXXXXX.             ",
" .XX.XX..XXXXXXXXXX.            ",
" .XX.X.XX.XXXXXXXXX.            ",
" .XX.X.XX.XXXXXXXXX.            ",
"  .XX.....XXXXXXXXX.            ",
"   .XX....XXXXXXXXX.            ",
"   .X.X....XXXXXX..             ",
"  .XX.X....XXXXXX.              ",
"  .XXXX....XXX...               ",
"   .XXX.....XX.                 ",
"    .XXX....X.      XX          ",
"     .........    XX..          ",
"       .....X.   X..            ",
"       .....X.  X.              ",
"       .X..XXX. .               ",
"       .XXXXXXX.                ",
"      .XXXXXXXXX.               ",
"     .XXXXXXXXXXX..             ",
"    .XXXXXXXXXXXXXX.            ",
"   .XXXXXXXXXXXXXX.             ",
"    .XXXXXXXXXXXX.              ",
"     ..XXXXXXXX..               ",
"       ........                 ",
"        .....                   ",
"        .X...                   ",
"        .....                   "
};