/* XPM */
static char	*side_l_alt[] = {
"32 32 3 1",
"  c None",
"X c white",
". c black",
"    X..   .                     ",
"   .XXX..X..X...                ",
"  .XXXXXXX..XXXX.               ",
"  .XXXXXXX...XXXX.              ",
" .XXX.XXXXX..XXXXX.             ",
" .XX.XXXXXX.XXXXXX.             ",
" .XX.XXX.XXXXXXXXXX.            ",
" .XX.X.X.XXXXXXXXXX.            ",
" .XX.X.X.XXXXXXXXXX.            ",
"  .XX.X..XXXXXXXXXX.            ",
"   .XXXX.XXXXXXXXXX.            ",
"   .X.XX.XX.XXXXX..             ",
"  .XX.XX.XX.XXXXX.              ",
"  .XXXXX.XX.XX...  X            ",
"  ...XXX.XX.XX.   X.            ",
" .XX.....X.XX.    .             ",
" .XX..........   X.             ",
"  ..........X.   .              ",
"     .......X.  X.              ",
"       .....XX. .               ",
"       .XXXXXXX.                ",
"      .XXXXXXXXX.               ",
"     .XXXXXXXXXXX..             ",
"    .XXXXXXXXXXXXXX.            ",
"   .XXXXXXXXXXXXXX.             ",
"    .XXXXXXXXXXXX.              ",
"     ..XXXXXXXX..               ",
"       ........                 ",
"        .....                   ",
"        .....                   ",
"        .X..                    ",
"        ...                     "
};