/* XPM */
static char	*side_r[] = {
"32 32 3 1",
"  c None",
"X c white",
". c black",
"                                ",
"                      .   ..X   ",
"                 ...X..X..XXX.  ",
"                .XXXX..XXXXXXX. ",
"               .XXXX...XXXXXXX. ",
"              .XXXXX..XXXXX.XXX.",
"              .XXXXXX.XXXXXX.XX.",
"             .XXXXXXXXXX..XX.XX.",
"             .XXXXXXXXX.XX.X.XX.",
"             .XXXXXXXXX.XX.X.XX.",
"             .XXXXXXXXX.....XX. ",
"             .XXXXXXXXX....XX.  ",
"              ..XXXXXX....X.X.  ",
"               .XXXXXX....X.XX. ",
"                ...XXX....XXXX. ",
"                  .XX.....XXX.  ",
"           XX      .X....XXX.   ",
"           ..XX    .........    ",
"             ..X   .X.....      ",
"               .X  .X.....      ",
"                . .XXX..X.      ",
"                 .XXXXXXX.      ",
"                .XXXXXXXXX.     ",
"              ..XXXXXXXXXXX.    ",
"             .XXXXXXXXXXXXXX.   ",
"              .XXXXXXXXXXXXXX.  ",
"               .XXXXXXXXXXXX.   ",
"                ..XXXXXXXX..    ",
"                  ........      ",
"                    .....       ",
"                    ...X.       ",
"                    .....       "
};