/* XPM */
static char	*side_r_alt[] = {
"32 32 3 1",
"  c None",
"X c white",
". c black",
"                      .   ..X   ",
"                 ...X..X..XXX.  ",
"                .XXXX..XXXXXXX. ",
"               .XXXX...XXXXXXX. ",
"              .XXXXX..XXXXX.XXX.",
"              .XXXXXX.XXXXXX.XX.",
"             .XXXXXXXXXX.XXX.XX.",
"             .XXXXXXXXXX.X.X.XX.",
"             .XXXXXXXXXX.X.X.XX.",
"             .XXXXXXXXXX..X.XX. ",
"             .XXXXXXXXXX.XXXX.  ",
"              ..XXXXX.XX.XX.X.  ",
"               .XXXXX.XX.XX.XX. ",
"             X  ...XX.XX.XXXXX. ",
"             .X   .XX.XX.XXX... ",
"              .    .XX.X.....XX.",
"              .X   ..........XX.",
"               .   .X.......... ",
"               .X  .X.......    ",
"                . .XX.....      ",
"                 .XXXXXXX.      ",
"                .XXXXXXXXX.     ",
"              ..XXXXXXXXXXX.    ",
"             .XXXXXXXXXXXXXX.   ",
"              .XXXXXXXXXXXXXX.  ",
"               .XXXXXXXXXXXX.   ",
"                ..XXXXXXXX..    ",
"                  ........      ",
"                    .....       ",
"                    .....       ",
"                     ..X.       ",
"                      ...       "
};