/* XPM */
static char	*sleep_alt[] = {
"32 32 3 1",
"  c None",
"X c white",
". c black",
"                                ",
"                                ",
"                                ",
"                                ",
"                                ",
"                                ",
"                                ",
"                                ",
"                                ",
"        ......                  ",
"        XXXX.X    ....          ",
"          ..X     XX.X          ",
"          .X       .X       ... ",
"        ......    ..........XX. ",
"        XXXXXX  ..XXXXXX.XXXX.  ",
"               .XXXXXXXXX..X..  ",
"              .XXXXXXXXXXXX...  ",
"             .XX.........XXX..  ",
"       .......X.XXXX.XXXX..XXXX ",
"     ..XX......XX.XXX...XXX.XX. ",
"    .XXXXXX...XXX.XXXXXX.XX.XX. ",
"   .XXXXXXX...XXXXXX...XXXXXXX. ",
"  .XXXXXXXX...XXXXXXXXXXXXXXX.  ",
"  .XXXX.XX....XXXXXX.XX..XXX.X. ",
" .XXXXXX......XXX.XXX..XXXXXXX. ",
" .XXXXXXX......XX.XX.XXXXXXXXX. ",
"  .XXXXXXX...XX...XXX..XXXXXX.  ",
"  .XXXXXXXX..XX.XX...XXXXXXX..  ",
" ...XXXXXXXX....XX.XX.XXXX..... ",
".....XXXXXXX...... .............",
".X.....XXXXX.                   ",
"...... .....                    "
};