/* XPM */
static char	*sleep[] = {
"32 32 3 1",
"  c None",
"X c white",
". c black",
"                                ",
"                                ",
"                                ",
"      .......                   ",
"      XXXXX.X                   ",
"        . .X                    ",
"        X.X                     ",
"        .X.     .....           ",
"       .X X     XXX.X           ",
"      .......     .X            ",
"      XXXXXXX   .....           ",
"                XXXXX       ..  ",
"                          ....  ",
"                  ........XX..  ",
"                ..XXXXXX.XXX..  ",
"               .XXXXXXXXX.....  ",
"              .XXXXXXXXXXXX...  ",
"             .XX.........XXX..  ",
"              X.XXXX.XXXX..XXXX ",
"      .........XX.XXX...XXX.XX. ",
"    ..XXX.....XXX.XXXXXX.XX.XX. ",
"   .XXXXXXX...XXXXXX...XXXXXXX. ",
"  .XXXXXXXX...XXXXXXXXXXXXXXX.  ",
"  .XXXX.XX....XXXXXX.XX..XXX.X. ",
" .XXXXXX......XXX.XXX..XXXXXXX. ",
" .XXXXXXX......XX.XX.XXXXXXXXX. ",
"  .XXXXXXX...XX...XXX..XXXXXX.  ",
"  .XXXXXXXX..XX.XX...XXXXXXX..  ",
" ...XXXXXXXX....XX.XX.XXXX..... ",
".....XXXXXXX...... .............",
".X.....XXXXX.                   ",
"...... .....                    "
};