/* XPM */
static char	*top[] = {
"32 32 3 1",
"  c None",
"X c white",
". c black",
"                                ",
"                                ",
"     ........X.. ..X........    ",
"     .......XXXX.XXXX.......    ",
"      .....XXXXXXXXXXX.....     ",
"      ....XXXXXXXXXXXXX....     ",
"       ...XXXXXXXXXXXXX...      ",
"        .XXXXXXXXXXXXXXX.       ",
"        .XXXXXXXXXXXXXXX.       ",
"        .XXXXXXXXXXXXXXX.       ",
"        .XXXXXXXXXXXXXXX.       ",
"        .XXXXXXXXXXXXXXX.       ",
"        .XXXXXXXXXXXXXXX.       ",
"        .XXXXXXXXXXXXXXX.       ",
"         .XXXXXXXXXXXXX.        ",
"         .XXXXXXXXXXXXX.        ",
"         .XX.XXXXXXX.XX.        ",
"         .XX.XXXXXXX.XX.        ",
"          .....XXX......        ",
"            .........           ",
"          ....X...X....         ",
"        ......X...X......       ",
"       .XX...XXXXXXX...XX.      ",
"       .XX..XXXXXXXXX..XX.      ",
"        ...XXXXXXXXXXX...       ",
"         .XXXXXX..XXXXX.        ",
"        .XXXXXXXXX..XXXX.       ",
"         .XXXXXXXXXX..X.X       ",
"          ..XXXXXXXXX....       ",
"            .........           ",
"              .....             ",
"              .....             "
};