/* XPM */
static char	*top_alt[] = {
"32 32 3 1",
"  c None",
"X c white",
". c black",
"     ........X.. ..X........    ",
"     .......XXXX.XXXX.......    ",
"      .....XXXXXXXXXXX......    ",
"      ....XXXXXXXXXXXXX....     ",
"       ...XXXXXXXXXXXXX....     ",
"        .XXXXXXXXXXXXXXX.       ",
"        .XXXXXXXXXXXXXXX.       ",
"        .XXXXXXXXXXXXXXX.       ",
"        .XXXXXXXXXXXXXXX.       ",
"        .XXXXXXXXXXXXXXX.       ",
"        .XXXXXXXXXXXXXXX.       ",
"        .XXXXXXXXXXXXXXX.       ",
"         .XXXXXXXXXXXXX.        ",
"         .XXXXXXXXXXXXX.        ",
"         .XX.XXXXXXX.XX.        ",
"       ...XX.XXXXXXX.XX...      ",
"      .XX......XXX......XX.     ",
"      .XX...............XX.     ",
"       .......X...X.......      ",
"         .....X...X.....        ",
"            .XXXXXXX.           ",
"           .XXXXXXXXX.          ",
"          .XXXXXXXXXXX.         ",
"         .XXXXXX.XXXXXX.        ",
"        .XXXXXXXX.XXXXXX.       ",
"         .XXXXXXXX.XXXX.        ",
"          ..XXXXXXX.X..         ",
"            .........XX         ",
"              .....  ..         ",
"              .....             ",
"              .....             ",
"                                "
};