/* XPM */
static char	*up_alt[] = {
"32 32 3 1",
"  c None",
"X c white",
". c black",
"     ........X.. ..X........    ",
"     .......XXXX.XXXX.......    ",
"      .....XXXXXXXXXXX.....     ",
"      ....XXXXXXXXXXXXX....     ",
"       ...XXXXXXXXXXXXX...      ",
"        .XXXXXXXXXXXXXXX.       ",
"        .XXXXXXXXXXXXXXX.       ",
"        .XXXXXXXXXXXXXXX.       ",
"        .XXXXXXXXXXXXXXX.       ",
"        .XXXXXXXXXXXXXXX.       ",
"        .XXXXXXXXXXXXXXX.       ",
"        .XXXXXXXXXXXXXXX.       ",
"         .XXXXXXXXXXXXX.        ",
"         .XXXXXXXXXXXXX.        ",
"         .XX.XXXXXXX.XX.        ",
"         .XX.XXXXXXX.XX.        ",
"          .XX..XXX..XX.         ",
"       .......X...X....         ",
"      .XX.....X...X....         ",
"      .XX.....X...X....         ",
"       ......XXXXXXX...         ",
"           .XXXXXXXXXXX..       ",
"          .XXXXXXXXXXXXXX.      ",
"         .XXXXXX.XXXXXXX...     ",
"        .XXXXXX.XXXXXXX.        ",
"         ..XXX.XXXXXX..         ",
"          X...XXXXX..           ",
"          ..  .......           ",
"                 ...            ",
"                 ...            ",
"                 ...            ",
"                 ..             "
};