/* XPM */
static char	*up_left[] = {
"32 32 3 1",
"  c None",
"X c white",
". c black",
"      .......X.. ........       ",
"      ......XXXX.XXX.....       ",
"      .....XXXXXXXXXX....       ",
"       ...XXXXXXXXXXXX..        ",
"      ....XXXXXXXXXXXXX.        ",
"      ...XXXXXXXXXXXXXX.        ",
"      .XXXXXXXXXXXXXXXXX.       ",
"      .XXXXXXXXXXXXXXXXX.       ",
"      .XXXXXXXXXXXXXXXXX.       ",
"       .XXXXXXXXXXXXXXXX.       ",
"       .XXXXXXXXXXXXXXXX.       ",
"       .XXXXXXXXXXXXXXXX.       ",
"       .XX.XXXXXXXXXXX..        ",
"       .XX.XXXXXXXXXXX.         ",
"       .XX..XXXXXXXX..          ",
"        .X...XXXXXX..           ",
"         . ...XXXX....          ",
"           .........XX.         ",
"           ....X....XX.         ",
"            ...X.......  XX     ",
"           .XXXXX...XXX....     ",
"          .XXXXXXXXXX..X.       ",
"          .XXXXXXXX..XXXX.      ",
"           .XXXXXXXXXXXX...     ",
"            .XXXXXXXXXX.        ",
"             ..XXXXXX..         ",
"              .......           ",
"               .....            ",
"               ....             ",
"                ...             ",
"                ...             ",
"                 ..             "
};