/* XPM */
static char	*up_right[] = {
"32 32 3 1",
"  c None",
"X c white",
". c black",
"                                ",
"                                ",
"      ........ ..X.......       ",
"      .....XXX.XXXX......       ",
"      ....XXXXXXXXXX.....       ",
"       ..XXXXXXXXXXXX...        ",
"       .XXXXXXXXXXXXX....       ",
"       .XXXXXXXXXXXXXX...       ",
"      .XXXXXXXXXXXXXXXXX.       ",
"      .XXXXXXXXXXXXXXXXX.       ",
"      .XXXXXXXXXXXXXXXXX.       ",
"      .XXXXXXXXXXXXXXXX.        ",
"      .XXXXXXXXXXXXXXXX.        ",
"      .XXXXXXXXXXXXXXXX.        ",
"       ..XXXXXXXXXXX.XX.        ",
"        .XXXXXXXXXXX.XX.        ",
"         ..XXXXXXXX..XX.        ",
"          ..XXXXXX...X.         ",
"       XX   .XXXX..  .          ",
"       ..X  .........           ",
"         .  ...X...XX.          ",
"         ......X...XX.          ",
"        .XX.X..XX.....          ",
"      ..XXXX.XXXXXXXX.          ",
"     ..XXXXXX.XXXXXXX.          ",
"      ....XXXXXXXXXX.           ",
"       ....XXXXXXXX..           ",
"       .....XXXXXX...           ",
"       ...  .XXXX...            ",
"             ....               ",
"                                ",
"                                "
};