/* XPM */
static char	*up_right_alt[] = {
"32 32 3 1",
"  c None",
"X c white",
". c black",
"       ........ ..X.......      ",
"       .....XXX.XXXX......      ",
"       ....XXXXXXXXXX.....      ",
"        ..XXXXXXXXXXXX...       ",
"        .XXXXXXXXXXXXX....      ",
"        .XXXXXXXXXXXXXX...      ",
"       .XXXXXXXXXXXXXXXXX.      ",
"       .XXXXXXXXXXXXXXXXX.      ",
"       .XXXXXXXXXXXXXXXXX.      ",
"       .XXXXXXXXXXXXXXXX.       ",
"       .XXXXXXXXXXXXXXXX.       ",
"       .XXXXXXXXXXXXXXXX.       ",
"        ..XXXXXXXXXXX.XX.       ",
"         .XXXXXXXXXXX.XX.       ",
"          ..XXXXXXXX..XX.       ",
"           ..XXXXXX...X.        ",
"          ....XXXX... .         ",
"         .XX.........           ",
"         .XX....X....           ",
"     XX  .......X...            ",
"     ....XXX...XXXXX.           ",
"       .X..XXXXXXXXXX.          ",
"      .XXXX..XXXXXXXX.          ",
"     ...XXXXXXXXXXXX.           ",
"        .XXXXXXXXXX.            ",
"         ..XXXXXX..             ",
"           .......              ",
"            .....               ",
"             ....               ",
"             ...                ",
"             ...                ",
"             ..                 "
};