/* XPM */
static char	*yawn[] = {
"32 32 3 1",
"  c None",
"X c white",
". c black",
"      ...               ...     ",
"      .X.....X.. ..X.....X.     ",
"      .XX...XXXX.XXXX...XX.     ",
"       .XX.XXXX.XX..XX.XX.      ",
"       .X.XXXXXXXXXX.XX.X.      ",
"       .X.XXXXXXXXXX.XX.X.      ",
"        .XXXXXX.XX.XX.XX.       ",
"        .XXXXXX.XXX.X.XX.       ",
"        .XX.XX.XX.X.X.XX.       ",
"        .XX.XX.XX.X.X.XX.       ",
"        .X.X.X.XXX.X..XX.       ",
"        .X.XXXXXXXXXX.XX.       ",
"        .XX.XX.XXX.XX.XX.       ",
"         .X.XX.XXX.XX.X.        ",
"         .X.XXXXXXXXX.X.        ",
"         .X.XXX...XXX.X.        ",
"       ...XX.XXXXXXX.XX...      ",
"      .XX..XX..XXX..XX..XX.     ",
"      .XX.....X...X.....XX.     ",
"       .......X...X.......      ",
"         .....XX.XX.....        ",
"        XX  .XXXXXXX.           ",
"      XX....XXXX.XXXX.          ",
"     X..  .XXXXXXXXXXX.         ",
"    X.   .XXXXXX.XXXXXX.        ",
"    .   .XXXXXXXXXXXXXXX.       ",
"         .XXXXXXXXXXXXX.        ",
"          ..XXXXXXXXX..         ",
"            .........           ",
"              .....             ",
"              .X.X.             ",
"              .....             "
};