/* XPM */
static char	*awake[] = {
"32 32 3 1",
"  c None",
"X c black",
". c white",
"                                ",
"           X    X     X         ",
"     X      X   X    X    X     ",
"      X                  X      ",
"       X    XXXXXXXXX   X       ",
"        X XX.........XX         ",
" XX      XXX.........XXX     XX ",
"   XX  XXXX...X...X...XXXX XX   ",
"      XXXXX...X...X...XXXX      ",
"      XXXXX...X...X...XXXXX     ",
"     XXXXXX...........XXXXXX    ",
"XXX XXXXXXX.X..XXX..X.XXXXXXX X ",
"    XXXX  X..X..X..X..X  XXXX   ",
"   XXXXX   X.XXX.XXX.X   XXXXX  ",
"   XXXX    X..X...X..X    XXXX  ",
"    XX      XXX.X.XXX      XX   ",
"              X.X.X             ",
"             XX.X.XX     X      ",
"            X.X.X.X.X   XXX     ",
"           X...XXX...X XX.X     ",
"           X.........XXX.X      ",
"           X.........XX.X       ",
"        XXXX..X...X..X.XX       ",
"       X...X..X...X..X..XX      ",
"      XX...X..X...X..X...XX     ",
"      X...XX..X...X..XXX..X     ",
"      XXXX.....XXX.....XXXX     ",
"     XX..X.X.X.XXX.X.X.X..XX    ",
"     XXXXXXXXXXX XXXXXXXXXXX    ",
"                                ",
"                                ",
"                                "
};