/* XPM */
static char	*bottom[] = {
"32 32 3 1",
"  c None",
"X c white",
". c black",
"                                ",
"             ...                ",
"            .XXX.               ",
"            .XXXX.              ",
"             .XXXX.             ",
"              .XXX.             ",
"          ....XXXXX....         ",
"         .XXXXXXXXXXXXX.        ",
"        .XXXXXXXXXXXXXXX.       ",
"        .XXXXXXXXXXXXXXX.       ",
"       .XXXXXXXXXXXXXXXXX.      ",
"       .XXXXXXXXXXXXXXXXX.      ",
"      ..XXX.XXXXXXXXX.XXX..     ",
"    ..XXXXX.XXXXXXXXX.XXXXX..   ",
"   .XXXXXX..XXXXXXXXX..XXXXXX.  ",
"   .X.XXXX.XX.......XX.XXXX.X.  ",
"    ......XX.XXXXXXX.XX......   ",
"         ....XXXXXXX....        ",
"        ....XXXXXXXXX....       ",
"       .....XXXXXXXXX.....      ",
"      .....XXX.XXX.XXX.....     ",
"     ......XXX.XXX.XXX......    ",
"    ......XXXXXXXXXXXXX......   ",
"    .......XXXX...XXXX.......   ",
"    ......X.X.XX.XX.X........   ",
"    ......X.XX..X..XX.. .....   ",
"     ... .XX...XXX...X.  ...    ",
"        .XXXXX.X.X.XXX.         ",
"        .X.X.X.....XXXX.        ",
"         .....   .XXXXX.        ",
"                 .X.X.X.        ",
"                                "
};