/* XPM */
static char	*bottom_alt[] = {
"32 32 3 1",
"  c None",
"X c white",
". c black",
"                                ",
"                 ...            ",
"                .XXX.           ",
"               .XXXX.           ",
"              .XXXX.            ",
"              .XXX.             ",
"          ....XXXXX....         ",
"         .XXXXXXXXXXXXX.        ",
"        .XXXXXXXXXXXXXXX.       ",
"        .XXXXXXXXXXXXXXX.       ",
"       .XXXXXXXXXXXXXXXXX.      ",
"       .XXXXXXXXXXXXXXXXX.      ",
"      ..XXX.XXXXXXXXX.XXX..     ",
"    ..XXXXX.XXXXXXXXX.XXXXX..   ",
"   .XXXXXX..XXXXXXXXX..XXXXXX.  ",
"   .X.XXXX.XX.......XX.XXXX.X.  ",
"    ......XX.XXXXXXX.XX......   ",
"         ....XXXXXXX....        ",
"        ....XXXXXXXXX....       ",
"       .....XXXXXXXXX.....      ",
"      .....XXX.XXX.XXX.....     ",
"     ......XXX.XXX.XXXX.....    ",
"    ......XXXXXXXXXXXXX......   ",
"    .......XXXX...XXXX........  ",
"    ........X.XX.XX.X.X.......  ",
"    ..... ..XX..X..XX.X. .....  ",
"     ...  .X...XXX...XX.  ...   ",
"          .XXX.X.X.XXXXX.       ",
"         .XXXX.....X.X.X.       ",
"         .XXXXX.   .....        ",
"         .X.X.X.                ",
"                                "
};