/* XPM */
static char	*down_right[] = {
"32 32 3 1",
"  c None",
"X c white",
". c black",
"                                ",
"      ..                        ",
"    ..XX...                     ",
"    .XXXXX....                  ",
"    .X..XXXXX....               ",
"     .. ....XXXXX.              ",
"        ..XXXXXXXX..            ",
"      ..XXXXXXXXXXXX.           ",
"     ..XXXXXXXXXXXXXX.          ",
"     .XXXX.XXXXXXXXXXX.         ",
"     .XXXXX.XXXXXXXXXX.   ..    ",
"     .XXXXXX.XXXXXXXXXX.  ...   ",
"     .XXXXXXX..XXXXX......X..   ",
"     .XXXXXX....XX..XXXXXX.X.   ",
"      .XXXXX........XXXXXXX.X   ",
"      .XXXXX........XXXXXXXX.   ",
"      .XXXXX.........XX.XX.X.   ",
"      .XXXXXX......XXXX.XX.X.   ",
"      .XXXXXX.X..XXXXXXXXXXXX.  ",
"      .XXXXX.XXXXXXXXXXXX...X.  ",
"       .XXX.XXX.XX.XXX.XXX.XX.  ",
"        .X...XX.XXX.XXX.X.X..   ",
"        .XXX....XXX..XX..XX.    ",
"         .XXXXX..XX.X.XX.X..    ",
"         .XXXXX.X..XXX...X..    ",
"          .XX.X.....X..  ..     ",
"          .......   ..          ",
"                                ",
"                                ",
"                                ",
"                                ",
"                                "
};