/* XPM */
static char	*down_left[] = {
"32 32 3 1",
"  c None",
"X c white",
". c black",
"                                ",
"                        ..      ",
"                     ...XX..    ",
"                  ....XXXXX.    ",
"               ....XXXXX..X.    ",
"              .XXXXX.... ..     ",
"            ..XXXXXXXX..        ",
"           .XXXXXXXXXXXX..      ",
"          .XXXXXXXXXXXXXX..     ",
"         .XXXXXXXXXXX.XXXX.     ",
"    ..   .XXXXXXXXXX.XXXXX.     ",
"   ...  .XXXXXXXXXX.XXXXXX.     ",
"   ..X......XXXXX..XXXXXXX.     ",
"   .X.XXXXXX..XX....XXXXXX.     ",
"   X.XXXXXXX........XXXXX.      ",
"   .XXXXXXXX........XXXXX.      ",
"   .X.XX.XX.........XXXXX.      ",
"   .X.XX.XXXX......XXXXXX.      ",
"  .XXXXXXXXXXXX..X.XXXXXX.      ",
"  .X...XXXXXXXXXXXX.XXXXX.      ",
"  .XX.XXX.XXX.XX.XXX.XXX.       ",
"   ..X.X.XXX.XXX.XX...X.        ",
"    .XX..XX..XXX....XXX.        ",
"    ..X.XX.X.XX..XXXXX.         ",
"    ..X...XXX..X.XXXXX.         ",
"     ..  ..X.....X.XX.          ",
"          ..   .......          ",
"                                ",
"                                ",
"                                ",
"                                ",
"                                "
};