/* XPM */
static char	*down[] = {
"32 32 3 1",
"  c None",
"X c white",
". c black",
"                                ",
"            ...                 ",
"           .XXX.                ",
"           ..XXX.               ",
"             .XXX.              ",
"              .XXX.             ",
"            ...XXX...           ",
"          ..XXXXXXXXX..         ",
"         .XXXXXXXXXXXXX.        ",
"        .XXXXXXXXXXXXXXX.       ",
"       .XXXXXXXXXXXXXXXXX.      ",
"       .XXXXXXXXXXXXXXXXX.      ",
"       .X.XXXXXXXXXXXXX.X.      ",
"    ...XX.XXXXXXXXXXXXX.XX...   ",
"   ....X.XXXXXXXXXXXXXXX.X....  ",
"   .....XXXXX.......XXXXX.....  ",
"   ..........XXXXXXX..........  ",
"    ........XXXXXXXXX........   ",
"     ......XXXXXXXXXXX......    ",
"      ....XXXXXXXXXXXXX....     ",
"     .XX..XXXX.XXX.XXXX..XX.    ",
"     .X...XXXX.XXX.XXXX...X.    ",
"     ...X.XXXXXXXXXXXXX.X...    ",
"       .XX.XXXX...XXXX.XX.      ",
"        ....X.XX.XX.X....       ",
"          ..XX..X..XX..         ",
"            ...XXX...           ",
"              .X.X.             ",
"               ...              ",
"                                ",
"                                ",
"                                "
};