/* XPM */
static char	*down_alt[] = {
"32 32 3 1",
"  c None",
"X c white",
". c black",
"         ...     ... ...        ",
"        ..X..   .XX...X..       ",
"        ..X..  .XXX...X..       ",
"        .XXX. .XXX. .XXX.       ",
"        .XXX. .XXX. .XXX.       ",
"        .XXX...XXX..XXXX.       ",
"        .XX.XXXXXXXX.XXX.       ",
"        .X.XXXXXXXXXX.XX.       ",
"        .XXXXXXXXXXXXXXX.       ",
"        .XXXXXXXXXXXXXXX.       ",
"         .XXXXXXXXXXXXX.        ",
"         .XXXXXXXXXXXXX.        ",
"         .XXXXXXXXXXXXX.        ",
"         .XXXXXXXXXXXXX.        ",
"         .XXXXXXXXXXXXX.        ",
"        .XXXX.......XXXX.       ",
"   .    .XX..XXXXXXX..XX.    .  ",
"  ....  ....XXXXXXXXX....  .... ",
"  .........XXXXXXXXXXX......... ",
"  ........XXXXXXXXXXXXX........ ",
"   .......XXXX.XXX.XXXX.......  ",
"    ......XXXX.XXX.XXXX......   ",
"      .. .XXXXXXXXXXXXX. ..     ",
"         ..XXXX...XXXX..        ",
"         .X.X.XX.XX.X.X.        ",
"         ...XX..X..XX...        ",
"         .XX.X.XXX.X.XX.        ",
"         .XXX..X.X..XXX.        ",
"        .XXXXXX...XXXXXX.       ",
"        .X.X.X.   .X.X.X.       ",
"        ......     ......       ",
"                                "
};