/* XPM */
static char	*down_left_alt[] = {
"32 32 3 1",
"  c None",
"X c white",
". c black",
"                 ...            ",
"                .XXX.           ",
"                 .XXX.     ...  ",
"                .X.XX.    ..X.. ",
"               .XX.XX.    .XXX. ",
"              .XX.XXX.   .XXXX. ",
"              ....XXX. ..XXX..  ",
"             ..XXXXX...XXXX..   ",
"           ..XXXXXX..XXXXXX.    ",
"          .XXXXXXXXXXXXXXXX.    ",
"         .XXXXXXXXXXXXXXXXX.    ",
"        .XXXXXX..XXXXXXXXX.     ",
"  ...   .XXXXX....XXXXXXXX.     ",
" ....  .XXXXX.....XXXXXXX.      ",
" ...X......XX.....XXXXX..       ",
"...X.XXXXXX.......XXX..         ",
"..X.XXXXXXX......XXXX.          ",
" ..XXXXXXXX......XXX.           ",
"  .XXXXXXX......XXXX.           ",
"  .X.XX.XX......XXX.            ",
" .XX.XX.XXX...XXXX.             ",
" .XXXXXXXXXXXXXXXX.             ",
" .XX...XXXXXXX.XX.              ",
"  ..X.XXX.XX..XX.               ",
"   ..X.X.XX.XXX.                ",
"   .XXX.XX..XX.                 ",
"  ..X.X.X.XXX.                  ",
" .XX.X.X..XXX.                  ",
".XXXX...XXXX.                   ",
"..X.X. ..X.X.                   ",
" ....   ....                    ",
"                                "
};