/* XPM */
static char	*down_right_alt[] = {
"32 32 3 1",
"  c None",
"X c white",
". c black",
"            ...                 ",
"           .XXX.                ",
"  ...     .XXX.                 ",
" ..X..    .XX.X.                ",
" .XXX.    .XX.XX.               ",
" .XXXX.   .XXX.XX.              ",
"  ..XXX.. .XXX....              ",
"   ..XXXX...XXXXX..             ",
"    .XXXXXX..XXXXXX..           ",
"    .XXXXXXXXXXXXXXXX.          ",
"    .XXXXXXXXXXXXXXXXX.         ",
"     .XXXXXXXXX..XXXXXX.        ",
"     .XXXXXXXX....XXXXX.   ...  ",
"      .XXXXXXX.....XXXXX.  .... ",
"       ..XXXXX.....XX......X... ",
"         ..XXX.......XXXXXX.X...",
"          .XXXX......XXXXXXX.X..",
"           .XXX......XXXXXXXX.. ",
"           .XXXX......XXXXXXX.  ",
"            .XXX......XX.XX.X.  ",
"             .XXXX...XXX.XX.XX. ",
"             .XXXXXXXXXXXXXXXX. ",
"              .XX.XXXXXXX...XX. ",
"               .XX..XX.XXX.X..  ",
"                .XXX.XX.X.X..   ",
"                 .XX..XX.XXX.   ",
"                  .XXX.X.X.X..  ",
"                  .XXX..X.X.XX. ",
"                   .XXXX...XXXX.",
"                   .X.X.. .X.X..",
"                    ....   .... ",
"                                "
};