/* XPM */
static char	*idle[] = {
"32 32 3 1",
"  c None",
"X c black",
". c white",
"                                ",
"                                ",
"                                ",
"                                ",
"            XXXXXXXXX           ",
"          XX.........XX         ",
"         XXX.........XXX        ",
"        XXX...X...X...XXX       ",
"       XXXX...X...X...XXXX      ",
"       XXXX...........XXXXX     ",
"       XXXX...........XXXXX     ",
"      XXXXX....XXX....XXXXX     ",
"      XXXXX..X..X..X..XXXXXX    ",
"     XXXXXXX..XX.XX..XXXXXXX    ",
"     XXXXX X..X...X..X XXXXX    ",
"     XXXXX  XX.XXX.XX  XXXXX    ",
"     XXXXX    X...X    XXXXX    ",
"      XXX    XX...XX    XXX     ",
"            X.......X      XXX  ",
"           X.........X    X...X ",
"           X.........X   X....X ",
"           X.........X  X...XXX ",
"        XXXX..X...X..XXXX..X    ",
"       X...X..X...X..X...XX     ",
"      XX...X..X...X..X...XX     ",
"      X...XX..X...X..XX...X     ",
"      XXXX.....XXX.....XXXX     ",
"     XX..X.X.X.XXX.X.X.X..XX    ",
"     XXXXXXXXXXX XXXXXXXXXXX    ",
"                                ",
"                                ",
"                                "
};