/* XPM */
static char	*left_alt[] = {
"32 32 3 1",
"  c None",
"X c white",
". c black",
"                                ",
"                                ",
"                                ",
"                                ",
"                                ",
"                            ..  ",
"                           .XX. ",
"     .....                 .XX. ",
"    .XXXX.. ...           .XX.  ",
"   .XXXX........         .XXX.  ",
"  ..X.XX........    .....XXX.   ",
"..XXX.XX........ ...XXXXX.X.    ",
".XXXXXXXX...... .XXXXXXXXXX.    ",
".XXXXXXXXX...X..XXXXXXXXXXXX.   ",
" .XX.XXXXXXXXXXXXXXXXXXXXXXX.   ",
"  ..XXX.XXXXXXXXXXXXXXXXXXXX.   ",
" .X.XX..XXXXXXXXXXXXXXXXXXXX.   ",
" .X...  .XXXXXXXXXXXXXXXXXXXX.  ",
" .X.   ....XXXXXXXXXXXXXXXXXX.  ",
"  .    .XXXXXXXXXXXXXX.XXXXXXX..",
"      ..XXXXXXXXXXXXXX..XX.XXXX.",
"     .XXXXX..XXXXXXX...X....XXX.",
"  ...XXXXX.X.........  ....X.XX.",
" .XXXXXX..X...             .X...",
" ..XXX..XX.                 ... ",
"  ....  ..                      ",
"                                ",
"                                ",
"                                ",
"                                ",
"                                ",
"                                "
};