/* XPM */
static char	*left[] = {
"32 32 3 1",
"  c None",
"X c white",
". c black",
"                                ",
"                                ",
"                                ",
"                                ",
"                                ",
"                            ..  ",
"                           .XX. ",
"                           .XXX.",
"                            .XX.",
"                .......     ..X.",
"            ....XXXXXXX... ..XX.",
"     .......XXXXXXXXXXXXXX..XX..",
"    .XXXX...X...XXXXXXXXXXXXXX. ",
"   .XXXX.........XXXXXXXXXX.X.  ",
"  ..X.XX..........XXXXXXXXX..   ",
"..XXX.XX..........XXXXXXXXXX.   ",
".XXXXXXXX.........XXXXXXXXXXX.  ",
".XXXXXXXXXX......XX.XXXXXXXXX.  ",
" .XX.XXXXXXXX...XXX.XXXXXXXXX.  ",
"  ..XXXX.XXXXXXXXXXX..XXXXXX.   ",
" .X.XXX. ...XX.XXXXXX....XX.    ",
" .X....   .XXXX.XX...X..XXX.    ",
" .X.       ..XXX..X.X..XXX.X.   ",
"  .          .XXX.XX..XXXX.X.   ",
"              .XX....XXXX. ..   ",
"             .XXX. ..X.X..      ",
"             .XXX. . ....       ",
"              ...               ",
"                                ",
"                                ",
"                                ",
"                                "
};