/* XPM */
static char	*lick[] = {
"32 32 3 1",
"  c None",
"X c black",
". c white",
"                                ",
"                                ",
"                                ",
"                                ",
"                                ",
"                                ",
"                                ",
"                                ",
"                                ",
"                                ",
"                                ",
"                                ",
"                                ",
"                 XXXXX          ",
"           XXX XXXXXXXX         ",
"         XX...XXXXXXXXXX        ",
"        X......XXXXXXXXXX    XX ",
"       X........XXXXXXXXX   X..X",
"      XX.........X.X XXXX  X...X",
"    XXXX......X..X..X XX  X...X ",
"    XXXX..XX.....X..X    X...X  ",
"   XXXXX.....X.X.X...XXXX...X   ",
"   XXXXXX...XX.X.X...X..X..X    ",
"  XXXXXX..X..XXXX.X...X..XX     ",
" XXXXXX.X..XX...X..X..X...X     ",
" XXXXXX.XXX.X.X..X.X..XX..X     ",
" XXXXXXX....X..X.XX.....XXX     ",
" XXXXXXX.X.XXX.XXXX.X.X.X.XX    ",
"  XXXXXXXXXXX.XXX XXXXXXXXXX    ",
"                                ",
"                                ",
"                                "
};