/* XPM */
static char	*right[] = {
"32 32 3 1",
"  c None",
"X c white",
". c black",
"                                ",
"                                ",
"                                ",
"                                ",
"                                ",
"  ..                            ",
" .XX.                           ",
".XXX.                           ",
".XX.                            ",
".X..     .......                ",
".XX.. ...XXXXXXX....            ",
"..XX..XXXXXXXXXXXXXX.......     ",
" .XXXXXXXXXXXXXX...X...XXXX.    ",
"  .X.XXXXXXXXXX.........XXXX.   ",
"   ..XXXXXXXXX..........XX.X..  ",
"   .XXXXXXXXXX..........XX.XXX..",
"  .XXXXXXXXXXX.........XXXXXXXX.",
"  .XXXXXXXXX.XX......XXXXXXXXXX.",
"  .XXXXXXXXX.XXX...XXXXXXXX.XX. ",
"   .XXXXXX..XXXXXXXXXXX.XXXX..  ",
"    .XX....XXXXXX.XX... .XXX.X. ",
"    .XXX..X...XX.XXXX.   ....X. ",
"   .X.XXX..X.X..XXX..       .X. ",
"   .X.XXXX..XX.XXX.          .  ",
"   .. .XXXX....XX.              ",
"      ..X.X.. .XXX.             ",
"       .... . .XXX.             ",
"               ...              ",
"                                ",
"                                ",
"                                ",
"                                "
};