/* XPM */
static char	*right_alt[] = {
"32 32 3 1",
"  c None",
"X c white",
". c black",
"                                ",
"                                ",
"                                ",
"                                ",
"                                ",
"  ..                            ",
" .XX.                           ",
" .XX.                 .....     ",
"  .XX.           ... ..XXXX.    ",
"  .XXX.         ........XXXX.   ",
"   .XXX.....    ........XX.X..  ",
"    .X.XXXXX... ........XX.XXX..",
"    .XXXXXXXXXX.X......XXXXXXXX.",
"   .XXXXXXXXXXXX..X...XXXXXXXXX.",
"   .XXXXXXXXXXXXXXXXXXXXXXX.XX. ",
"   .XXXXXXXXXXXXXXXXXXXX.XXX..  ",
"   .XXXXXXXXXXXXXXXXXXXX..XX.X. ",
"  .XXXXXXXXXXXXXXXXXXXX.  ...X. ",
"  .XXXXXXXXXXXXXXXXXX....   .X. ",
"..XXXXXXX.XXXXXXXXXXXXXX.    .  ",
".XXXX.XX..XXXXXXXXXXXXXX..      ",
".XXX....X...XXXXXXX..XXXXX.     ",
".XX.X....  .........X.XXXXX...  ",
"...X.             ...X..XXXXXX. ",
" ...                 .XX..XXX.. ",
"                      ..  ....  ",
"                                ",
"                                ",
"                                ",
"                                ",
"                                ",
"                                "
};