/* XPM */
static char	*scratch_alt[] = {
"32 32 3 1",
"  c None",
"X c black",
". c white",
"                                ",
"                                ",
"                                ",
"                                ",
"                                ",
"                                ",
"                                ",
"                      XXX       ",
"                     XXXXX      ",
"                   XXXXXXX      ",
"         XXXXXX  XXXXXXXXX      ",
"        X......XXXXXXXXXX       ",
"       X......XXXXXXXXXX        ",
"      X....X...XXXX  XX         ",
"     X....X.....XXXXX           ",
"     X....X.......XXX           ",
"    XXX........XXX.X.X          ",
"    XX..XX...X...X...X          ",
"    XX..X....X.X.X...XX         ",
"   XXXXX..X.XX.X.X.....XX       ",
"   XXXXXX.XX..X...X......X      ",
"  XXXXXX.X...X...XXX.....X      ",
"  XXXXXXXXXXX.X...X.XXX...X     ",
" XXXXX.X...X..X...X..X....X     ",
" XXXXXX....X..X...X..X....X     ",
"   XX X...XX..X...X..XX...XXXXX ",
"      XXXX.....XXX.....X.X.....X",
"     XX..X.X.X.XXX.X.X.XX......X",
"     XXXXXXXXXXX XXXXXXXXXXXXXX ",
"                                ",
"                                ",
"                                "
};