/* XPM */
static char	*scratch[] = {
"32 32 3 1",
"  c None",
"X c black",
". c white",
"                                ",
"                                ",
"                                ",
"                                ",
"                                ",
"                     XX         ",
"                    XXXX        ",
"                   XXXXXX       ",
"                   XXXXXX       ",
"                  XXXXXXX       ",
"        XXXXXX  XXXXXXXXX       ",
"       X......XXXXXXXXXX        ",
"      X......XXXXXXXXXX         ",
"     X....X...XXXXXX..X         ",
"    X....X.....XXXXX..X         ",
"    X....X........XX..X         ",
"   XXX.............X...XX       ",
"   XX..XX...X..X....X....XX     ",
"   XX..X....X..X....X......X    ",
"  XXXXX..X.XX.X......X......X   ",
"  XXX.XX.XX..X........XX....X   ",
" XXXX.X.X...X...............X   ",
" XXXXXXXXXXX..X..X..X......X    ",
" XXXXX.X...X..X..X..X......X    ",
" XXXXXX....X..X..X...X....X     ",
"   XX X...XX..X...X..XX...XXXXX ",
"      XXXX.....XXX.....X.X.....X",
"     XX..X.X.X.XXX.X.X.XX......X",
"     XXXXXXXXXXX XXXXXXXXXXXXXX ",
"                                ",
"                                ",
"                                "
};