/* XPM */
static char	*side_l[] = {
"32 32 3 1",
"  c None",
"X c white",
". c black",
"                                ",
"                                ",
"                                ",
"                                ",
"                                ",
"                                ",
"                                ",
"     ......                     ",
"    .XXXXX..                 .. ",
"   .XXXX.....               .XX.",
"  ..X.XX.....               .XX.",
"..XXX.XX.....               .XX.",
".XXXXXXX......  ........    .XX.",
".XXXXXXX........XXXXXXXX.   .XX.",
" ...XXXX......XXXXXXXXXXX. .XXX.",
"    .XX.......XXXXXXXXXXXX.XXX. ",
"   .XXX......XXXXXXXXXXXXXXXX.  ",
"  .XX..X....XXXXXXXX.XXXXXX..   ",
"   ..  .XXXXXXXXXXX.XXXXXXX.    ",
"        .XXXXXXXXXX.XXXXXXX.    ",
"        .X.XXX.XXXX.XXXXXXX.    ",
"        ...XXX.XXXXX.XXXXXX.    ",
"        .XX.XX.........XXX.     ",
"        .X.XXX.    .XXX.XX.     ",
"      ..XX.XX.    .XXXX.XX.     ",
"     .XX..XXX.   .XXX..XXX.     ",
"     .X.XXXX.    .X..XXXXX.     ",
"      ..X.XX.     . .X.XXX.     ",
"        ....         .....      ",
"                                ",
"                                ",
"                                "
};