/* XPM */
static char	*side_r_alt[] = {
"32 32 3 1",
"  c None",
"X c white",
". c black",
"                                ",
"                                ",
"                                ",
"                              . ",
"                             .  ",
"                            .   ",
"   ..                 ....    . ",
"  .XX.               ..XXX.     ",
" .XXX.              ..XXXXX.    ",
".XXX.              ....XXXXX... ",
".XX.               .....XX.XXX. ",
".XX.              .....XXXXXXX. ",
".XX.   ......... ......XXXXXXX. ",
".XXX. .XXXXXXXXX.......XXXXXX.  ",
" .XXX.XXXXXXXXXXX.......XXXX.   ",
"  .XXXXXXXXXXXXXX.......XXX.    ",
"   ..XXXXXXXXXXXXX......XXXX.   ",
"    .XXXXXX.XXXXXXX....XX..XX.  ",
"    .XXXXXXX.XXXXXXX..XX.  ..   ",
"    .XXXXXXX.XXXXXXXXXX.        ",
"    .XXXXXXX.XXXXXXXX.X.        ",
"    .XXXXXX.XXXXX.XXX...        ",
"     .XXX.........XXX.XX...     ",
"     .XX.XXX.     .XXX.XXXX.    ",
"     .XX.XXXX...   .XXX.XXXX.   ",
"     .XXX..XXXXX.   .XXX...X.   ",
"     .XXXXX..XXX.    .XXXXX.    ",
"     .XXX.X. ...      .XX.X.    ",
"      .....            ....     ",
"                                ",
"                                ",
"                                "
};