/* XPM */
static char	*side_r[] = {
"32 32 3 1",
"  c None",
"X c white",
". c black",
"                                ",
"                                ",
"                                ",
"                                ",
"                                ",
"                                ",
"                                ",
"                     ......     ",
" ..                 ..XXXXX.    ",
".XX.               .....XXXX.   ",
".XX.               .....XX.X..  ",
".XX.               .....XX.XXX..",
".XX.    ........  ......XXXXXXX.",
".XX.   .XXXXXXXX........XXXXXXX.",
".XXX. .XXXXXXXXXXX......XXXX... ",
" .XXX.XXXXXXXXXXXX.......XX.    ",
"  .XXXXXXXXXXXXXXXX......XXX.   ",
"   ..XXXXXX.XXXXXXXX....X..XX.  ",
"    .XXXXXXX.XXXXXXXXXXX.  ..   ",
"    .XXXXXXX.XXXXXXXXXX.        ",
"    .XXXXXXX.XXXX.XXX.X.        ",
"    .XXXXXX.XXXXX.XXX...        ",
"     .XXX.........XX.XX.        ",
"     .XX.XXX.    .XXX.X.        ",
"     .XX.XXXX.    .XX.XX..      ",
"     .XXX..XXX.   .XXX..XX.     ",
"     .XXXXX..X.    .XXXX.X.     ",
"     .XXX.X.X.     .XX.X..      ",
"      .....         ....        ",
"                                ",
"                                ",
"                                "
};