/* XPM */
static char	*side_l_alt[] = {
"32 32 3 1",
"  c None",
"X c white",
". c black",
"                                ",
"                                ",
"                                ",
" .                              ",
"  .                             ",
"   .                            ",
" .    ....                 ..   ",
"     .XXX..               .XX.  ",
"    .XXXXX..              .XXX. ",
" ...XXXXX....              .XXX.",
" .XXX.XX.....               .XX.",
" .XXXXXXX.....              .XX.",
" .XXXXXXX...... .........   .XX.",
"  .XXXXXX.......XXXXXXXXX. .XXX.",
"   .XXXX.......XXXXXXXXXXX.XXX. ",
"    .XXX.......XXXXXXXXXXXXXX.  ",
"   .XXXX......XXXXXXXXXXXXX..   ",
"  .XX..XX....XXXXXXX.XXXXXX.    ",
"   ..  .XX..XXXXXXX.XXXXXXX.    ",
"        .XXXXXXXXXX.XXXXXXX.    ",
"        .X.XXXXXXXX.XXXXXXX.    ",
"        ...XXX.XXXXX.XXXXXX.    ",
"     ...XX.XXX.........XXX.     ",
"    .XXXX.XXX.     .XXX.XX.     ",
"   .XXXX.XXX.   ...XXXX.XX.     ",
"   .X...XXX.   .XXXXX..XXX.     ",
"    .XXXXX.    .XXX..XXXXX.     ",
"    .X.XX.      ... .X.XXX.     ",
"     ....            .....      ",
"                                ",
"                                ",
"                                "
};