/* XPM */
static char	*sleep_alt[] = {
"32 32 3 1",
"  c None",
"X c black",
". c white",
"                                ",
"                                ",
"                                ",
"                                ",
"                                ",
"                                ",
"                                ",
"                                ",
"                                ",
"        XXXXXX                  ",
"            X     XXXX          ",
"          XX        X           ",
"          X        X            ",
"        XXXXXX    XXXX          ",
"                                ",
"                                ",
"           XXXXXXXXXXXXX        ",
"         XX...XXXX......X       ",
"        X....XX..........X      ",
"       X....XX............X     ",
"       X....XXXXX.........XXX   ",
" XX    X...XXXXXX.........XXXX  ",
"X..X  X....XXXXXX.XXX..XX.XXXX  ",
"X...XXX..X.XXXXXX..........XXXX ",
" X....X...XXXXX......XXX...XXXX ",
"  XXXXX...XXXXX.......X...X.XXX ",
"   X.....XXXXXXX......X.XX.XXXX ",
"   X.X.XXXXXXXX.XXXXXXXX.XXXXXX ",
"   XXXXXXXXXXX..X.X.XXXX..X.XXX ",
"       XXXXXXXXXXXXXX  XXXXXXX  ",
"                                ",
"                                "
};