/* XPM */
static char	*sleep[] = {
"32 32 3 1",
"  c None",
"X c black",
". c white",
"                                ",
"                                ",
"                                ",
"      XXXXXXX                   ",
"           X                    ",
"        X X                     ",
"         X                      ",
"        X X     XXXXX           ",
"       X           X            ",
"      XXXXXXX     X             ",
"                XXXXX           ",
"                                ",
"                                ",
"                                ",
"                                ",
"                                ",
"                  XXXXXX        ",
"           XXXXXXX......X       ",
"         XX..XX..........X      ",
"        X...XX............X     ",
"        X...XXXXX.........XXX   ",
"       X...XXXXXX.........XXXX  ",
"      X....XXXXXX.XXX..XX.XXXX  ",
"  XXXXX.X..XXXXXX..........XXXX ",
" XX...X..X.XXXXX.....XXX...XXXX ",
"X...XXX...XXXXXX......X...X.XXX ",
"X..XX.....XXXXXXX.....X.XX.XXXX ",
"X.X X.X.XXXXXXX.XXXXXXXX.XXXXXX ",
"XXX XXXXXXXXXX..X.X.XXXX..X..XX ",
"        XXXXXXXXXXXXX  XXXXXXX  ",
"                                ",
"                                "
};