/* XPM */
static char	*top_alt[] = {
"32 32 3 1",
"  c None",
"X c white",
". c black",
"                     ...        ",
"                    .X.X.       ",
"           ...      .XXX.       ",
"          .X.X.......XXX.       ",
"          .XX..XXXXX..XX.       ",
"          .X.XXXXXXXXX.X.       ",
"          ..XXX.XXX.XXX..       ",
"          .XXXX.XXX.XXXX.       ",
"          .XXXXXXXXXXXXX.       ",
"           ..XXXXXXXXX..        ",
"          ....XXXXXXX....       ",
"         ......XXXXX......      ",
"       .......XX...XX.......    ",
"      ........XXXXXXX........   ",
"     ........XXXXXXXXX........  ",
"     .......XXXXXXXXXXX.......  ",
"     .......XXXXXXXXXXX.......  ",
"      .....XXXXXXXXXXXXX.....   ",
"         .XXXXXXXXXXXXXXX.      ",
"         ..XXXXXXXXXXXXX..      ",
"       ...XXXXXXXXXXXXXXX...    ",
"      .X.X.XXXXXXXXXXXXX.X.X.   ",
"      .XXX.XXX..XXX..XXX.XXX.   ",
"       .XXXXXXX.XXX.XXXXXXX.    ",
"        .XXX....XXX.XXXXXX.     ",
"         ...XXXXXX. .XXX..      ",
"           .XXXXX.   ...        ",
"            .....               ",
"                                ",
"                                ",
"                                ",
"                                "
};