/* XPM */
static char	*up[] = {
"32 32 3 1",
"  c None",
"X c white",
". c black",
"             .....              ",
"           ..XXXXX..            ",
"          .XXXXXXXXX.           ",
"        ..XXX.XXX.XXX..         ",
"        .XXXX.XXX.XXXX.         ",
"        .XXXXXXXXXXXXX.         ",
"       .XX.XXXXXXXXX.XX.        ",
"       .X...XXXXXXX...X.        ",
"       ......XXXXX......        ",
"      ......XX...XX......       ",
"    ........XXXXXXX........     ",
"   ........XXXXXXXXX........    ",
"   ........XXXXXXXXX........    ",
"   .......XXXXXXXXXXX.......    ",
"    .....X.XXXXXXXXX.X.....     ",
"     .XXXXXXXXXXXXXXXXXX..      ",
"     .XXXXXXXXXXXXXXXXXXX.      ",
"     .XXXXXXXXXXXXXXXXXXX.      ",
"      .XXXXXXXXXXXXXXXXX.       ",
"      .XXXXXXXXXXXXXXXXX.       ",
"      .XXXXXXXXXXXXXXXXX.       ",
"      .XXXXXXXXXXXXXXXXX.       ",
"       .XXXXXXXXXXXXXXX.        ",
"        ..XXX.XXX.XXX..         ",
"          ....XXX....           ",
"             .XXX.              ",
"            .XXXX.              ",
"           .XXXXX.              ",
"           .XXXX.               ",
"            ....                ",
"                                ",
"                                "
};