/* XPM */
static char	*up_alt[] = {
"32 32 3 1",
"  c None",
"X c white",
". c black",
"             .....              ",
"     ....  ..XXXXX..  ....      ",
"    .XXX. .XXXXXXXXX. .XXX.     ",
"    .XXX..XXX.XXX.XXX..XXX.     ",
"     .XX.XXXX.XXX.XXXX.XX.      ",
"     .XX.XXXXXXXXXXXXX.XX.      ",
"     .X.X..XXXXXXXXX..X.X.      ",
"     .X.....XXXXXXX.....X.      ",
"     .X......XXXXX......X.      ",
"     .......XX...XX.......      ",
"     .......XXXXXXX.......      ",
"   ........XXXXXXXXX........    ",
"   .......XXXXXXXXXXX.......    ",
"   .......XXXXXXXXXXX.......    ",
"    .....XXXXXXXXXXXXX.....     ",
"       .XXXXXXXXXXXXXXX.        ",
"       ..XXXXXXXXXXXXX..        ",
"       .XXXXXXXXXXXXXXX.        ",
"      .XXXXXXXXXXXXXXXXX.       ",
"      .XXXXX..XXX..XXXXX.       ",
"      .XXXXXX.XXX.XXXXXX.       ",
"      .XXXXXX.XXX.XXXXXX.       ",
"      .XXXXXX..XXX.XXXXX.       ",
"      .XXXXXX..XXXX.XXXX.       ",
"      ...XXXX...XXX.XX...       ",
"       .XXXXX.  ...XXXX.        ",
"      .XXXXX.     .XXXXX.       ",
"      .XXX..       ..XXX.       ",
"      ..XX.         .XX..       ",
"      ....           ....       ",
"                                ",
"                                "
};