/* XPM */
static char	*up_left[] = {
"32 32 3 1",
"  c None",
"X c white",
". c black",
"                                ",
"       ........                 ",
"      .XXXXXXXX.                ",
"     ..XXXXXXXX..               ",
"    ..XXXXXXXXXXX....           ",
"    .XXXXXXX..XXX.X......       ",
"    .XXXXXX....XXX........      ",
"    .XXXXXX.....X..X......      ",
"    .XXXXXX...............      ",
"     .XXXXX.........XX...       ",
"     .XXX.XX.........XXXX.      ",
"      ...XXXX........XXXXX.     ",
"        .XXXX........XXXXXX.    ",
"        .XXXXX......XXXXXXX.    ",
"         .XXXXXX...XXXXXXXXX.   ",
"         ..XXXXXXXXXXXXXXXXXX.  ",
"         ...XX..XXXXXXXXXXXXX.  ",
"         .XXX.XXXXXXXXXXXXXXX.  ",
"         .XX..XXXXXXXXXXXXX.X.  ",
"         .XXX.XXXXXXXXXXXXXX..  ",
"          .XX.XXXXXXXXXXXXXXX.  ",
"          .XX..XXXXXXXXXX.XXXX. ",
"           ..X..XXXXXX..X..XXX. ",
"            ..X...XXXX.X...XXXX.",
"             ..XXXXXXX.XX. .XXX.",
"            .XXXXXXX......  .XX.",
"            .XXXXXXX....    .XX.",
"            .XXXX...         .. ",
"             .....              ",
"                                ",
"                                ",
"                                "
};