/* XPM */
static char	*up_left_alt[] = {
"32 32 3 1",
"  c None",
"X c white",
". c black",
"                                ",
"                                ",
"        ........                ",
"       .XXXXXXX..               ",
"      .XXXXXXXXXX..             ",
"     .XXXXX..XXXX......         ",
"     .XXXX....XXX.......        ",
" ... .XXXX.....XX........       ",
".XXX..XXXX.....XXX.......       ",
".XXX....XX......XX......        ",
".XXXXX..XX.......XX..           ",
" ..XXXX..........XXXX.    ..    ",
"  ...XXXXXX......XXXXX.  .XX.   ",
"    ...XXXX.....XXXXXXX...XX.   ",
"      .XXXXX...XXXXXXXX..XXX.   ",
"       ..XXXXXXXXXXXX..XXXX.    ",
"         .XXXXXXXXXXXXXXXX..    ",
"          .XXXXXXXXXXXXXX.X.    ",
"           .XXXXXXXXXXX..XXX.   ",
"            .XXXXXXXXXXXXXXXX.  ",
"            .XXXXXXXXXX.XXXXX.  ",
"            .XXXXXXXXXXX.XXXXX. ",
"            .XXXXXXXXXXX..XXXX. ",
"             .XXXXXXXXXX....XXX.",
"             .XXXXXXXXXX.  .XXX.",
"              .XXXX.XXX.    .XX.",
"               .....XXX.    .XX.",
"                    .XX.     ...",
"                    .XXX.     ..",
"                    .XX..       ",
"                    .X.X.       ",
"                     ...        "
};