/* XPM */
static char	*up_right[] = {
"32 32 3 1",
"  c None",
"X c white",
". c black",
"                                ",
"                 ........       ",
"                .XXXXXXXX.      ",
"               ..XXXXXXXX..     ",
"           ....XXXXXXXXXXX..    ",
"       ......X.XXX..XXXXXXX.    ",
"      ........XXX....XXXXXX.    ",
"      ......X..X.....XXXXXX.    ",
"      ...............XXXXXX.    ",
"       ...XX.........XXXXX.     ",
"      .XXXX.........XX.XXX.     ",
"     .XXXXX........XXXX...      ",
"    .XXXXXX........XXXX.        ",
"    .XXXXXXX......XXXXX.        ",
"   .XXXXXXXXX...XXXXXX.         ",
"  .XXXXXXXXXXXXXXXXXX..         ",
"  .XXXXXXXXXXXXX..XX...         ",
"  .XXXXXXXXXXXXXXX.XXX.         ",
"  .X.XXXXXXXXXXXXX..XX.         ",
"  ..XXXXXXXXXXXXXX.XXX.         ",
"  .XXXXXXXXXXXXXXX.XX.          ",
" .XXXX.XXXXXXXXXX..XX.          ",
" .XXX..X..XXXXXX..X..           ",
".XXXX...X.XXXX...X..            ",
".XXX. .XX.XXXXXXX..             ",
".XX.  ......XXXXXXX.            ",
".XX.    ....XXXXXXX.            ",
" ..         ...XXXX.            ",
"              .....             ",
"                                ",
"                                ",
"                                "
};