/* XPM */
static char	*up_right_alt[] = {
"32 32 3 1",
"  c None",
"X c white",
". c black",
"                                ",
"                                ",
"                ........        ",
"               ..XXXXXXX.       ",
"             ..XXXXXXXXXX.      ",
"         ......XXXX..XXXXX.     ",
"        .......XXX....XXXX.     ",
"       ........XX.....XXXX. ... ",
"       .......XXX.....XXXX..XXX.",
"        ......XX......XX....XXX.",
"           ..XX.......XX..XXXXX.",
"    ..    .XXXX..........XXXX.. ",
"   .XX.  .XXXXX......XXXXXX...  ",
"   .XX...XXXXXXX.....XXXX...    ",
"   .XXX..XXXXXXXX...XXXXX.      ",
"    .XXXX..XXXXXXXXXXXX..       ",
"    ..XXXXXXXXXXXXXXXX.         ",
"    .X.XXXXXXXXXXXXXX.          ",
"   .XXX..XXXXXXXXXXX.           ",
"  .XXXXXXXXXXXXXXXX.            ",
"  .XXXXX.XXXXXXXXXX.            ",
" .XXXXX.XXXXXXXXXXX.            ",
" .XXXX..XXXXXXXXXXX.            ",
".XXX....XXXXXXXXXX.             ",
".XXX.  .XXXXXXXXXX.             ",
".XX.    .XXX.XXXX.              ",
".XX.    .XXX.....               ",
"...     .XX.                    ",
"..     .XXX.                    ",
"       ..XX.                    ",
"       .X.X.                    ",
"        ...                     "
};