/* XPM */
static char	*yawn[] = {
"32 32 3 1",
"  c None",
"X c black",
". c white",
"                                ",
"                                ",
"                                ",
"                                ",
"            XXXXXXXXX           ",
"          XX.........XX         ",
"         XXX.........XXX        ",
"        XXX..X.....X..XXX       ",
"       XXXX.X..XXX..X.XXXX      ",
"       XXXX.....X.....XXXX      ",
"       XXXX....XXX....XXXX      ",
"      XXXXX...XXXXX...XXXXX     ",
"      XXXXX...XXXXX...XXXXX     ",
"     XXXXXXX..XXXXX..XXXXXXX    ",
"     XXXXX X..XXXXX..X XXXXX    ",
"     XXXXX  XXXXXXXXX  XXXXX    ",
"     XXXXX    XXXXX    XXXXX    ",
"      XXX    XX.X.XX    XXX     ",
"            X.X...X.X           ",
"           X...XXX...X          ",
"           X.........X  XXXX    ",
"           X.........X XX...X   ",
"        XXXX..X...X..XXXX....X  ",
"       X...X..X...X..X...XX..X  ",
"      XX...X..X...X..X...XXXX   ",
"      X...XX..X...X..XX...X     ",
"      XXXX.....XXX.....XXXX     ",
"     XX..X.X.X.XXX.X.X.X..XX    ",
"     XXXXXXXXXXX XXXXXXXXXXX    ",
"                                ",
"                                ",
"                                "
};