/* XPM */
static char	*awake[] = {
"32 32 3 1",
"  c None",
"X c black",
". c white",
"         ..    .    ..          ",
"   .    .X.    .    .X.     .   ",
"    .  .X.           .X.   .    ",
"      .XX.           .XX.       ",
"      .XX. ......... .XX.       ",
"      .XXX.XXXXXXXXX.XXX.       ",
"      .XXXXX..XXX..XXXXX.       ",
"  ..  .XXXX.XX.X.XX.XXXX.   ..  ",
"       .XXX.XXX.XXX.XXX.        ",
"       .XX.XXX...XXX.XX.        ",
"        .X.XX.....XX.X.         ",
"        .X.XX.....XX.X.         ",
"        .X.XXX.X.XXX.X.    .    ",
"    .  .XXX...XXX...XXX.    .   ",
"   .   .XXXXXX...XXXXXX.        ",
"       .XX.XXXXXXXXX.XX.        ",
"        .XX..XXXXX..XX.         ",
"   .     .XXX.....XXX.          ",
" .  .     ..XXXXXXX..           ",
"  . .     ...XXXXXX..           ",
".  .     .XXXXXXXXXXX.          ",
" .. .   .XXXXXXXXXXXXX.         ",
"     . .XXXXXXXXXXXXXXX.        ",
"      .XXXX.XXXXXXX.XXXX.       ",
"      ..XX.XXXXXXXXX.XXX.       ",
"      .XX..XXXXXXXXX..XX.       ",
"       ....XXXXXXXXX. ..        ",
"          .XXXXXXXXX.           ",
"       ....XXXX.XXXX....    .   ",
"      .XXXXXXX. .XXXXXXX..   .  ",
"      .XXXXXXX. .XXXXXXX. ..... ",
"       .......   .......     .  "
};