/* XPM */
static char	*down_alt[] = {
"32 32 3 1",
"  c None",
"X c white",
". c black",
"         ..         ..          ",
"        .X.         .X.         ",
"       .X.           .X.        ",
"      .XX.           .XX.       ",
"      .XX. ......... .XX.       ",
"      .XXX.XXXXXXXXX.XXX.       ",
"      .XXXXXXXXXXXXXXXXX.       ",
"      .XXXXX..XXX..XXXXX.       ",
"       .XXX.XX.X.XX.XXX.        ",
"       .XXX.XXX.XXX.XXX.        ",
"        .X.XXXX.XXXX.X.         ",
"        .X.XX.....XX.X.         ",
"        .X.XX.....XX.X.         ",
"        .X.XX..X..XX.X.         ",
"       .XXX...XXX...XXX.        ",
"       .XX.XXX...XXX.XX.        ",
"        .XX..XXXXX..XX.         ",
"         .XXX.....XXX.          ",
"          ..XXXXXXX..           ",
"         .XXXXXXXXXXX.          ",
"        .XXX.XXXXXXXXX.         ",
"        .XX.XX.XXXXXXXX.        ",
"       .XXX.X.XXXXX.XXXX.       ",
"       .XXXX.XX.XXX..XXX.       ",
"       .XXX.X..XXXXX....        ",
"       .XX.XXXXXXXXX.           ",
"       .XXX.XXXXXXXX.           ",
"        ...XXXXXXXXX.           ",
"       . .XXX...XXXX.           ",
"      .   ...   .XXXX.          ",
"                .XXXX.          ",
"                 ....           "
};