/* XPM */
static char	*down_left[] = {
"32 32 3 1",
"  c None",
"X c white",
". c black",
"            ..                  ",
"           ..         ..        ",
"          .X.         .X.       ",
"         .XX.          .X.      ",
"         .XXX.......   .XX.     ",
"         .XXXXXXXXXX.. .XX.     ",
"        .XX..X..XXXXX..XXX.     ",
"         ..XX.XX.XXXXXXXXX.     ",
"         .XXX.XXX.XXXXXXXX.     ",
"         .XX.XXXX.XXXXXXX.      ",
"        .XX...XXX.XXXXXX.       ",
"        .X....XXX.XXXXX.        ",
"       .X.XX..XX.XXXXXX.        ",
"       .X.XXX...XXXXXXX.        ",
"    .  .XX...XXXXXXXXX.         ",
"  .  .  .XXXXXXX.XXXXX.         ",
"   . .   .X.....XXXXX.          ",
" .  .     .XXXXXXXXX.           ",
"  .. .     ....XXXX.            ",
"      .     .XXXXXX.            ",
"       .   .XXXXXXXX.           ",
"        ....XXXXXXXXX.          ",
"       .XX.XXXXXXXXXXX.    .    ",
"       .XX.XXXXXXXXXXXX.    .   ",
"        ...XXXXXXXX.XXXX. ....  ",
"          .XXXXXXXXX.XXX..  .   ",
"          .XXXXXXXXX.XX.   .    ",
"          .XXX.XXXXXX..         ",
"           .XX.XXXXX.           ",
"           .X.XXXXXX.           ",
"            ..XXXXX.            ",
"             ......             "
};