/* XPM */
static char	*down_right_alt[] = {
"32 32 3 1",
"  c None",
"X c white",
". c black",
"                  ..            ",
"        ..         ..           ",
"       .X.         .X.          ",
"      .X.          .XX.         ",
"     .XX.   .......XXX.         ",
"     .XX. ..XXXXXXXXXX.         ",
"     .XXX..XXXXX..X..XX.        ",
"     .XXXXXXXXX.XX.XX..         ",
"     .XXXXXXXX.XXX.XXX.         ",
"      .XXXXXXX.XXXX.XX.         ",
"       .XXXXXX.XXX...XX.        ",
"        .XXXXX.XXX....X.        ",
"        .XXXXXX.XX..XX.X.       ",
"        .XXXXXXX...XXX.X.       ",
"         .XXXXXXXXX...XX.       ",
"         .XXXXX.XXXXXXX.        ",
"          .XXXXX.....X.         ",
"           .XXXXXXXXX.          ",
"            .XXXX....           ",
"   ...      .XXXXXX.            ",
"   ..      .XXXXXXXX.           ",
"   . .    .XXXXXXXXXX.          ",
"     .   .XXX.XXXXXXX.          ",
"      .  .XXXX..XXXXX.     ..   ",
"       ....XXXXX.XXXX...  .     ",
"        ..X.XXXX.XXXX.  ......  ",
"         .XX.XXX.XXXXX.   .     ",
"         .XXX...XXXXXX.    ..   ",
"         .XXXXXXXXXXXXX.        ",
"         .XXXX...XXXXXX.        ",
"          ....   ..XXXX.        ",
"                   ....         "
};