/* XPM */
static char	*down_left_alt[] = {
"32 32 3 1",
"  c None",
"X c white",
". c black",
"            ..                  ",
"           ..         ..        ",
"          .X.         .X.       ",
"         .XX.          .X.      ",
"         .XXX.......   .XX.     ",
"         .XXXXXXXXXX.. .XX.     ",
"        .XX..X..XXXXX..XXX.     ",
"         ..XX.XX.XXXXXXXXX.     ",
"         .XXX.XXX.XXXXXXXX.     ",
"         .XX.XXXX.XXXXXXX.      ",
"        .XX...XXX.XXXXXX.       ",
"        .X....XXX.XXXXX.        ",
"       .X.XX..XX.XXXXXX.        ",
"       .X.XXX...XXXXXXX.        ",
"       .XX...XXXXXXXXX.         ",
"        .XXXXXXX.XXXXX.         ",
"         .X.....XXXXX.          ",
"          .XXXXXXXXX.           ",
"           ....XXXX.            ",
"            .XXXXXX.      ...   ",
"           .XXXXXXXX.      ..   ",
"          .XXXXXXXXXX.    . .   ",
"          .XXXXXXX.XXX.   .     ",
"   ..     .XXXXX..XXXX.  .      ",
"     .  ...XXXX.XXXXX....       ",
"  ......  .XXXX.XXXX.X..        ",
"     .   .XXXXX.XXX.XX.         ",
"   ..    .XXXXXX...XXX.         ",
"        .XXXXXXXXXXXXX.         ",
"        .XXXXXX...XXXX.         ",
"        .XXXX..   ....          ",
"         ....                   "
};