/* XPM */
static char	*idle[] = {
"32 32 3 1",
"  c None",
"X c white",
". c black",
"            ..                  ",
"           ..         ..        ",
"          .X.         .X.       ",
"         .XX.          .X.      ",
"         .XXX.......   .XX.     ",
"         .XXXXXXXXXX.  .XX.     ",
"        .XX..X..XXXXX..XXX.     ",
"         ..XX.XX.XXXXXXXXX.     ",
"         .XXX.XXX.XXXXXXXX.     ",
"         .XX.XXXX.XXXXXXX.      ",
"        .XX...XXX.XXXXXX.       ",
"        .X....XXX.XXXXX.        ",
"       .X.XX..XXX.XXXXX.        ",
"       .X.XXX....XXXXXX.        ",
"    .  .XX...XXXXXXXXXX.        ",
"  .  .  .XXXXXXX.XXXXX.         ",
"   . .   .X.....XXXXX.          ",
" .  .     .XXXXXXXXX.           ",
"  .. .     ...XXXXX.            ",
"      . ..   .XXXXXX.           ",
"       .XX. .XXXXXXXX.          ",
"      .XXXX....XX.XXX.          ",
"      .XXX.XXXX..XXXX.          ",
"       ....XXXXXXXXXX.          ",
"          ..XXXXXXXXX.          ",
"          .X.......XX.          ",
"           .XXXXXXXXX.          ",
"           .XXXXXXXXX..      ...",
"         ..XXXX..XXXX..       ..",
"        .XXXXX.XXXXXXX..     . .",
"        .XXXXX.XXXXXXX. .   .   ",
"         .....X.......   ...    "
};