/* XPM */
static char	*left_alt[] = {
"32 32 3 1",
"  c None",
"X c white",
". c black",
"            ...   ...           ",
"           .XX.    .X.          ",
"          .XX.     .XX.         ",
"          .XX.     .XXX.        ",
"         .XX.......XXXX.        ",
"         .XXXXXXX.XXXXX.        ",
"         .X..XXXXXXXXX.         ",
"        .X.XX.XXXXXXXX.         ",
"        .X.XXX.XXXXXX.X.        ",
"        .X.XXX.XXXXXXXX.        ",
"        ....XX.XXXXXXXX.        ",
"       .....XX.XXXXXXXX.        ",
"      .XXX..XX.XXXXXXXX.        ",
"      .XXX....XXXXXXXXX.        ",
"       ...XXXXXXXXXXXX.         ",
"       .XXXXXX.XXXXXXX.         ",
"        ......XXXXXXX.          ",
"         .XXXXXXXXXX.           ",
"          ....XXXXX.            ",
"             .XXXXX.            ",
"            .XXXXXX.        ... ",
"            .XXXXXXX.        .. ",
"    ..     .XXXXXXXX.       . . ",
"      .    .XX.XXXXX.      .    ",
"   ...........XXXXXXX.   ..     ",
"      .   .XXXXXXX.XX.....      ",
"    ..    .XXXXXX.XXX....       ",
"       .....XX...XXXXX.         ",
"      .XXXXX..XXXXXXXX.         ",
"      .XXXXXXX....XXXX.         ",
"       ........XXXXXX.          ",
"               ......           "
};