/* XPM */
static char	*lick[] = {
"32 32 3 1",
"  c None",
"X c white",
". c black",
"            ..                  ",
"           ..         ..        ",
"          .X.         .X.       ",
"         .XX.          .X.      ",
"         .XXX.......   .XX.     ",
"         .XXXXXXXXXX.  .XX.     ",
"        .XX..X..XXXXX..XXX.     ",
"         ..XX.XX.XXXXXXXXX.     ",
"         .XXX.XXX.XXXXXXXX.     ",
"         .XX.XXXX.XXXXXXX.      ",
"        .XX...XXX.XXXXXX.       ",
"        .X....XXX.XXXXX.        ",
"       .X.XX..XXX.XXXXX.        ",
"       .X.XXX....XXXXXX.        ",
"       .XX...XXXXXXXXXX.        ",
"        .XXXXXXX.XXXXX.         ",
"         .X.....XXXXX.          ",
"          .XXXXXXXXX.           ",
"       .   ...XXXXX.            ",
"     .  .    .XXXXXX.           ",
"      . .   .XXXXXXXX.          ",
"    .  .  ..XXXXXXXXX.      .   ",
"     .. ..XXXXXXXXXXX.     ...  ",
"        .X..XXX..XXXX.    . . . ",
"        .XXX...XXXXX..      .   ",
"         .....XXXXX.X.      .   ",
"           .XX.XXX.XX..     .   ",
"           .XX....XXX...    .   ",
"         ..XXXX.XXXXX.X..  .    ",
"        .XXXXX.XXXXXXX. ...     ",
"        .XXXXX.XXXXXXX.         ",
"         .....X.......          "
};