/* XPM */
static char	*scratch[] = {
"32 32 3 1",
"  c None",
"X c white",
". c black",
"               ...   ...        ",
"              .XX.    .X.       ",
"             .XX.     .XX.      ",
"             .XX.     .XXX.     ",
"            .XX.......XXXX.     ",
"            .XXXXXXX.XXXXX.     ",
"            .X..XXXXXXXXX.      ",
"           .X.XX.XXXXXXXX.      ",
"           .X.XXX.XXXXXX.X.     ",
"           .X.XXX.XXXXXXXX.     ",
"           ....XX.XXXXXXXX.     ",
"          .....XX.XXXXXXXX.     ",
"         .XXX..XX.XXXXXXXX.     ",
"    .    .XXX....XXXXXXXXX.     ",
"   .X.    ...XXXXXXXXXXXX.      ",
"  .XXX.   .XXXXXX.XXXXXXX.      ",
" .XXX.     ......XXXXXXX.       ",
".XXX.       .XXXXXXXXXX.        ",
" .X.  . .    ....XXXXX.         ",
"  .    .X.      .XXXXX.         ",
"    . .XX.     .XXXXXX.         ",
"     .XXX.   ..XXXXXXXX.        ",
"    .XXX.  ..X.XX.XXXXX.        ",
"     ... ..XXX...XXXX.X.        ",
"         ..XXX.XXXXX.XX.        ",
"         . ....XXXX.XXX.        ",
"         .    .....XXXX.        ",
"         .     .XXXXXXX..       ",
"        .    .....XXXXX...      ",
"       .    .X.XXXXXXX.  .   .  ",
"     ..     .X.XXXXXXX.   .  .. ",
"   ..        ..........    ....."
};