/* XPM */
static char	*scratch_alt[] = {
"32 32 3 1",
"  c None",
"X c white",
". c black",
"               ...   ...        ",
"              .XX.    .X.       ",
"             .XX.     .XX.      ",
"             .XX.     .XXX.     ",
"            .XX.......XXXX.     ",
"            .XXXXXXX.XXXXX.     ",
"            .X..XXXXXXXXX.      ",
"           .X.XX.XXXXXXXX.      ",
"           .X.XXX.XXXXXX.X.     ",
"           .X.XXX.XXXXXXXX.     ",
"           ....XX.XXXXXXXX.     ",
"          .....XX.XXXXXXXX.     ",
"         .XXX..XX.XXXXXXXX.     ",
"    .    .XXX....XXXXXXXXX.     ",
"   .X.    ...XXXXXXXXXXXX.      ",
"  .XXX.   .XXXXXX.XXXXXXX.      ",
" .XXX.X.   ......XXXXXXX.       ",
".XXX.XX.    .XXXXXXXXXX.        ",
" .X.XXX.     ....XXXXX.         ",
"  .XXX.   ..    .XXXXX.         ",
"   ... . .XX....XXXXXX.         ",
"        ..XXXX.XXXXXXXX.        ",
"        ..XXXX.XX.XXX.X.        ",
"        . ..XX...XXXX.X.        ",
"        .   ...XXXXXX.X.        ",
"        .     .XXXXX.XX.        ",
"       .      ......XXX.        ",
"       .       .XXXXXXX..       ",
"      .      .....XXXXX...      ",
"     .      .X.XXXXXXX.  .   .  ",
"    .       .X.XXXXXXX.   .  .. ",
"   .         ..........    ....."
};