/* XPM */
static char	*side_r[] = {
"32 32 3 1",
"  c None",
"X c white",
". c black",
"            ..   ..             ",
"           .X.   .X.            ",
"           .XX.  .XX.           ",
"           .XXX......           ",
"           .XXXX.XXXX.          ",
"           .XXXXXXXXXX.         ",
"           ..XXXXXXXX...        ",
"          .X.XXXXXXXX.X.        ",
"         .XXX.XXXXXX.XXX.       ",
"         .XXXXXXXXXX.XXX.       ",
"         .XXXXXXXXXX.X...       ",
"         .XXXXXXXXXX.X....      ",
"         .XXXXXXXXXX.X..XX.     ",
"          .XXXXXXXXXX..XXX.     ",
"          .XXXXXXXXXXXX...      ",
"           .XXXXXXX.XXXXX.      ",
"            .XXXXXXX.....   .   ",
"             .XXXXXXXXX.   .  . ",
"             .XXXX.....    . .  ",
"             .XXXX.         .  .",
"            .XXXXXX.       . .. ",
"            .XXXXXXX....  .     ",
"            .XXXXXXX.XXX..      ",
"           .XXXX.XXXX.XX.       ",
"           .XXXX.XXXX.XX.       ",
"           .XXX.XXXXX...        ",
"          ..XXX.XXXXX.          ",
"  .     .....XX.XXXXXX.         ",
" .    ....X....XXXXXXXX...      ",
".......   .XXX...XXXXXXXXX.     ",
" .        .XXXXX..XXXXXXXX.     ",
"  .        .....  ........      "
};