/* XPM */
static char	*side_l[] = {
"32 32 3 1",
"  c None",
"X c white",
". c black",
"             ..   ..            ",
"            .X.   .X.           ",
"           .XX.  .XX.           ",
"           ......XXX.           ",
"          .XXXX.XXXX.           ",
"         .XXXXXXXXXX.           ",
"        ...XXXXXXXX..           ",
"        .X.XXXXXXXX.X.          ",
"       .XXX.XXXXXX.XXX.         ",
"       .XXX.XXXXXXXXXX.         ",
"       ...X.XXXXXXXXXX.         ",
"      ....X.XXXXXXXXXX.         ",
"     .XX..X.XXXXXXXXXX.         ",
"     .XXX..XXXXXXXXXX.          ",
"      ...XXXXXXXXXXXX.          ",
"      .XXXXX.XXXXXXX.           ",
"   .   .....XXXXXXX.            ",
" .  .   .XXXXXXXXX.             ",
"  . .    .....XXXX.             ",
".  .         .XXXX.             ",
" .. .       .XXXXXX.            ",
"     .  ....XXXXXXX.            ",
"      ..XXX.XXXXXXX.            ",
"       .XX.XXXX.XXXX.           ",
"       .XX.XXXX.XXXX.           ",
"        ...XXXXX.XXX.           ",
"          .XXXXX.XXX..          ",
"         .XXXXXX.XX.....     .  ",
"      ...XXXXXXXX....X....    . ",
"     .XXXXXXXXX...XXX.   .......",
"     .XXXXXXXX..XXXXX.        . ",
"      ........  .....        .  "
};