/* XPM */
static char	*side_r_alt[] = {
"32 32 3 1",
"  c None",
"X c white",
". c black",
"           ...   ...            ",
"          .X.    .XX.           ",
"         .XX.     .XX.          ",
"        .XXX.     .XX.          ",
"        .XXXX.......XX.         ",
"        .XXXXX.XXXXXXX.         ",
"         .XXXXXXXXX..X.         ",
"         .XXXXXXXX.XX.X.        ",
"        .X.XXXXXX.XXX.X.        ",
"        .XXXXXXXX.XXX.X.        ",
"        .XXXXXXXX.XX....        ",
"        .XXXXXXXX.XX.....       ",
"        .XXXXXXXX.XX..XXX.      ",
"        .XXXXXXXXX....XXX.      ",
"         .XXXXXXXXXXXX...       ",
"         .XXXXXXX.XXXXXX.       ",
"          .XXXXXXX......        ",
"           .XXXXXXXXXX.         ",
"            .XXXXX....          ",
"            .XXXXX.             ",
" ...        .XXXXXX.            ",
" ..        .XXXXXXX.            ",
" . .       .XXXXXXXX.     ..    ",
"    .      .XXXXX.XX.    .      ",
"     ..   .XXXXXXX...........   ",
"      .....XX.XXXXXXX.   .      ",
"       ....XXX.XXXXXX.    ..    ",
"         .XXXXX...XX.....       ",
"         .XXXXXXXX..XXXXX.      ",
"         .XXXX....XXXXXXX.      ",
"          .XXXXXX........       ",
"           ......               "
};