/* XPM */
static char	*sleep_alt[] = {
"32 32 3 1",
"  c None",
"X c white",
". c black",
"                                ",
"                                ",
"                                ",
"                                ",
"                                ",
"                                ",
"                                ",
"                       ......   ",
"                       XXXX.X   ",
"                 ....    ..X    ",
"                 XX.X    .X     ",
"                  .X   ......   ",
"                 ....  XXXXXX   ",
"                 XXXX           ",
"                  ..            ",
"                ..XX.           ",
"               .X.XX....        ",
"              ..X.X..XXX..      ",
"             .X.XX.X.XXXX..     ",
" ..          .X.XX.X.XXX..X.    ",
".XX. .....   .X.XXX.....XXXX..  ",
".XX..XXXXX.. .XX.XXXXXXXXXXX.X..",
".XX.XXXXXXXX..XXXXXXXXXXXXXX.XX.",
".XXXXXXXXXXXXXXXXXXXXXXXXXXX... ",
".XXXXXX..XXXXXXXXXXXXXXXXXX..   ",
".XXXX..XXXXXXXXXXXXXXXXXXXXX.   ",
".XXX.XXXXXXXXXXXXXXXXXXXXXXXX. .",
".XXX.XXXXXXXXXXXXXXXXXX.XXXXXX..",
" ....XXXX......XXXXXXXXX..XXX.. ",
"     ....      ..XXXXXXXX....   ",
"                 ..XXXXX..      ",
"                   .....        "
};