/* XPM */
static char	*sleep[] = {
"32 32 3 1",
"  c None",
"X c white",
". c black",
"                         .......",
"                         XXXXX.X",
"                           . .X ",
"                           X.X  ",
"                 .....     .X.  ",
"                 XXX.X    .X X  ",
"                   .X    .......",
"                 .....   XXXXXXX",
"                 XXXXX          ",
"                                ",
"                                ",
"                                ",
"                                ",
"                                ",
"                  ..            ",
"                ..XX.           ",
"               .X.XX....        ",
"              ..X.X..XXX..      ",
"     ....    .X.XX.X.XXXX..     ",
" ....XXXX..  .X.XX.X.XXX..X.    ",
".XX.XXXXXXX. .X.XXX.....XXXX..  ",
".XX.XXXXXXXX..XX.XXXXXXXXXXX.X. ",
".XXXXXXXXXXXX.XXXXXXXXXXXXXX.XX.",
".XXXXXXXXXXXXXXXXXXXXXXXXXXX....",
".XXXXXX..XXXXXXXXXXXXXXXXXX..   ",
".XXXX..XXXXXXXXXXXXXXXXXXXXX.   ",
".XXX.XXXXXXXXXXXXXXXXXXXXXXXX.  ",
".XXX.XXXXXXX...XXXXXXXX.XXXXXX..",
" ....XXXX...   .XXXXXXXX..XXXXX.",
"     ....       .XXXXXXXX...... ",
"                 ..XXXXX.       ",
"                   .....        "
};