/* XPM */
static char	*top[] = {
"32 32 3 1",
"  c None",
"X c white",
". c black",
"         ..         ..          ",
"        .X.         .X.         ",
"       .X.           .X.        ",
"      .XX.           .XX.       ",
"      .XX. ......... .XX.       ",
"      .XXX.XXXXXXXXX.XXX.       ",
"      .XXXXXXXXXXXXXXXXX.       ",
"      .XXXXXXXXXXXXXXXXX.       ",
"       .XXXXXXXXXXXXXXX.        ",
"       .XXXXXXXXXXXXXXX.        ",
"        .XXXXXXXXXXXXX.         ",
"        .XXXXXXXXXXXXX.         ",
"        .XXXXXXXXXXXXX.         ",
"        .XXXXXXXXXXXXX.         ",
"         .XXXXXXXXXXX.          ",
"          .XXXXXXXXX.           ",
"          ..XXXXXXX..           ",
"         .XXXXXXXXXXX.          ",
"        .XXXXXXXXXXXXX.         ",
"        .XXXXXXXXXXXXX.         ",
"       .XXXXXXXXXXXX.X.         ",
"       .XXXXXXXXXXXXX. .        ",
"       .XX.XXXXXXXXXX.  .       ",
"        ...XXXXXXXXXX.   .      ",
"          .XXXX.XXXXX.          ",
"          .XXX..XXXXX.          ",
"           ......XXXXX.         ",
"              . .XXXXX.         ",
"              .  .....          ",
"           . .                  ",
"           ..                   ",
"           ...                  "
};