/* XPM */
static char	*top_alt[] = {
"32 32 3 1",
"  c None",
"X c white",
". c black",
"         ..         ..          ",
"        .X.         .X.         ",
"       .X.           .X.        ",
"      .XX.           .XX.       ",
"      .XX. ......... .XX.       ",
"      .XXX.XXXXXXXXX.XXX.       ",
"      .XXXXXXXXXXXXXXXXX.       ",
"      .XXXXXXXXXXXXXXXXX.       ",
"       .XXXXXXXXXXXXXXX.        ",
"       .XXXXXXXXXXXXXXX.        ",
"        .XXXXXXXXXXXXX.         ",
"        .XXXXXXXXXXXXX.         ",
"        .XXXXXXXXXXXXX.         ",
"        .XXXXXXXXXXXXX.         ",
"         .XXXXXXXXXXX.          ",
"          .XXXXXXXXX.           ",
"          ..XXXXXXX..           ",
"         .XXXXXXXXXXX.          ",
"        .XXXXXXXXXXXXX.         ",
"        .XXXXXXXXXXXX..         ",
"        .X.XXXXXXXXXX.X.        ",
"         .XXXXXXXXXXX.X.        ",
"         .XXXXXXXXXX.XX.        ",
"         .XXXXXXXXXX...         ",
"         .XXXXX.XXXX.           ",
"         .XXXXX..XXX.           ",
"        .XXXXX.......           ",
"        .XXXXX. .               ",
"         .....  .               ",
"                 . .            ",
"                  ..            ",
"                 ...            "
};