/* XPM */
static char	*up_left[] = {
"32 32 3 1",
"  c None",
"X c white",
". c black",
"                   ..           ",
"         ..         ..          ",
"        .X.         .X.         ",
"       .X.          .XX.        ",
"      .XX.   .......XXX.        ",
"      .XX. ..XXXXXXX.XX.        ",
"      .XXX..XXXXXXXXX.XX.       ",
"      .XXXXXXXXXXXXXXX..        ",
"      .XXXXXXXXXXXXXXX..        ",
"       .XXXXXXXXXXXXXXX.        ",
"       .XXXXXXXXXXXXXXX.        ",
"        .XXXXXXXXXXXXXX.        ",
"        .XXXXXXXXXXXXXX.        ",
"       .XXXXXXXXXXXXXXX.        ",
"       .XXXXXXXXXXXXXX.         ",
"       .XXXXXXXXXXXXXX.         ",
"        .XXXXXXXXXXXX.          ",
"         .XXXXXXXXXX.           ",
"          ..XXXXXXX.            ",
"     .      .XXXXXX.            ",
"   .  .    .XXXXXXXX..          ",
"    . .   .XXXXXXXXX.X.         ",
"  .  .   .XXXXXXXXXX.XX.        ",
"   .. . .XXXXXXXXXXXX.X.        ",
"       .XXXX.XXXXXXXX..         ",
"       .XXX.XXXXXXXXX.       .  ",
"        .X.XXXXXXXXXX.        . ",
"         ..XXXXXXXX.X.      ....",
"           .XXXXXXX...  ....  . ",
"           .XXXXXX.X....     .  ",
"            .XXXXX..            ",
"             .....              "
};