/* XPM */
static char	*up_right[] = {
"32 32 3 1",
"  c None",
"X c white",
". c black",
"           ..                   ",
"          ..         ..         ",
"         .X.         .X.        ",
"        .XX.          .X.       ",
"        .XXX.......   .XX.      ",
"        .XX.XXXXXXX.. .XX.      ",
"       .XX.XXXXXXXXX..XXX.      ",
"        ..XXXXXXXXXXXXXXX.      ",
"        ..XXXXXXXXXXXXXXX.      ",
"        .XXXXXXXXXXXXXXX.       ",
"        .XXXXXXXXXXXXXXX.       ",
"        .XXXXXXXXXXXXXX.        ",
"        .XXXXXXXXXXXXXX.        ",
"        .XXXXXXXXXXXXXXX.       ",
"         .XXXXXXXXXXXXXX.       ",
"         .XXXXXXXXXXXXXX.       ",
"          .XXXXXXXXXXXX.        ",
"           .XXXXXXXXXX.         ",
"            .XXXXXXX..          ",
"            .XXXXXX.      .     ",
"          ..XXXXXXXX.    .  .   ",
"         .X.XXXXXXXXX.   . .    ",
"        .XX.XXXXXXXXXX.   .  .  ",
"        .X.XXXXXXXXXXXX. . ..   ",
"         ..XXXXXXXX.XXXX.       ",
"  .       .XXXXXXXXX.XXX.       ",
" .        .XXXXXXXXXX.X.        ",
"....      .X.XXXXXXXX..         ",
" .  ....  ...XXXXXXX.           ",
"  .     ....X.XXXXXX.           ",
"            ..XXXXX.            ",
"              .....             "
};