/* XPM */
static char	*yawn[] = {
"32 32 3 1",
"  c None",
"X c white",
". c black",
"   .        ..                  ",
"   .       ..        ...        ",
"    .     .X.         .X.       ",
".    .   .XXX.......  .XX.      ",
" .   .   .XXXXXXXXXX..XXXX.     ",
" .  .    .XXXXXXXXXXXXXXXX.     ",
".  .     ..XXXXXXXXXXXXXX.      ",
".  .    .XX.XXXX...XXXXX.       ",
" .  .   .X...XX.XXXXXXX.        ",
"     . .X.XXX.XXXXXXXXX.        ",
"       .X........XXXXXX.        ",
"       ...XXXXX.X.XXXXX.        ",
"       .XXXXXXXXXX.XXXX.        ",
"        .XXXXXXXXX.XXX.         ",
"         .X....XXX.XXX.         ",
"         ..XXXX.X.XXX.          ",
"      ...X.XXXXX.XXX.  ...      ",
"     .XXX.X.....XXXX...XXX.     ",
"     .XXXXXXXXXXXXXXXXXXXX.     ",
"      .XXXXXXXXXXXXXXXXXXX.     ",
"     . ..XXXXXXXXXXXXXXX..      ",
"    .    .XXXXXXXXXXXXX.        ",
"   .     .XXXXXXXXXXXX.         ",
"  .      .XXXXXXXXXXX.          ",
"         .XXXXXXXXXXX.          ",
"         .XXXXXXXXXXX..         ",
"         .XXXXXXXXXXX...        ",
"         .XXXXXXXXXXX.  ..      ",
"         .XXXXX.XXXXX.    ..  . ",
"         .XXXX. .XXXX.      ....",
"         .XXX.  .XXX.        ...",
"          ...    ...            "
};