/* XPM */
static char *coint_alt[] = {
/* columns rows colors chars-per-pixel */
"32 32 2 1 ",
"  c black",
"O c white",
/* pixels */
"                                ",
"                                ",
"                                ",
"                                ",
"                                ",
"        OOOOOOOOOOOOOOOO        ",
"        OOOOOOOOOOOOOOOO        ",
"        OOOOOOOOOOOOOOOO        ",
"     OOOOOOOOO    OOOOOOOOO     ",
"     OOOOOOOOO    OOOOOOOOO     ",
"     OOOOOOOOO    OOOOOOOOO     ",
"     OOOOOO   OOOO   OOOOOO     ",
"     OOOOOO   OOOO   OOOOOO     ",
"     OOOOOO   OOOO   OOOOOO     ",
"     OOO   OOOOOOOOOO   OOO     ",
"     OOO   OOOOOOOOOO   OOO     ",
"     OOO   OOOOOOOOOO   OOO     ",
"     OOO   OOOOOOOOOO   OOO     ",
"     OOOOOO   OOOO   OOOOOO     ",
"     OOOOOO   OOOO   OOOOOO     ",
"     OOOOOO   OOOO   OOOOOO     ",
"     OOOOOOOOO    OOOOOOOOO     ",
"     OOOOOOOOO    OOOOOOOOO     ",
"     OOOOOOOOO    OOOOOOOOO     ",
"        OOOOOOOOOOOOOOOO        ",
"        OOOOOOOOOOOOOOOO        ",
"        OOOOOOOOOOOOOOOO        ",
"                                ",
"                                ",
"                                ",
"                                ",
"                                "
};
