/* XPM */
static char *coin[] = {
/* columns rows colors chars-per-pixel */
"32 32 2 1 ",
"  c black",
"O c white",
/* pixels */
"                                ",
"                                ",
"        OOOOOOOOOOOOOOOO        ",
"        OOOOOOOOOOOOOOOO        ",
"        OOOOOOOOOOOOOOOO        ",
"     OOO                OOO     ",
"     OOO                OOO     ",
"     OOO                OOO     ",
"  OOO         OOOO         OOO  ",
"  OOO         OOOO         OOO  ",
"  OOO         OOOO         OOO  ",
"  OOO      OOO    OOO      OOO  ",
"  OOO      OOO    OOO      OOO  ",
"  OOO      OOO    OOO      OOO  ",
"  OOO   OOO          OOO   OOO  ",
"  OOO   OOO          OOO   OOO  ",
"  OOO   OOO          OOO   OOO  ",
"  OOO   OOO          OOO   OOO  ",
"  OOO      OOO    OOO      OOO  ",
"  OOO      OOO    OOO      OOO  ",
"  OOO      OOO    OOO      OOO  ",
"  OOO         OOOO         OOO  ",
"  OOO         OOOO         OOO  ",
"  OOO         OOOO         OOO  ",
"     OOO                OOO     ",
"     OOO                OOO     ",
"     OOO                OOO     ",
"        OOOOOOOOOOOOOOOO        ",
"        OOOOOOOOOOOOOOOO        ",
"        OOOOOOOOOOOOOOOO        ",
"                                ",
"                                "
};
