/* XPM */
static char *coin[] = {
/* columns rows colors chars-per-pixel */
"32 32 4 1 ",
"  c None",
". c black",
"X c white",
"o c white",
/* pixels */
"                                ",
"                                ",
"                                ",
"                                ",
"                                ",
"                                ",
"                                ",
"           oooooooooo           ",
"          o..........o          ",
"         o.X.XXXXXXXX.o         ",
"        o.X.XX......XX.o        ",
"       o.X.XX.XXXXXX.XX.o       ",
"      o.X.XX.XXX.XXXX.XX.o      ",
"      o.X.X.XX.....XXX.X.o      ",
"      o.X.X.X..X.XX.XX.X.o      ",
"      o.X.X.X..X.XXXXX.X.o      ",
"      o.X.X.XX.....XXX.X.o      ",
"      o.X.X.XXXX.X..XX.X.o      ",
"      o.X.X.X.XX.X..XX.X.o      ",
"      o.X.XXXX.....XXX.X.o      ",
"      o.X.XXXXXX.XXXX.XX.o      ",
"       o.X.XXXXXXXXX.XX.o       ",
"        o.X.XXXXXXX.XX.o        ",
"         o.X.XXXXXXXX.o         ",
"          o..........o          ",
"           oooooooooo           ",
"                                ",
"                                ",
"                                ",
"                                ",
"                                ",
"                                "
};
