/* XPM */
static char *exit[] = {
"32 32 2 1 ",
"  c black",
". c white",
/* pixels */
"                                ",
"                                ",
"                                ",
"                                ",
"                                ",
"                                ",
"                                ",
"           ..............       ",
"           ..............       ",
"                     ....       ",
"                     ....       ",
"         ..            ..       ",
"         ..            ..       ",
"       ....            ..       ",
"       ....            ..       ",
"     ................  ..       ",
"     ................  ..       ",
"       ....            ..       ",
"       ....            ..       ",
"         ..            ..       ",
"         ..            ..       ",
"                     ....       ",
"                     ....       ",
"           ..............       ",
"           ..............       ",
"                                ",
"                                ",
"                                ",
"                                ",
"                                ",
"                                ",
"                                "
};
