/* XPM */
static char *spawn[] = {
/* columns rows colors chars-per-pixel */
"32 32 4 1 ",
"  c None",
". c black",
"X c white",
"o c white",
/* pixels */
"                                ",
"                                ",
"                                ",
"                                ",
"                                ",
"                                ",
"                                ",
"             o                  ",
"            o.ooo   ooo         ",
"           o.X...ooo...o        ",
"           o.X.XX...XXX.o       ",
"           o.X.XXXXXXXXX.o      ",
"           o.X.XXXXXXX..o       ",
"           o.X.XXXXXX.oo        ",
"           o.X.XXXXXXX.o        ",
"           o.X..XXXXXXX.o       ",
"           o.X.o......X.o       ",
"           o.X.ooooo.X.o        ",
"          o..X..o   o.o         ",
"         o.X.X.X.o              ",
"        o.X..X..X.o             ",
"        o.X.....X.o             ",
"         o.XXXXX.o              ",
"          o.....o               ",
"           ooooo                ",
"                                ",
"                                ",
"                                ",
"                                ",
"                                ",
"                                ",
"                                "
};
