/* XPM */
static char *wall[] = {
"32 32 2 1 ",
"  c black",
". c white",
/* pixels */
"                                ",
" .  .                      .  . ",
"       ..................       ",
"      ....................      ",
" .   ......................   . ",
"    ........................    ",
"   ..........................   ",
"  ............................  ",
"  ............................  ",
"  ............................  ",
"  ............................  ",
"  ............................  ",
"  ............................  ",
"  ............................  ",
"  ............................  ",
"  ............................  ",
"  ............................  ",
"  ............................  ",
"  ............................  ",
"  ............................  ",
"  ............................  ",
"  ............................  ",
"  ............................  ",
"  ............................  ",
"  ............................  ",
"   ..........................   ",
"    ........................    ",
" .   ......................   . ",
"      ....................      ",
"       ..................       ",
" .  .                      .  . ",
"                                "
};
