/* XPM */
static char	*awake[] = {
"32 32 3 1",
"  c None",
"X c black",
". c white",
"                                ",
"                                ",
"     .                    .     ",
"      .     .       .    .      ",
"       .   .X.     .X.  .       ",
"        .  .XX.   .XX.          ",
" ..       .XXX.   .XXX.      .. ",
"   ..     .XXXX. .XXXX.    ..   ",
"     ..  .XXXXX...XXXXX. ..     ",
"         .XXXXXXXXXXXXX.        ",
"         .XXX.XXXXX.XXX.        ",
"....     .XXX.XXXXX.XXX.   .... ",
"         .XXX.XXXXX.XXX.        ",
"         .XXXXXXXXXXXXX.        ",
"         .X...XX.XX...X.        ",
"          .XXXXXXXXXXX.         ",
"           .XXXXXXXXX.          ",
"            ...XXX...    .      ",
"              .XXX.     .X.     ",
"             .XXXXX.   .XX.     ",
"            .XXXXXXX. .XX.      ",
"           .XXXXXXXXX.XX.       ",
"        .. .XXXXXXXXX.X..       ",
"       .XX..XXXX.XXXX..XX.      ",
"      .XXXX..XXX.XXX..XXXX.     ",
"      .XXXXX.XXX.XXX.XXXXX.     ",
"      ...XXX.XXX.XXX.XXX...     ",
"     ..XXXXX.XX...XX.XXXXX..    ",
"     ........... ...........    ",
"                                ",
"                                ",
"                                "
};