/* XPM */
static char	*bottom[] = {
"32 32 3 1",
"  c None",
"X c white",
". c black",
"                                ",
"              ..                ",
"             .XX.               ",
"           ..XXXX.              ",
"             .XXXX.             ",
"              .XXX.             ",
"           ....XXX....          ",
"          .XXXXXXXXXXX.         ",
"         .XXXXXXXXXXXXX.        ",
"        .XXXXXXXXXXXXXXX.       ",
"       .XXXXXXXXXXXXXXXXX.      ",
"       .XXXX.XXXXXXX.XXXX.      ",
"       .XXX.X.XXXXX.X.XXX.      ",
"      ..XXX.XX.XXX.XX.XXX..     ",
"    ..XX.X.XXX.XXX.XXX.X.XX..   ",
"   .XXXXXX.XXXX.X.XXXX.XXXXXX.  ",
"   .......XXXXX...XXXXX.......  ",
"         .XXXXXXXXXXXXX.        ",
"         .XXXXXXXXXXXXX.        ",
"         .XXXXXXXXXXXXX.        ",
"         .XXX.XXXXX.XXX.        ",
"         .XXX.XXXXX.XXX.        ",
"         ..XX.XXXXX.XXX.        ",
"         ..XXXXX.XXXXX.         ",
"         .X.XXXXXXXXX..         ",
"         .XX...XXX... .         ",
"         .XX. ..... . .         ",
"         .XX. .   . . .         ",
"         .X.. .   . . .         ",
"          . . .   . . .         ",
"          . . .   . .           ",
"                                "
};