/* XPM */
static char	*bottom_alt[] = {
"32 32 3 1",
"  c None",
"X c white",
". c black",
"                                ",
"                  ..            ",
"                 .XX.           ",
"                .XXX.           ",
"               .XXX.            ",
"               .XX.             ",
"            ....XX....          ",
"           .XXXXXXXXXX.         ",
"          .XXXXXXXXXXXX.        ",
"         .XXXXXXXXXXXXXX.       ",
"        .XXXXXXXXXXXXXXXX.      ",
"       .XXXX.XXXXXXX.XXXX.      ",
"       .XXX.X.XXXXX.X.XXX.      ",
"      ..XXX.XX.XXX.XX.XXX..     ",
"    ..XX.X.XXX.XXX.XXX.X.XX..   ",
"   .XXXXXX.XXXX.X.XXXX.XXXXXX.  ",
"   .......XXXXX...XXXXX.......  ",
"         .XXXXXXXXXXXXX.        ",
"         .XXXXXXXXXXXXX.        ",
"         .XXXXXXXXXXXXX.        ",
"         .XXX.XXXXX.XXX.        ",
"         .XXX.XXXXX.XXX.        ",
"         .XXX.XXXXX.XX..        ",
"          .XXXXX.XXXXX..        ",
"          ..XXXXXXXXX.X.        ",
"          . ...XXX...XX.        ",
"          . . ..... .XX.        ",
"          . . .   . .XX.        ",
"          . . .   . ..X.        ",
"          . . .   . . .         ",
"            . .   . . .         ",
"                                "
};