/* XPM */
static char	*down_left[] = {
"32 32 3 1",
"  c None",
"X c white",
". c black",
"                                ",
"                                ",
"                     ...        ",
"                  ...XXX...     ",
"              .....XXXXXXXX.    ",
"             .XXXXXX.......     ",
"            .XXXXXXXXX..        ",
"           .XXXXXXXXXXXX..      ",
"   ..   ...XXXXXXXXXXXXXX..     ",
"   .X.  .X..XXXXXXXXXXXXXX.     ",
"   .XX. .XX.XXXXXXXX.XXXXX.     ",
"   .XXX..XXX.XXXXXX.XXXXXX.     ",
"   .XXXXXXXXX.XXXX.XXXXXXX.     ",
"   .XXXXXXXXXX.XXX.XXXXXXX.     ",
"   .XXXXXXXXXX.XXX.XXXXXX.      ",
"  .XX.XXX.XXXX.XXX.XXXXXX.      ",
"  .XX.XXX.XXXX.XXX.XXXXXX.      ",
"...XX.XXX.XX....XXX.XXXXX.      ",
"  .XXXXXXXXXXXXXXXX.XXXXX.      ",
"  .XX.XXXXXXXXXXXXX.XXXXX.      ",
"  .XXXXXXXXXXXXX.XXX.XXX.       ",
"   .X..XXXXXX.XX.XXX.XX.        ",
"    .........XXXX.X.XXX.        ",
"       .XXXX.XXXX.X.XX.         ",
"        .XXXX.XXXX..XX.         ",
"         .XX....XX.XX.          ",
"          ..   ....X..          ",
"                  ...           ",
"                                ",
"                                ",
"                                ",
"                                "
};