/* XPM */
static char	*down_alt[] = {
"32 32 3 1",
"  c None",
"X c white",
". c black",
"          ..   ..    ..         ",
"         .X.. .XX.  ..X.        ",
"         .XX. .XX.  .XX.        ",
"         .XX. .XX.  .XX.        ",
"        .XXXX..XX. .XXXX.       ",
"        .XXXX..XX..XXXXX.       ",
"        .XXXXXXXXXXXXXXX.       ",
"        .XXXXXXXXXXXXXXX.       ",
"        .XXXXXXXXXXXXXXX.       ",
"        .XXXXXXXXXXXXXXX.       ",
"         .XXXXXXXXXXXXX.        ",
"         .XX.XXXXXXX.XX.        ",
"        .XX.X.XXXXX.X.XX.       ",
"        .XX.XX.XXX.XX.XX.       ",
"        .X.XXX.XXX.XXX.X.       ",
"        .X.XXXX.X.XXXX.X.       ",
"        ..XXXXX...XXXXX..       ",
"        ..XXXXXXXXXXXXX..       ",
"     .. ..XXXXXXXXXXXXX.. ..    ",
"       ...XXXXXXXXXXXXX...      ",
"        ..XXX.XXXXX.XXX..       ",
"        ..XXX.XXXXX.XXX..       ",
"         .XXX.XXXXX.XXX.        ",
"         ..XXXXX.XXXXX..        ",
"         .X.XXXXXXXXX.X.        ",
"         .XX...XXX...XX.        ",
"         .XXXX.....XXXX.        ",
"          .XX.     .XX.         ",
"          .XX.     .XX.         ",
"          .X..     ..X.         ",
"           ..       ..          ",
"                                "
};