/* XPM */
static char	*scratch_alt[] = {
"32 32 3 1",
"  c None",
"X c white",
". c black",
"                                ",
"                                ",
"                                ",
"                                ",
"             .                  ",
"            .X.                 ",
"     .      .XX.                ",
"    .X.     .XXX.               ",
"    .XX.   .XXXXX.              ",
"    .XXX.  .XXXXXX.             ",
"    .XXXX..XXXXXXXX.            ",
"    .XXXXXXXXXXXXXX.            ",
"     .XXXXXXXXXXXXXX.           ",
"     .XXXXXXXXX.XXXX.           ",
"     .XXXXXXX..XXXXX.           ",
"     .XXXXXX.XXXXXX.            ",
"     ....XXXXXX..XX.......      ",
"     .XXXXXXX..XXXX..XXXXX.     ",
"     ....X.XXX......XXXXXXX.    ",
"      ..XXXXX...XXXXXXXXXXX.    ",
"        .....XX..XXX.XXXXXX.    ",
"           .XXXXX...X.XXXXX.    ",
"        .. .XXXXXXXXX.XXXXX.    ",
"       .XX..XXXX.XXXX.XXXXX.    ",
"      .XXXX..XXX.XXX..XXXX.     ",
"      .XXXXX.XXX.XXX.XXXXX.     ",
"      ...XXX.XXX.XXX.XX........ ",
"     ..XXXXX.XX...XX....XXXXXXX.",
"     ........... .............. ",
"                                ",
"                                ",
"                                "
};