/* XPM */
static char	*scratch[] = {
"32 32 3 1",
"  c None",
"X c white",
". c black",
"                                ",
"                                ",
"                                ",
"                                ",
"         ..                     ",
"         .X..                   ",
"         .XXX..                 ",
"         .XXXXX.                ",
"         .XXXXXX..              ",
"  ....   .XXXXXXXX. ..          ",
"  .XXX....XXXXXXXXX..X.         ",
"   .XXXXXXXXXXXXXXX..X.         ",
"   .XXXXXXXXX.XXXXX..X.         ",
"    .XXXXXXX.XXXXXX..X..        ",
"     .XXXXX.XXXXXXX..XXX.       ",
"     .XXXXX.XX..XXX..XXXX.      ",
"     ....XXXX.XXXXX..XXXXX.     ",
"     .XXXXXXXXXXXX. ..XXXXX.    ",
"     ....X.XXXXXXX.  .XXXXX.    ",
"      ..XXXXX..XXXX...XXXXX.    ",
"        .....XXXXXXX.XXXXXX.    ",
"           .XXXXXXXXX.XXXXX.    ",
"        .. .XXXXXXXXX.XXXXX.    ",
"       .XX..XXXX.XXXX.XXXX..    ",
"      .XXXX..XXX.XXX..XXXX.     ",
"      .XXXXX.XXX.XXX.XXXX.      ",
"      ...XXX.XXX.XXX.XX........ ",
"     ..XXXXX.XX...XX....XXXXXXX.",
"     ........... .............. ",
"                                ",
"                                ",
"                                "
};