/* XPM */
static char	*side_l_alt[] = {
"32 32 3 1",
"  c None",
"X c white",
". c black",
"      ..                        ",
"      .X.                       ",
"      .XX.                      ",
"      .XXX.                     ",
".     .XXXX..                   ",
".   ..XXXXXXX.                  ",
".  .XXXXXXXXXX.                 ",
". .XX.XXXXXXXX.                 ",
". .XX.XXXXXXXX.                 ",
"..XXX.XXXXXXXX.                 ",
"..XXXXX..XXXXX.                 ",
". .XX..XXXXXX.X.....            ",
". .XXXXXXXXXXXXXXXXX..          ",
".  .X....XXXXXXXXXXXXX.         ",
".   ..XXXXXXXX..XXXXXXX.        ",
"....XXXXXXXXX.XXXXXXXXXX.       ",
".XXXXXXXXXXX.XXXXXXXXXXXX.    ..",
" ......XXXX.XXXXXXXXXXXXX.   .X.",
" .XX.....XX.XXXXXXXXXXXXXX. .XX.",
"  ..    ....XXXXXXXXXXXXXX..XXX.",
"          ..XXXXXXXXXXXXXXXXXX. ",
"           ..XXXXXXXXXXXXXXXX.  ",
"            ..XX..XXXXXXX....   ",
"         ........XXXXXXX.       ",
"        .X..XXX.XXXXX...        ",
"        .X..XXXXXXXX.           ",
"         ............           ",
"                                ",
"                                ",
"                                ",
"                                ",
"                                "
};