/* XPM */
static char	*side_l[] = {
"32 32 3 1",
"  c None",
"X c white",
". c black",
"      ..                        ",
"      .X.                       ",
"      .XX.                      ",
"..    .XXX.                     ",
"... ..XXXXX..                   ",
"....XXXXXXXXX.                  ",
"...XXXXXXXXXXX.                 ",
"...XX.XXXXXXXX.                 ",
".X.XX.XXXXXXXX.                 ",
".X..X.XXXXXXXX.                 ",
".XXX..XXXXXXXX.                 ",
".XXXXX..XXXXX.X.....            ",
"..XXXXXXXXXXXXXXXXXX..          ",
". ..XXXXXXXXXXXXXXXXXX.         ",
"   ...XXXXXXXX..XXXXXXX.        ",
"    ...XXXXXX.XXXXXXXXXX.       ",
"      .XXXXX.XXXXXXXXXXXX.      ",
"      .XXXX.XXXXXXXXXXXXX.      ",
"       ..XX.XXXXXXXXXXXXXX.     ",
"        ....XXXXXXXXXXXXXX..    ",
"          ..XXXXXXXXXXXXXXXX.   ",
"          .X.XXXXXXXXXXXXXXXX.  ",
"           .X.XX..XXXXXXX..XXX. ",
"         ........XXXXXXX. ..XXX.",
"        .X..XXX.XXXXX...    ... ",
"        .X..XXXXXXXX.           ",
"         ............           ",
"                                ",
"                                ",
"                                ",
"                                ",
"                                "
};