/* XPM */
static char	*up_alt[] = {
"32 32 3 1",
"  c None",
"X c white",
". c black",
"              ....              ",
"       .......XXXX.......       ",
"      .X..X.XXXXXXXX.X..X.      ",
"      .XX..XX.XXXX.XX..XX.      ",
"      .XX.XXX.XXXX.XXX.XX.      ",
"      .XX.XXX.XXXX.XXX.XX.      ",
"      .X.XXXXXXXXXXXXXX.X.      ",
"      .X.....XXXXXX.....X.      ",
"      .X.XXXXXXXXXXXXXX.X.      ",
"      .XX.XXX.XXX.XXXX.XX.      ",
"       .X....XXXXX.....X.       ",
"       .XX.XXXXXXXXXX.XX.       ",
"       .XXX...XXXX...XXX.       ",
"       .XXXXXXXXXXXXXXXX.       ",
"        .XXXXXXXXXXXXXX.        ",
"        .X..XXXXXXXX..X.        ",
"        ..XXXXX..XXXXX..        ",
"        .XXXXX.XX.XXXXX.        ",
"       .XXXXXX.XX.XXXXXX.       ",
"       .XXXXXX.XX.XXXXXX.       ",
"       .XXXXXX.XX.XXXXXX.       ",
"       .XXXXXX.XX.XXXXXX.       ",
"       .XXXXXX.XX.XXXXXX.       ",
"       .XXXXXXXXXXXXXXXX.       ",
"       .XXXXXX....XXXXXX.       ",
"        .XXXXX.  .XXXXX.        ",
"        .XXXX.    .XXXX.        ",
"        .XXX.      .XXX.        ",
"        .XX.        .XX.        ",
"         ..          ..         ",
"                                ",
"                                "
};