/* XPM */
static char	*awake[] = {
"32 32 3 1",
"  c None",
"X c black",
". c white",
"                                ",
"                                ",
"     .                    .     ",
"      .     .       .    .      ",
"       .   ...     ...  .       ",
"        .  ....   ....          ",
" ..       ..X..   ..X..      .. ",
"   ..     .XXXX. .XXXX.    ..   ",
"     ..  .XXXXX...XXXXX. ..     ",
"         .XXXXXXXXXXXXX.        ",
"         .XXX.XXXXX.XXX.        ",
"....     .XXX.XXXXX.XXX.   .... ",
"         .XXX.XXXXX.XXX.        ",
"         .XXXXXXXXXXXXX.        ",
"         .X...XX.XX...X.        ",
"          .XXXXXXXXXXX.         ",
"           .XXXXXXXXX.          ",
"            ...XXX...    .      ",
"              .XXX.     ...     ",
"             .XXXXX.   ..X.     ",
"            .XXXXXXX. ..X.      ",
"           .XXXXXXXXX..X.       ",
"        .. .XXXXXXXXX.X..       ",
"       .XX..XXXX.XXXX..XX.      ",
"      ....X..X.....X..X....     ",
"      .XXXXX.XXX.XXX.XXXXX.     ",
"      ...XXX.........XXX...     ",
"     ..XXXXX.XX...XX.XXXXX..    ",
"     ........... ...........    ",
"                                ",
"                                ",
"                                "
};