/* XPM */
static char	*bottom[] = {
"32 32 3 1",
"  c None",
"X c white",
". c black",
"                                ",
"              ..                ",
"             .XX.               ",
"           ..X.X..              ",
"             .X.XX.             ",
"              .....             ",
"           ....XXX....          ",
"          .XXXXX.XXXXX.         ",
"         .XXX.......XXX.        ",
"        .XX..XXX.XXX..XX.       ",
"       .XX.XX.......XX.XX.      ",
"       .XXXX.XXX.XXX.XXXX.      ",
"       .XXX...X...X...XXX.      ",
"      ..XXX....X.X....XXX..     ",
"    ..XX.X..XX.X.X.XX..X.XX..   ",
"   .XXXXXX.XXXX.X.XXXX.XXXXXX.  ",
"   .......XXXXX...XXXXX.......  ",
"         .XXXX.....XXXX.        ",
"         .XXXXXX.XXXXXX.        ",
"         .XXXXX...XXXXX.        ",
"         .XXX.XX.XX.XXX.        ",
"         .XXX.XXXXX.XXX.        ",
"         ..XX.XXXXX.XXX.        ",
"         ..XXXXX.XXXXX.         ",
"         .X.XXXXXXXXX..         ",
"         ..X...XXX... .         ",
"         .X.. ..... . .         ",
"         ..X. .   . . .         ",
"         .X.. .   . . .         ",
"          . . .   . . .         ",
"          . . .   . .           ",
"                                "
};