/* XPM */
static char	*bottom_alt[] = {
"32 32 3 1",
"  c None",
"X c white",
". c black",
"                                ",
"                  ..            ",
"                 .X..           ",
"                .X.X.           ",
"               .X.X.            ",
"               ....             ",
"            ....XX....          ",
"           .XXXX.XXXXX.         ",
"          .XX.......XXX.        ",
"         .X..XXX.XXX..XX.       ",
"        .X.XX.......XX.XX.      ",
"       .XXXX.XXX.XXX.XXXX.      ",
"       .XXX...X...X...XXX.      ",
"      ..XXX....X.X....XXX..     ",
"    ..XX.X..XX.X.X.XX..X.XX..   ",
"   .XXXXXX.XXXX.X.XXXX.XXXXXX.  ",
"   .......XXXXX...XXXXX.......  ",
"         .XXXX.....XXXX.        ",
"         .XXXXXX.XXXXXX.        ",
"         .XXXXX...XXXXX.        ",
"         .XXX.XXXXX.XXX.        ",
"         .XXX.XXXXX.XXX.        ",
"         .XXX.XXXXX.XX..        ",
"          .XXXXX.XXXXX..        ",
"          ..XXXXXXXXX.X.        ",
"          . ...XXX...XX.        ",
"          . . ..... .XX.        ",
"          . . .   . .XX.        ",
"          . . .   . ..X.        ",
"          . . .   . . .         ",
"            . .   . . .         ",
"                                "
};