/* XPM */
static char	*down_left[] = {
"32 32 3 1",
"  c None",
"X c white",
". c black",
"                                ",
"                                ",
"                     ...        ",
"                  ....X....     ",
"              .....XX.X.X.X.    ",
"             .XX..XX.......     ",
"            .X..XX.XXX..        ",
"           .X.X..XX.XXXX..      ",
"   ..   ...X..XXX.XX.XXXX..     ",
"   ...  ....XX..XX.XX.XXXX.     ",
"   .X.. .X..XXXX.XXX.XXXXX.     ",
"   .XXX..XXX..XXX.X.XXXXXX.     ",
"   .XX...XXXX..XXX.XXXXXXX.     ",
"   .XXX.XXXXXX..XX.....XXX.     ",
"   .XXXXXXXXXX.X.X.XXXXXX.      ",
"  .XX.XXX.XXXX.X.X.....XX.      ",
"  .XX.XXX.XXXX.XXX.XXXXXX.      ",
"...XX.XXX.XX....XXX....XX.      ",
"  .XXXXXXXXXXXXXXXX.XXXXX.      ",
"  .XX.XXXXXXXXXXXXX....XX.      ",
"  .XXXXXXXXXXXXX.XXX.XXX.       ",
"   .X..XXXXXX.XX.XXX..X.        ",
"    .........XXX..X.XXX.        ",
"       .XX.X.XX.X.X.XX.         ",
"        ..X.X..XX...XX.         ",
"         ..X.....X.XX.          ",
"          ..   ....X..          ",
"                  ...           ",
"                                ",
"                                ",
"                                ",
"                                "
};