/* XPM */
static char	*down[] = {
"32 32 3 1",
"  c None",
"X c black",
". c white",
"               XX               ",
"              XXXX              ",
"              X..X              ",
"              XXXX              ",
"              X..X              ",
"              XXXX              ",
"           XXXX..XXXX           ",
"          X.XXXXXXXX.X          ",
"         X.X...XX...X.X         ",
"        X.X.XXXXXXXX.X.X        ",
"       X.X.X.XXXXXX.X.X.X       ",
"       XX.X.X..XX...XX.X.X      ",
"       X.X.XXXXXXXXXXXX..X      ",
"      X....XXXXXX.XXXX....X     ",
"      X...XX..XXX.X..XX...X     ",
"      X...X....X.X....X...X     ",
"      X..X.....XXX.....X..X     ",
"      X..X....XXXXX....X..X     ",
"     XX..X......X......X..XX    ",
"      XX.X.............X.XX     ",
"     X..XX...X.....X...XX..X    ",
"     X.XXX...X.....X...XXX.X    ",
"     XXX.X...X.....X...X.XXX    ",
"       X..X.....X.....X..X      ",
"        XXXX.........XXXX       ",
"          XXXXX...XXXXX         ",
"              XXXXX             ",
"                                ",
"                                ",
"                                ",
"                                ",
"                                "
};