/* XPM */
static char	*down_right_alt[] = {
"32 32 4 1",
"  c None",
"X c white",
". c black",
"+ c black",
"                                ",
"                                ",
"                                ",
"          .......               ",
"  .....  .XXXXXX...             ",
" .XXXXX.  ...XXX..X.            ",
"  ...XXX.   ..X..X.             ",
"     .XXX...XX.XX..             ",
"     ....XX...XX.XX.            ",
"     .XXXXXXXX..XX.X.           ",
"     ....XXX..XX...X.. X.+      ",
"     ..XXXX.XX..XXX.X....+   .. ",
"     .XXXX.XX.XXX..X..X.X. .... ",
"      .XXXXX.XX..XXX.XXXX....X. ",
"       .XXXXXX.XXX..XXXXXX.XXX. ",
"        .XXXX.XXX.XXXXXXX...X.  ",
"         ..XXXXXX.XXXXXXXX.XX.  ",
"           .XXXXX.XXXXXXXXXXX.  ",
"            .XXXXXXXXXXXXXXXX.  ",
"            .XXXX...XXX.XXX.X. .",
"             .XXXXXX.XX.XXX.X.. ",
"             .XX.XXXXXX.XXX.X.  ",
"              .XX.XXXXXXXXXXX.  ",
"               .XX..XXXXXX.X..  ",
"                .XXX....XXX..   ",
"                 .XXXX.....X.   ",
"                  .XXX.  .XXX.  ",
"                  .XXX.   .XX.  ",
"                   .XX.   .XX.  ",
"                    ...    ..   ",
"                                ",
"                                "
};