/* XPM */
static char	*down_alt[] = {
"32 32 3 1",
"  c None",
"X c black",
". c white",
"          XX   XX    XX         ",
"         X.XX X..X  XX.X        ",
"         X..X XXXX  X..X        ",
"         X..X X..X  X..X        ",
"        X..XXXXXXX XXX..X       ",
"        X.X..XX..XX...X.X       ",
"        X.....XXXXX.....X       ",
"        X...XX..X..XX...X       ",
"        X..X..XXXXX..X..X       ",
"        X...XX..X..XX...X       ",
"         X.X..XXXXX..X.X        ",
"         X..XX..X..XX..X        ",
"        X..XXX.XXX.XXX..X       ",
"        X..XXXX.X.XXXX..X       ",
"        X.XX..X.X.X..XX.X       ",
"        X.X....X.X....X.X       ",
"        XX.....XXX.....XX       ",
"        XX....XXXXX....XX       ",
"     XX XX......X......XX XX    ",
"       XXX.....XXX.....XXX      ",
"        XX...X..X..X...XX       ",
"        XX...X.....X...XX       ",
"         X...X.....X...X        ",
"         XX.....X.....XX        ",
"         X.X.........X.X        ",
"         XXXXXX...XXXXXX        ",
"         X....XXXXX....X        ",
"          XXXX     XXXX         ",
"          X..X     X..X         ",
"          X.XX     XX.X         ",
"           XX       XX          ",
"                                "
};