/* XPM */
static char	*down_left_alt[] = {
"32 32 3 1",
"  c None",
"X c white",
". c black",
"                                ",
"                                ",
"                                ",
"               .......          ",
"             ...XXXXXX.  .....  ",
"            .X..XXX...  .XXXXX. ",
"             .X..X..   .X.....  ",
"             ..XX.XX...XXX.     ",
"            .XX.XX...XX....     ",
"           .X.XX..XXXXXXXX.     ",
"      ..  ..X...XX..XXX....     ",
" ..   .....X.XXX..XX.XXXX..     ",
" .... .X.X..X..XXX.XX.XXXX.     ",
" .X....XXXX.XXX..XX.XXXXX.      ",
" .XXX.XXXXXX..XXX.XXXXXX.       ",
"  .X...XXXXXXX.XXX.XXXX.        ",
"  .XX.XXXXXXXX.XXXXXX..         ",
"  .XXXXXXXXXXX.XXXXX.           ",
"  .XXXXXXXXXXXXXXXX.            ",
". .X.XXX.XXX...XXXX.            ",
" ..X.XXX.XX.XXXXXX.             ",
"  .X.XXX.XXXXXX.XX.             ",
"  .XXXXXXXXXXX.XX.              ",
"  ..X.XXXXXX..XX.               ",
"   ..XXX....XXX.                ",
"   .X.......XX.                 ",
"  ..XX.  .XX..                  ",
"  .X..   ...X.                  ",
"  .XX.   .XX.                   ",
"   ..    ...                    ",
"                                ",
"                                "
};