/* XPM */
static char	*down_right[] = {
"32 32 3 1",
"  c None",
"X c white",
". c black",
"                                ",
"                                ",
"        ...                     ",
"     ....X....                  ",
"    .X.X.X.XX.....              ",
"     .......XX..XX.             ",
"       ...XXX.XX..X.            ",
"      ..XXXX.XX..X.X.           ",
"     ..XXXX.XX.XXX..X...   ..   ",
"     .XXXX.XX.XX..XX..X.  .X.   ",
"     .XXXXX.XXX.XXXX.XX. .XX.   ",
"     .XXXXXX.X.XXXX.XXX..XXX.   ",
"     .XXXXXXX.XXXX.XXXXXXXXX.   ",
"     .XXX.....XXX.XXXXXXXXXX.   ",
"      .XXXXXX.XXX.XXXXXXXXXX.   ",
"      .XX.....XXX.XXXX.XXX.XX.  ",
"      .XXXXXX.XXX.XXXX.XXX.XX.  ",
"      .XX....XXX....XX.XXX.XX...",
"      .XXXXX.XXXXXXXXXXXXXXXX.  ",
"      .XX....XXXXXXXXXXXXX.XX.  ",
"       .XXX.XXX.XXXXXXXXXXXXX.  ",
"        .X..XXX.XX.XXXXXX..X.   ",
"        .XXX.X..XXX....... .    ",
"         .XX.X.X.XX.X.XXX.      ",
"         .XX...XX..X.X...       ",
"          .XX.X.....X..         ",
"          ..X....   ..          ",
"           ...                  ",
"                                ",
"                                ",
"                                ",
"                                "
};