/* XPM */
static char	*left_alt[] = {
"32 32 3 1",
"  c None",
"X c white",
". c black",
"                                ",
"                                ",
"                                ",
"     .                       ...",
"     ..                     ....",
"     ...                   .XXX.",
"     ....                 ...X. ",
"     .XX..               .XXX.  ",
"    ..XXXX..            ...X.   ",
"   .XXXXXX.X.         ..XXX.    ",
"  .XX.XXXX.X..     ...XX.XX.    ",
"  .XX.XXX.XX..   ..XX..XX.X.    ",
"  .XX.XXXXXX.X. .X..XXX.XX.X.   ",
" .XXXXXXXXX.XX..XXXX.XXX.XXX.   ",
" .XXXX....XXXXXX..XXX.XXX.XX.   ",
" .XXXXXXXXXXXX.XXX.XXX.XXXXX.   ",
"  .XXXXXXXXXXXX.XXX.XXXXXXXX.   ",
"   ....XXXXXXXXXXXXXXXXXXXXXX.  ",
"       ....XXXXXXXX.XXXXX.XXX.  ",
"       .XXXXXXXXXXXX..X..XXX.X..",
"      ...XXXXXXXXXXXXX...X..XXX.",
"     ..XX.X..XXXXXX....XX....XX.",
"    .XX.XX.X.......    ....XX.X.",
"   .X.XX..X...             .XX..",
"  .XXX..XX.                 ..  ",
"   ...  ..                      ",
"                                ",
"                                ",
"                                ",
"                                ",
"                                ",
"                                "
};