/* XPM */
static char	*left[] = {
"32 32 3 1",
"  c None",
"X c white",
". c black",
"                                ",
"                                ",
"                                ",
"                 ...            ",
"               ..XXX..          ",
"             ..XX...XX..        ",
"            .XX..XXX.XXX.       ",
"           ...XXX..XX.XX.       ",
"  ..      .XXX..XXX.XX.XX.      ",
"  ...     ...XXX.XXXXXXXXX.     ",
"  .....  .XXX..XXXXXXXXXXX..    ",
"   .XXX...XXXXX..XXXXXXXX.XX.   ",
"   .XXX.XX.XXXX.XXXXXXXX..X.X.  ",
"   .XXXX.XX.XXX......XXX. .XX.. ",
"  .XXXXXX.XXXX.XXXXXXXXX.  ..X. ",
" .XX.XXXXXXXXX.....XXXXXX.  .XX.",
" .XX.XXXXXXXXX.XXXXXXXXXXX.  .X.",
" .XX.XXX...XXXX....XXXXXX.    ..",
"..XXXX...XXXXXX.XXXXXXXX.       ",
".XXXXXXXXXXXXX.X..XXXXXX.       ",
" .XXXXXXXXXXXX..X....XX..       ",
"  .XXXXX..XXX.XX.XXX.XX..       ",
"   ..... ....XX.X...XX.XX.      ",
"          .X...XX.X.XX..X.      ",
"           .X.......X.  ..      ",
"            .XX.   ...          ",
"             ...   ..           ",
"                                ",
"                                ",
"                                ",
"                                ",
"                                "
};