/* XPM */
static char	*lick[] = {
"32 32 4 1",
"  c None",
"X c white",
". c black",
"+ c black",
"                                ",
"                                ",
"            ..                  ",
"            ....                ",
"            ..X..               ",
"            ..XXX.              ",
"     ...+   .XXXXX..            ",
"     ...... ..X.XXXX.           ",
"     ..XXXX....XXXXXX.          ",
"      .XXXXX..XX.XXXXX.         ",
"      .XXXXX.X.XX.XXXX.         ",
"      .XXXXXXXXXXXXX.X.         ",
"      .XXXX.XXXXXXX.XX.         ",
"       .XXXX.XXX.XXXXX.         ",
"       .XXXXXXXXXX....          ",
"        .XX...XXX.XX..          ",
"         .XXXXXXXX..XX.         ",
"          .....XXX.....         ",
"              .XXX.XXX.         ",
"             .XXX..XXX.         ",
"            .XXXXXX....         ",
"           .XXXXXXXX..          ",
"        .. .XXXXXX.XX. ..       ",
"       .XX..XXXX..XXX..X..      ",
"      ....X..XXX.XXX.X.X.X.     ",
"      .XXXXX.XXX.XXX.X.X.X....  ",
"      ...XXX.XXX.X.XXXXX...X.X. ",
"     ..XXXXX.XX...XXXXXXXX....  ",
"     ........... ...........    ",
"                                ",
"                                ",
"                                "
};