/* XPM */
static char	*right[] = {
"32 32 3 1",
"  c None",
"X c white",
". c black",
"                                ",
"                                ",
"                                ",
"            ...                 ",
"          ..XXX..               ",
"        ..XX...XX..             ",
"       .XXX.XXX..XX.            ",
"       .XX.XX..XXX...           ",
"      .XX.XX.XXX..XXX.      ..  ",
"     .XXXXXXXXX.XXX...     ...  ",
"    ..XXXXXXXXXXX..XXX.  .....  ",
"   .XX.XXXXXXXX..XXXXX...XXX.   ",
"  .X.X..XXXXXXXX.XXXX.XX.XXX.   ",
" ..XX. .XXX......XXX.XX.XXXX.   ",
" .X..  .XXXXXXXXX.XXXX.XXXXXX.  ",
".XX.  .XXXXXX.....XXXXXXXXX.XX. ",
".X.  .XXXXXXXXXXX.XXXXXXXXX.XX. ",
"..    .XXXXXX....XXXX...XXX.XX. ",
"       .XXXXXXXX.XXX.XX...XXXX..",
"       .XXXXXX..X.XXXXXXXXXXXXX.",
"       ..XX....X..XXXXXXXXXXXX. ",
"       ..XX.XXX.XX.XXX..XXXXX.  ",
"      .XX.XX...X.XX.... .....   ",
"      .X..XX.X.XX...X.          ",
"      ..  .X.......X.           ",
"          ...   .XX.            ",
"           ..   ...             ",
"                                ",
"                                ",
"                                ",
"                                ",
"                                "
};