/* XPM */
static char	*right_alt[] = {
"32 32 3 1",
"  c None",
"X c white",
". c black",
"                                ",
"                                ",
"                                ",
"...                       .     ",
"....                     ..     ",
".XXX.                   ...     ",
" .X...                 ....     ",
"  .XXX.               .XXX.     ",
"   .X...            ..XXXX..    ",
"    .XXX..         .X.XXXXXX.   ",
"    .XX.XX...     ..X.XXXX.XX.  ",
"    .X.XX..XX..   ..XX.XXX.XX.  ",
"   .X.XX.XXX..X. .X.XXXXXX.XX.  ",
"   .XXX.XXX.XXXX..XX.XXXXXXXXX. ",
"   .XX.XXX.XXX..XXXXXX....XXXX. ",
"   .XXXXX.XXX.XXX.XXXXXXXXXXXX. ",
"   .XXXXXXXX.XXX.XXXXXXXXXXXX.  ",
"  .XXXXXXXXXXXXXXXXXXXXXX....   ",
"  .XXX.XXXXX.XXXXXXXX....       ",
"..X.XXX..X..XXXXXXXXXXXX.       ",
".XXX..X...XXXXXXXXXXXXX...      ",
".XX....XX...XXXXXXX..X.XX..     ",
".X..X....  .........X.XX.XX.    ",
"...X.             ...X..XX.X.   ",
"  ..                 .XX..XXX.  ",
"                      ..  ...   ",
"                                ",
"                                ",
"                                ",
"                                ",
"                                ",
"                                "
};