/* XPM */
static char	*scratch_alt[] = {
"32 32 3 1",
"  c None",
"X c black",
". c white",
"                                ",
"                                ",
"                                ",
"                                ",
"             X                  ",
"            XXX                 ",
"     X      XXXX                ",
"    XXX     X..XX               ",
"    XXXX   X.....X              ",
"    X...X  X......X             ",
"    X....XX........X            ",
"    X....XXXX......X            ",
"     X.XXX..........X           ",
"     X...X.....X....X           ",
"     X.......XX.....X           ",
"     X......X......X            ",
"     XXXX......XX..XXXXXXX      ",
"     X.......XX....XX.....X     ",
"     XXXX.X...XXXXXXX......X    ",
"      XX.....XXX..X.X.XXXXXX    ",
"        XXXXX..XX.X.XX.....X    ",
"           X.....XXX.XXX...X    ",
"        XX X.........X..XXXX    ",
"       X..XX....X....X.....X    ",
"      XXXX.XX.XXXXX.XXXXXXX     ",
"      X.....X...X...X.....X     ",
"      XXXX..XXXXXXXXX..XXXXXXXX ",
"     XX.....X..XXX..XXXX..X.X..X",
"     XXXXXXXXXXX XXXXXXXXXXXXXX ",
"                                ",
"                                ",
"                                "
};