/* XPM */
static char	*scratch[] = {
"32 32 3 1",
"  c None",
"X c white",
". c black",
"                                ",
"                                ",
"                                ",
"                                ",
"         ..                     ",
"         ....                   ",
"         ..X...                 ",
"         .XXXXX.                ",
"         .XXXXXX..              ",
"  ....   .XXXXXXXX. ..          ",
"  ........X.XXXXXXX..X.         ",
"   .XXXXX..XXXXXXXX....         ",
"   .XXX...XXX.XXXXX..X.         ",
"    .XXXX.XX.XXXXXX.....        ",
"     .XXXXX.XXXXXXX..XXX.       ",
"     .XXXXX.XX..XXX..XX...      ",
"     ....XXXX.XXXXX..X..XX.     ",
"     .XXXXXXXXXXXX. ..XXXXX.    ",
"     ....X.XXXXXXX.  .XX....    ",
"      ..XXXXX..XXX......XXX.    ",
"        .....XXXX.XX.XXXX...    ",
"           .XXXXXXX.X....XX.    ",
"        .. .XXXXXXXXX.XXXXX.    ",
"       .XX..XXXX.XXXX.XX....    ",
"      ....X..X.....X..XXXX.     ",
"      .XXXXX.XXX.XXX.XXXX.      ",
"      ....XX.........XX........ ",
"     ..XXXXX.XX...XX....XXXXXXX.",
"     ........... .............. ",
"                                ",
"                                ",
"                                "
};