/* XPM */
static char	*side_r_alt[] = {
"32 32 3 1",
"  c None",
"X c white",
". c black",
"                        ..      ",
"                       ...      ",
"                      ....      ",
"                     .XXX.      ",
"                   ..XXXX.     .",
"                  .X.XXXXX..   .",
"                 ..XX.XXXXXX.  .",
"                 .X.X.XXXX.XX. .",
"                 .X.XXXXXX.XX. .",
"                 .XX.XXXXX.XXX..",
"                 ..XXXX..XXXXX..",
"            .....X..XXXXX..XX.X.",
"          ..X.XX.XXXXXXXXXXXX.X.",
"         ..XX.XXX.XXXXX....X.XX.",
"        .X.XXX.X..XXXXXXXX..XXX.",
"       ..XX.XX.XXX.XXXXXXXX.....",
"..    .X.XX.XXX.XXX.XXXXX.X.X.X.",
".X.   .XX.XX.XXXXXXX.XXXX...... ",
".X.. ..XX.XXX.XXXXXX.XX.....XX. ",
"..XX...XXX.XXXXXXXXX....    ..  ",
" .X.X.X.XXX.XXXXXXXX..          ",
"  .XX.XX.XXXXXXXXXX..           ",
"   ....XXXXXXX..XX..            ",
"       .XXXXXXX........         ",
"        ...XXXXX.X.X..X.        ",
"           .XXXX.X.X..X.        ",
"           ............         ",
"                                ",
"                                ",
"                                ",
"                                ",
"                                "
};