/* XPM */
static char	*side_r[] = {
"32 32 3 1",
"  c None",
"X c white",
". c black",
"                        ..      ",
"                       ...      ",
"                      ....      ",
"                     .XXX.    ..",
"                   ..XXXXX.. ...",
"                  .X.XXXXXXX....",
"                 ..XX.XXXXXXX...",
"                 .X.XX.XXX.XX...",
"                 .XX.XXXXX.XX.X.",
"                 ..XX.XXXX.X..X.",
"                 .X.XXXXXX..XXX.",
"            .....X.X.XXX..X.XXX.",
"          ...XX.XX.XXXXXXXXX.X..",
"         .XX.XX.XXX.XXXXXXXX.. .",
"        ..XX.XX...XXXXXXXX...   ",
"       .X.XXX.XXXX.XXXXXX...    ",
"      .XXX.XX.XXXXX.XXXXX.      ",
"      ..XX.XXX.XXXXX.XXXX.      ",
"     .X.XXX.XXX.XXXX.XX..       ",
"    ..XX.XXX.XXXXXXX....        ",
"   .XXXX.XXXXXXXXXXX..          ",
"  .X.XXXX.XXXXXXXXX..           ",
" ..XX..XXXXXXX..XX..            ",
".XX... .XXXXXXX........         ",
" ...    ...XXXXX.X.X..X.        ",
"           .XXXX.X.X..X.        ",
"           ............         ",
"                                ",
"                                ",
"                                ",
"                                ",
"                                "
};