/* XPM */
static char	*side_l[] = {
"32 32 3 1",
"  c None",
"X c white",
". c black",
"      ..                        ",
"      ...                       ",
"      ....                      ",
"..    .XXX.                     ",
"... ..XXXXX..                   ",
"....XXXXXXX.X.                  ",
"...XXXXXXX.XX..                 ",
"...XX.XXX.XX.X.                 ",
".X.XX.XXXXX.XX.                 ",
".X..X.XXXX.XX..                 ",
".X.X..XXXXXX.X.                 ",
"..XX.X..XXX.X.......            ",
"..X.XXXXXXXXX.XX.XX...          ",
". ..XXXXXXXX.XXX.XX.XX.         ",
"   ...XXXXXXXX...XX.XX..        ",
"    ...XXXXXX.XXXX.XXX.X.       ",
"      .XXXXX.XXXXX.XX.XXX.      ",
"      .XXXX.XXXXX.XXX.XX..      ",
"       ..XX....X.XXX.XXX.X.     ",
"        ....XXXXXXX.XXX.XX..    ",
"          .....XXXXXXXX.XXXX.   ",
"          .X.XXXXXXXXX.XXXX.X.  ",
"           .X.XX..XXXXXXX..XX.. ",
"         ........XXXXXXX. ...XX.",
"        .X..X.X.XXXXX...    ... ",
"        .X..X.X.XXXX.           ",
"         ............           ",
"                                ",
"                                ",
"                                ",
"                                ",
"                                "
};