/* XPM */
static char	*side_l_alt[] = {
"32 32 3 1",
"  c None",
"X c white",
". c black",
"      ..                        ",
"      ...                       ",
"      ....                      ",
"      .XXX.                     ",
".     .XXXX..                   ",
".   ..XXXXX.X.                  ",
".  .XXXXXX.XX..                 ",
". .XX.XXXX.X.X.                 ",
". .XX.XXXXXX.X.                 ",
"..XXX.XXXXX.XX.                 ",
"..XXXXX..XXXX..                 ",
". .XX..XXXXX..X.....            ",
". .XXXXXXXXXXXX.XX.X..          ",
".  .X....XXXXX.XXX.XX..         ",
".   ..XXXXXXXX..X.XXX.X.        ",
".....XXXXXXXX.XXX.XX.XX..       ",
".X.X.X.XXXXX.XXX.XXX.XX.X.    ..",
" ......XXXX.XXXXXXX.XX.XX.   .X.",
" .XX.....XX....XXX.XXX.XX.. ..X.",
"  ..    ....XXXXXXXXX.XXX...XX..",
"          .....XXXXX.XXX.X.X.X. ",
"           ..XXXXXXXXXX.XX.XX.  ",
"            ..XX..XXXXXXX....   ",
"         .........XXXXXX.       ",
"        .X..X.X.XX.XX...        ",
"        .X..X.X.XXXX.           ",
"         ............           ",
"                                ",
"                                ",
"                                ",
"                                ",
"                                "
};