/* XPM */
static char	*sleep[] = {
"32 32 3 1",
"  c None",
"X c white",
". c black",
"                                ",
"                                ",
"                                ",
"      .......                   ",
"      XXXXX.X                   ",
"        . .X                    ",
"        X.X                     ",
"        .X.     .....           ",
"       .X X     XXX.X           ",
"      .......     .X            ",
"      XXXXXXX   .....           ",
"                XXXXX           ",
"                        .       ",
"                       .X.      ",
"                .     .XX.      ",
"               .X.   .XXX.      ",
"              .XX.....XXX..     ",
"           ...XXXX.X.XXXX.X.    ",
"         ..XX.XXXXX....XXX.X.   ",
"        .X.X.XXXX..XX.XXXXX..   ",
"        .X.X.XXXXXX....XXXX..   ",
"       .X.X..XXXXXXXXXXXXXX...  ",
"      .XX.X..XXXXXXXXXXXXX..X.  ",
"      .X.XXXX.X..XXXXXXX..X.X.  ",
"      .XX.XXX.XXX...XXX.XXX.X.. ",
"      .XXXXXXX.XXXXX.XXXXX.X.X. ",
"      .XXXXXXXX.XXXXXX.X..X..X. ",
"       .XXXXXX.X........X....X. ",
"        ......XX.X.X....XX.XX.. ",
"             ........  .......  ",
"                                ",
"                                "
};