/* XPM */
static char	*sleep_alt[] = {
"32 32 3 1",
"  c None",
"X c white",
". c black",
"                                ",
"                                ",
"                                ",
"                                ",
"                                ",
"                                ",
"                                ",
"                                ",
"                                ",
"        ......                  ",
"        XXXX.X    ....          ",
"          ..X     XX.X          ",
"          .X       .X  ..       ",
"        ......    .....X.       ",
"        XXXXXX .  XXX..X.       ",
"              ...    .XXX.      ",
"           ....X......XXX..     ",
"         ..XX.XXX.XX.XXXX.X.    ",
"        .X.XX.XXXX.....XXX.X.   ",
"       .XX.X.XXXX.XXX.XXXXX..   ",
"       .X.XX.XXXXXX....XXXX..   ",
"       .X.X..XXXXXXXXXXXXXX...  ",
"      .X.XX..XXXXXXXXXXXX.X.X.  ",
"      .XXXX.X.X...XXXXXX.XX.X.  ",
"      .XXXXXX.XXXX..XXX.XXX.X.. ",
"      .XXXXXXX.XXXXX.XXXXX.X.X. ",
"      .XXXXXXXX.XXXXXX.X..X..X. ",
"       .XXXXXX.X........X...XX. ",
"        ......XX.X.X....XX.X... ",
"             ........  .......  ",
"                                ",
"                                "
};