/* XPM */
static char	*top[] = {
"32 32 3 1",
"  c None",
"X c white",
". c black",
"         . . .   .  ..          ",
"         . . .   . .XX.         ",
"       ... . ..... .XX.         ",
"         .....XXXX......        ",
"         .X.XXXXXXXX.XX.        ",
"         ..XX.XXXX.XX.X.        ",
"        ..XXX.XXXX.XXX..        ",
"        ..XXX.XXXX.XXX..        ",
"        .XXXXXXX.XXXXXX.        ",
"       ......X....X......       ",
"       ..XXXXXX.XXXXXXX.        ",
"        ...XX.X.XX.XX..         ",
"        .X...XXX.XX..X.         ",
"        ..XXXXXX.XXXXX..        ",
"         ....XX.XXX....         ",
"         .XXXXX.XXXXXX.         ",
"        .XXX...X....XXX.        ",
"       .XXXXXXXX.XXXXXXX.       ",
"       .XXX.....X....XXX.       ",
"       .XXXXXXX.XXXXXXXX.       ",
"    .. .XXX....X.....XXX. ..    ",
"   .X....XXXXXXX.XXXXXX....X.   ",
"   .X.X...XXX...X..XXX...X.X.   ",
"    .XXXXXXXXXX.XXXXXXXXXXX.    ",
"     ...XXX....XX....XXX...     ",
"        ...   ..X.   ...        ",
"             .XX..              ",
"            .X.X.               ",
"            .XX.                ",
"             ..                 ",
"                                ",
"                                "
};