/* XPM */
static char	*top_alt[] = {
"32 32 3 1",
"  c None",
"X c white",
". c black",
"         ..  .   . . .          ",
"        .XX. .   . . .          ",
"        .XX. ..... . ...        ",
"        .X....XXXX....          ",
"        .XX.XXXXXXXX..          ",
"        .X.XX.XXXX.XXX.         ",
"        ..XXX.XXXX.XXX.         ",
"        ..XXX.XXXX.XXX.         ",
"        .XXXXXXXXXXXXXX.        ",
"       ......X....X......       ",
"       .XXXXXXX.XXXXXXX.        ",
"        ...XX.XX.X.XX..         ",
"        .X...XXX.XX..X.         ",
"        ..XXXXX.XXXXXX..        ",
"         ....XX.XXX....         ",
"         .XXX..X...XXX.         ",
"        .XXXXXXX.XXXXXX.        ",
"       .XXX.....X....XXX.       ",
"       .XXXXXXX.XXXXXXXX.       ",
"       .XX.....X......XX.       ",
"    .. .XXXXXXXX.XXXXXXX. ..    ",
"   .X....XX.....X....XX...XX.   ",
"   .X.XX..XXXXX.XXXXXX..XX.X.   ",
"    .XX.XXXXXXXX.XXXXXXX.XX.    ",
"     ...XXX....XX....XXX...     ",
"        ...   .X..   ...        ",
"              ..XX.             ",
"               .X.X.            ",
"                .XX.            ",
"                 ..             ",
"                                ",
"                                "
};