/* XPM */
static char	*up[] = {
"32 32 3 1",
"  c None",
"X c white",
". c black",
"              ....              ",
"         .....XXXX.....         ",
"           .XXXXXXXX.           ",
"         ..XX.XXXX.XX..         ",
"         .XXX.XXXX.XXX.         ",
"         .XXX.XXXX.XXX.         ",
"        .XXXXXX.XXXXXXX.        ",
"        .....X....X.....        ",
"        .XXXXXXX.XXXXXX.        ",
"         .XXX.XX.X.XXX.         ",
"         ....XX.XXX....         ",
"         ..XXXX.XXXXX..         ",
"       ......X....X......       ",
"      ..XX.XXXXX.XXXX.XX..      ",
"      .XX.X.XXXX.XXX.X.XX.      ",
"      ..X.XX........XX.X..      ",
"      .X.X.XXXX.XXXXX.X.X.      ",
"      .XXXX..........XXXX.      ",
"       .XX.XXXXX.XXXX.XX.       ",
"       .XXX..........XXX.       ",
"       .XXXXXXX.XXXXXXXX.       ",
"       .XXX..........XXX.       ",
"        .XXXXXXX.XXXXXX.        ",
"         ..XX...X..XX..         ",
"           ....XX....           ",
"              ....              ",
"              .XX.              ",
"              ....              ",
"              .XX.              ",
"               ..               ",
"                                ",
"                                "
};