/* XPM */
static char	*up_alt[] = {
"32 32 3 1",
"  c None",
"X c white",
". c black",
"              ....              ",
"       .......XXXX.......       ",
"      .X..X.XXXXXXXX.X..X.      ",
"      .XX..XX.XXXX.XX..XX.      ",
"      ....XXX.XXXX.XXX....      ",
"      .XX.XXX.XXXX.XXX.XX.      ",
"      ...XXXXXXX.XXXXXX...      ",
"      .X.....X....X.....X.      ",
"      ...XXXXXX.XXXXXXX...      ",
"      .XX.XXX.X..X.XXX.XX.      ",
"       .X....XXX.XX....X.       ",
"       .XXXXXX....XXXXXX.       ",
"       .XXXXXXX.XXXXXXXX.       ",
"       .XXX.....X....XXX.       ",
"        .XXXXXXX.XXXXXX.        ",
"        .XXXX......XXXX.        ",
"        ..XXXXX..XXXXX..        ",
"        .XXXX..XX..XXXX.        ",
"       .XX..XX....XX..XX.       ",
"       .XXXX...XX...XXXX.       ",
"       .XX..XX....XX.XXX.       ",
"       .XXXX...XX...XXXX.       ",
"       ...XXXX....XXXX...       ",
"       .XXXX...XX...XXXX.       ",
"       ...XXXX....XXXX...       ",
"        .XXXXX.  .XXXXX.        ",
"        .XXXX.    .XXXX.        ",
"        .XXX.      .XXX.        ",
"        .XX.        .XX.        ",
"         ..          ..         ",
"                                ",
"                                "
};