/* XPM */
static char	*up_left[] = {
"32 32 3 1",
"  c None",
"X c white",
". c black",
"                ...             ",
"       ............             ",
"      .XXXX....XX..             ",
"     ....X....X.XX.             ",
" .. ..XXX.XX..XX.X.             ",
"   ..XXX.XXXX.XX...             ",
"    .XXXXXXXX.X..X.             ",
"    .XXXXXXXXXXXX..             ",
"    .XXXXXXXXXXX......          ",
"     .XXXXXXXX..XXX.XX...       ",
"     .XXXXXXXXXXX..X..XXX.      ",
"      ..XXXXXXXX.XXXXX.....     ",
"        .XXXXXXXXXXX....XXX.    ",
"        .XXXXXXXXX..XXXX..X.    ",
"        ....XXXXX.XXXX..X..X.   ",
"        .XXXXXXXXXXX..XXXX..X.  ",
"        ....XX..XXX.XXXX...XX.  ",
"         .XXX.XXXXXXXX..XX..X.  ",
"         ..X......XXX.XXXXX.X.  ",
"         .XXX.XXXXXXXXXXX.....  ",
"          .XX.XXXXXXXXXXXXXX..  ",
"          .XX.....XXXXXXXXXXX.  ",
"           ..X..XXXXXX..XX.XX.. ",
"            ..X..XXXXX.X.....X. ",
"            ..X...XXXX.XX. ..X..",
"            ...XXXXX......  ..X.",
"            .XXXX....        .. ",
"            ......              ",
"                                ",
"                                ",
"                                ",
"                                "
};