/* XPM */
static char	*up_left_alt[] = {
"32 32 4 1",
"  c None",
"X c white",
". c black",
"+ c black",
"                                ",
"                                ",
"        ........                ",
"       .XXXX..X..               ",
"      .X...XXXXXX.....          ",
"     ..XXXXXXX..XXX...          ",
"   .. .XXXX.....X.X..           ",
"      .XXXX.X....XXX.           ",
" .... .XXXXXXXX...X.            ",
" .XX....XXXXXXX.X...            ",
" ...XX..XXXXXXXXXX...           ",
"  ..X.X...XXXXXXX..XX.          ",
"   ..XX.XXXXXXX..X...X.  ...    ",
"    ...XXXXXXX.XXXX...X..XX.    ",
"      .XXXXXX.XXX..X...X....    ",
"       ..XXXXXXX.XXXX...XX.     ",
"         .XXXXX.XXX..XX.....    ",
"          .XXXXXXX.XXX..X.X.    ",
"           .XXXXX.XXX.XXX.XX..  ",
"            .XXXXXXX.XXXXXXXXX. ",
"            .XX.XXXXXXX.XXXXXX. ",
"            ...XXXXXXXXX.X.XXX. ",
"            .XXX.XXXXXXX..XX.X. ",
"             ...XX.XXXXX....XXX.",
"             .XXX.XX.XXX+  .XXX.",
"              .X.XX.XXX.    ....",
"               .....XXX.    .XX.",
"                    ....     ...",
"                    .XX.      ..",
"                    ....        ",
"                    .XX.        ",
"                     ..         "
};