/* XPM */
static char	*up_right[] = {
"32 32 3 1",
"  c None",
"X c white",
". c black",
"             ...                ",
"             ............       ",
"             ..XX....XXXX.      ",
"             .XX.X....X....     ",
"             .X.XX..XX.XXX.. .. ",
"             ...XX.XXXX.XXX..   ",
"             .X..X.XXXXXXXX.    ",
"             ..XXXXXXXXXXXX.    ",
"          ......XXXXXXXXXXX.    ",
"       ...XX.XXX..XXXXXXXX.     ",
"      .XXX..X..XXXXXXXXXXX.     ",
"     .....XXXXX.XXXXXXXX..      ",
"    .XXX....XXXXXXXXXXX.        ",
"    .X..XXXX..XXXXXXXXX.        ",
"   .X..X..XXXX.XXXXX....        ",
"  .X..XXXX..XXXXXXXXXXX.        ",
"  .XX...XXXX.XXX..XX....        ",
"  .X..XX..XXXXXXXX.XXX.         ",
"  .X.XXXXX.XXX......XX.         ",
"  .....XXXXXXXXXXX.XXX.         ",
"  ..XXXXXXXXXXXXXX.XX.          ",
"  .XXXXXXXXXXX.....XX.          ",
" ..XX.XX..XXXXXX..X..           ",
" .X.....X.XXXXX..X..            ",
"..X.. .XX.XXXX...X..            ",
".X..  ......XXXXX...            ",
" ..        ....XXXX.            ",
"              ......            ",
"                                ",
"                                ",
"                                ",
"                                "
};