/* XPM */
static char	*up_right_alt[] = {
"32 32 4 1",
"  c None",
"X c white",
". c black",
"+ c black",
"                                ",
"                                ",
"                ........        ",
"               ..X..XXXX.       ",
"          .....XXXXXX...X.      ",
"          ...XXX..XXXXXXX..     ",
"           ..X.X.....XXXX.X..   ",
"           .XXX....X.XXXX.XXX   ",
"            .X...XXXXXXXX.X.... ",
"            ...X.XXXXXXX....XX. ",
"           ...XXXXXXXXXX..XX... ",
"          .XX..XXXXXXX...X.X..  ",
"    ...  .X...X..XXXXXXX.XX..   ",
"    .XX..X...XXXX.XXXXXXX...    ",
"    ....X...X..XXX.XXXXXX.      ",
"     .XX...XXXX.XXXXXXX..       ",
"    .....XX..XXX.XXXXX.         ",
"    .X.X..XXX.XXXXXXX.          ",
"  ..XX.XXX.XXX.XXXXX.           ",
" .XXXXXXXXX.XXXXXXX.            ",
" .XXXXXX.XXX.XXX.XX.            ",
" .XXX.X.XXXXXXXXX...            ",
" .X.XX..XXXXXXX.XXX.            ",
".XXX....XXXXX.XX...             ",
".XXX.  +XXX.XX.XXX.             ",
"....    .XXX.XX.X.              ",
".XX.    .XXX.....               ",
"...     ....                    ",
"..      .XX.                    ",
"        ....                    ",
"        .XX.                    ",
"         ..                     "
};