/* XPM */
static char	*yawn[] = {
"32 32 3 1",
"  c None",
"X c black",
". c white",
"                                ",
"                                ",
"                                ",
"            X       X           ",
"           XXX     XXX          ",
"           XXXX   XXXX          ",
"          X...X   X...X         ",
"          X...XX XX...X         ",
"         X.....XXX.....X        ",
"         X.XXX.....XXX.X        ",
"         X....X.X.X....X        ",
"         X..X..XX...X..X        ",
"         XXX..X..X...XXX        ",
"         X....X..X.....X        ",
"         X....X..X.....X        ",
"          X...X..X....X         ",
"           X...XX....X          ",
"            XXX...XXX           ",
"              X...X             ",
"             X.....X            ",
"            XX.....XX           ",
"           X.........X          ",
"        XX X.........X XX       ",
"       X..XX....X....XX..X      ",
"      XXXX.XX.XXXXX.XX.XXXX     ",
"      X.....X...X...X.....X     ",
"      XXXX..XXXXXXXXX..XXXXXXXX ",
"     XX.....X..XXX..X.....X.X.XX",
"     XXXXXXXXXXX XXXXXXXXXXXXXX ",
"                                ",
"                                ",
"                                "
};