/* XPM */
static char *down_left_alt[] = {
/* columns rows colors chars-per-pixel */
"32 32 3 1 ",
"  c None",
". c black",
"X c white",
/* pixels */
"                                ",
"                                ",
"                                ",
"               .......          ",
"             ...XXXXXX.  .....  ",
"            .XX.XXX...  .XXXXX. ",
"             .XX.XX.   .XXX...  ",
"             ..XX.XX...XXX.     ",
"            .XX.XX...XXXXX.     ",
"           .XXXXXXXXXXXXXX.     ",
"      ..  ..XXXXXXXXXXXXXX.     ",
" ..   .X...XXXXXXXXXXXXXXX.     ",
" .X.. .XXX.XXXXXXXXXXXXXXX.     ",
" .XX...XXXX.XXXXXXXXXXXXX.      ",
" .XXX.XXXXXX..XXXXXXXXXX.       ",
"  .XXXXXXXXXXX.XXXXXXXX.        ",
"  .XXXXXXXXXXX.XXXXXX..         ",
"  .XXXXXXXXXXX.XXXXX.           ",
"  .XXXXXXXXXXXXXXXX.            ",
". .X.XXX.XXX...XXXX.            ",
" ..X.XXX.XX.XXXXXX.             ",
"  .X.XXX.XXXXXX.XX.             ",
"  .XXXXXXXXXXX.XX.              ",
"  ..X.XXXXXX..XX.               ",
"   ..XXX....XXX.                ",
"   .X.....XXXX.                 ",
"  ..XX.  .XXX.                  ",
"  .XX.   .XXX.                  ",
"  .XX.   .XX.                   ",
"   ..    ...                    ",
"                                ",
"                                "
};
