/* XPM */
static char *down_right[] = {
/* columns rows colors chars-per-pixel */
"32 32 3 1 ",
"  c None",
". c black",
"X c white",
/* pixels */
"                                ",
"                                ",
"        ...                     ",
"     ...XXX...                  ",
"    .XXXXXXXX.....              ",
"     .......XXXXXX.             ",
"       ...XXXXXXXXX.            ",
"      ..XXXXXXXXXXXX.           ",
"     ..XXXXXXXXXXXXXX...   ..   ",
"     .XXXXXXXXXXXXXX..X.  .X.   ",
"     .XXXXX.XXXXXXXX.XX. .XX.   ",
"     .XXXXXX.XXXXXX.XXX..XXX.   ",
"     .XXXXXXX.XXXX.XXXXXXXXX.   ",
"     .XXXXXXX.XXX.XXXXXXXXXX.   ",
"      .XXXXXX.XXX.XXXXXXXXXX.   ",
"      .XXXXXX.XXX.XXXX.XXX.XX.  ",
"      .XXXXXX.XXX.XXXX.XXX.XX.  ",
"      .XXXXX.XXX....XX.XXX.XX...",
"      .XXXXX.XXXXXXXXXXXXXXXX.  ",
"      .XXXXX.XXXXXXXXXXXXX.XX.  ",
"       .XXX.XXX.XXXXXXXXXXXXX.  ",
"        .XX.XXX.XX.XXXXXX..X.   ",
"        .XXX.X.XXXX....... .    ",
"         .XX.X.XXXX.XXXXX.      ",
"         .XX..XXXX.XXXX..       ",
"          .XX.XX....XX.         ",
"          ..X....   ..          ",
"           ...                  ",
"                                ",
"                                ",
"                                ",
"                                "
};
