/* XPM */
static char *down_right_alt[] = {
/* columns rows colors chars-per-pixel */
"32 32 3 1 ",
"  c None",
". c black",
"X c white",
/* pixels */
"                                ",
"                                ",
"                                ",
"          .......               ",
"  .....  .XXXXXX...             ",
" .XXXXX.  ...XXX.XX.            ",
"  ...XXX.   .XX.XX.             ",
"     .XXX...XX.XX..             ",
"     .XXXXX...XX.XX.            ",
"     .XXXXXXXXXXXXXX.           ",
"     .XXXXXXXXXXXXXXX. ..       ",
"     .XXXXXXXXXXXXXXX..X.    .. ",
"     .XXXXXXXXXXXXXXX.XX.. ..X. ",
"      .XXXXXXXXXXXXX.XXXX..XXX. ",
"       .XXXXXXXXXX..XXXXXX.XXX. ",
"        .XXXXXXXX.XXXXXXXX.XX.  ",
"         ..XXXXXX.XXXXXXXXXXX.  ",
"           .XXXXX.XXXXXXXXXXX.  ",
"            .XXXXXXXXXXXXXXXX.  ",
"            .XXXX...XXX.XXX.X. .",
"             .XXXXXX.XX.XXX.X.. ",
"             .XX.XXXXXX.XXX.X.  ",
"              .XX.XXXXXXXXXXX.  ",
"               .XX..XXXXXX.X..  ",
"                .XXX....XXX..   ",
"                 .XXXX.....X.   ",
"                  .XXX.  .XXX.  ",
"                  .XXX.   .XX.  ",
"                   .XX.   .XX.  ",
"                    ...    ..   ",
"                                ",
"                                "
};
