/* XPM */
static char *down[] = {
/* columns rows colors chars-per-pixel */
"32 32 3 1 ",
"  c None",
". c black",
"X c white",
/* pixels */
"               ..               ",
"              .XX.              ",
"              .XX.              ",
"              .XX.              ",
"              .XX.              ",
"              .XX.              ",
"           ....XX....           ",
"          .XXXXXXXXXX.          ",
"         .XXXXXXXXXXXX.         ",
"        .XXXXXXXXXXXXXX.        ",
"       .XXXXXXXXXXXXXXXX.       ",
"       .XXXX.XXXXXXX.XXXX.      ",
"       .XXX.X.XXXXX.X.XXX.      ",
"      .XXXX.XX.XXX.XX.XXXX.     ",
"      .XXX.XXX.XXX.XXX.XXX.     ",
"      .XXX.XXXX.X.XXXX.XXX.     ",
"      .XX.XXXXX...XXXXX.XX.     ",
"      .XX.XXXXXXXXXXXXX.XX.     ",
"     ..XX.XXXXXXXXXXXXX.XX..    ",
"      ..X.XXXXXXXXXXXXX.X..     ",
"     .XX..XXX.XXXXX.XXX..XX.    ",
"     .X...XXX.XXXXX.XXX...X.    ",
"     ...X.XXX.XXXXX.XXX.X...    ",
"       .XX.XXXXX.XXXXX.XX.      ",
"        ....XXXXXXXXX....       ",
"          .....XXX.....         ",
"              .....             ",
"                                ",
"                                ",
"                                ",
"                                ",
"                                "
};
