/* XPM */
static char *left_alt[] = {
/* columns rows colors chars-per-pixel */
"32 32 3 1 ",
"  c None",
". c black",
"X c white",
/* pixels */
"                                ",
"                                ",
"                                ",
"     .                       ...",
"     ..                     .XX.",
"     .X.                   .XXX.",
"     .XX.                 .XXX. ",
"     .XXX.               .XXX.  ",
"    ..XXXX..            .XXX.   ",
"   .XXXXXXXX.         ..XXX.    ",
"  .XX.XXXXXX..     ...XXXXX.    ",
"  .XX.XXXXXXX.   ..XXXXXXXX.    ",
"  .XX.XXXXXXXX. .XXXXXXXXXXX.   ",
" .XXXXXXXXXXXX..XXXXXXXXXXXX.   ",
" .XXXX....XXXXXXXXXXXXXXXXXX.   ",
" .XXXXXXXXXXXXXXXXXXXXXXXXXX.   ",
"  .XXXXXXXXXXXXXXXXXXXXXXXXX.   ",
"   ....XXXXXXXXXXXXXXXXXXXXXX.  ",
"       ....XXXXXXXX.XXXXXXXXX.  ",
"       .XXXXXXXXXXXX..XXXXXXXX..",
"      ..XXXXXXXXXXXXXX...XXXXXX.",
"     ..XXXX..XXXXXX....XX....XX.",
"    .XXXXX.X.......    ....XX.X.",
"   .XXXX..X...             .XX..",
"  .XXX..XX.                 ..  ",
"   ...  ..                      ",
"                                ",
"                                ",
"                                ",
"                                ",
"                                ",
"                                "
};
