/* XPM */
static char *lick[] = {
/* columns rows colors chars-per-pixel */
"32 32 3 1 ",
"  c None",
". c black",
"X c white",
/* pixels */
"                                ",
"                                ",
"            ..                  ",
"            .X..                ",
"            .XXX.               ",
"            .XXXX.              ",
"     ...    .XXXXX..            ",
"     .XX... ..XXXXXX.           ",
"     .XXXXX..XXXXXXXX.          ",
"      .XXXXXXXXX.XXXXX.         ",
"      .XXXXXXXXXX.XXXX.         ",
"      .XXXXXXXXXXXXX.X.         ",
"      .XXXX.XXXXXXX.XX.         ",
"       .XXXX.XXX.XXXXX.         ",
"       .XXXXXXXXXX....          ",
"        .XX...XXX.XXX.          ",
"         .XXXXXXXX.XXX.         ",
"          .....XXX.....         ",
"              .XXX.XXX.         ",
"             .XXX..XXX.         ",
"            .XXXXXXXXX.         ",
"           .XXXXXXXX..          ",
"        .. .XXXXXX.XX. ..       ",
"       .XX..XXXX..XXX..XX.      ",
"      .XXXX..XXX.XXXXXXXXX.     ",
"      .XXXXX.XXX.XXXXXXXXX....  ",
"      ...XXX.XXX.X.XXXXX...XXX. ",
"     ..XXXXX.XX...XXXXXXXX....  ",
"     ........... ...........    ",
"                                ",
"                                ",
"                                "
};
