/* XPM */
static char *right[] = {
/* columns rows colors chars-per-pixel */
"32 32 3 1 ",
"  c None",
". c black",
"X c white",
/* pixels */
"                                ",
"                                ",
"                                ",
"            ...                 ",
"          ..XXX..               ",
"        ..XXXXXXX..             ",
"       .XXXXXXXXXXX.            ",
"       .XXXXXXXXXXXX.           ",
"      .XXXXXXXXXXXXXX.      ..  ",
"     .XXXXXXXXXXXXXXX.     .X.  ",
"    .XXXXXXXXXXXXXXXXX.  ..XX.  ",
"   .XX.XXXXXXXX.XXXXXX...XXX.   ",
"  .XXX..XXXXXXXX.XXXX.XXXXXX.   ",
" .XXX. .XXXXXXXX.XXXXXXXXXXX.   ",
" .XX.  .XXXXXXXXX.XXXXXXXXXXX.  ",
".XX.  .XXXXXXXXXX.XXXXXXXXX.XX. ",
".X.  .XXXXXXXXXXX.XXXXXXXXX.XX. ",
"..    .XXXXXXXXX.XXXX...XXX.XX. ",
"       .XXXXXXXX.XXX.XX...XXXX..",
"       .XXXXXX..X.XXXXXXXXXXXXX.",
"       ..XX....X.XXXXXXXXXXXXX. ",
"       ..XX.XXX.XXXXXX..XXXXX.  ",
"      .XX.XX...XXXXX... .....   ",
"      .X..XX.XXXXX..X.          ",
"      ..  .X......XX.           ",
"          ...   .XX.            ",
"           ..   ...             ",
"                                ",
"                                ",
"                                ",
"                                ",
"                                "
};
