/* XPM */
static char *side_r[] = {
/* columns rows colors chars-per-pixel */
"32 32 3 1 ",
"  c None",
". c black",
"X c white",
/* pixels */
"                        ..      ",
"                       .X.      ",
"                      .XX.      ",
"                     .XXX.    ..",
"                   ..XXXXX.. ...",
"                  .XXXXXXXXX....",
"                 .XXXXXXXXXXX...",
"                 .XXXXXXXX.XX...",
"                 .XXXXXXXX.XX.X.",
"                 .XXXXXXXX.X..X.",
"                 .XXXXXXXX..XXX.",
"            .....X.XXXXX..XXXXX.",
"          ..XXXXXXXXXXXXXXXXXX..",
"         .XXXXXXXXXXXXXXXXXX.. .",
"        .XXXXXXX..XXXXXXXX...   ",
"       .XXXXXXXXXX.XXXXXX...    ",
"      .XXXXXXXXXXXX.XXXXX.      ",
"      .XXXXXXXXXXXXX.XXXX.      ",
"     .XXXXXXXXXXXXXX.XX..       ",
"    ..XXXXXXXXXXXXXX....        ",
"   .XXXXXXXXXXXXXXXX..          ",
"  .XXXXXXXXXXXXXXXX..           ",
" .XXX..XXXXXXX..XX..            ",
".XXX.. .XXXXXXX........         ",
" ...    ...XXXXX.XXX..X.        ",
"           .XXXXXXXX..X.        ",
"           ............         ",
"                                ",
"                                ",
"                                ",
"                                ",
"                                "
};
