/* XPM */
static char *side_r_alt[] = {
/* columns rows colors chars-per-pixel */
"32 32 3 1 ",
"  c None",
". c black",
"X c white",
/* pixels */
"                        ..      ",
"                       .X.      ",
"                      .XX.      ",
"                     .XXX.      ",
"                   ..XXXX.     .",
"                  .XXXXXXX..   .",
"                 .XXXXXXXXXX.  .",
"                 .XXXXXXXX.XX. .",
"                 .XXXXXXXX.XX. .",
"                 .XXXXXXXX.XXX..",
"                 .XXXXX..XXXXX..",
"            .....X.XXXXXX..XX.X.",
"          ..XXXXXXXXXXXXXXXXX.X.",
"         .XXXXXXXXXXXXX....X.XX.",
"        .XXXXXXX..XXXXXXXX..XXX.",
"       .XXXXXXXXXX.XXXXXXXXX....",
"..    .XXXXXXXXXXXX.XXXXXXXXXXX.",
".X.   .XXXXXXXXXXXXX.XXXX...... ",
".XX. .XXXXXXXXXXXXXX.XX.....XX. ",
".XXX..XXXXXXXXXXXXXX....    ..  ",
" .XXXXXXXXXXXXXXXXXX..          ",
"  .XXXXXXXXXXXXXXXX..           ",
"   ....XXXXXXX..XX..            ",
"       .XXXXXXX........         ",
"        ...XXXXX.XXX.X..        ",
"           .XXXXXXXX.X..        ",
"           ............         ",
"                                ",
"                                ",
"                                ",
"                                ",
"                                "
};
