/* XPM */
static char *top_alt[] = {
/* columns rows colors chars-per-pixel */
"32 32 3 1 ",
"  c None",
". c black",
"X c white",
/* pixels */
"         ..  .   . . .          ",
"        .XX. .   . . .          ",
"        .XX. ..... . ...        ",
"        .X....XXXX....          ",
"        .XX.XXXXXXXX..          ",
"        .X.XX.XXXX.XXX.         ",
"        ..XXX.XXXX.XXX.         ",
"        ..XXX.XXXX.XXX.         ",
"        .XXXXXXXXXXXXXX.        ",
"       ......XXXXXX......       ",
"       .XXXXXXXXXXXXXXX.        ",
"        ...XX.XXX.XXX..         ",
"        .X...XXXXX...X.         ",
"        ..XXXXXXXXXXXX..        ",
"         ....XXXXXX....         ",
"         .XXXXXXXXXXXX.         ",
"        .XXXXXXXXXXXXXX.        ",
"       .XXXXXXXXXXXXXXXX.       ",
"       .XXXXXXXXXXXXXXXX.       ",
"       .XXXXXXXXXXXXXXXX.       ",
"    .. .XXXXXXXXXXXXXXXX. ..    ",
"   .X....XXXXXXXXXXXXXX...XX.   ",
"   .XXXX..XXXXXXXXXXXX..XXXX.   ",
"    .XXXXXXXXXXXXXXXXXXXXXX.    ",
"     ...XXX....XX....XXX...     ",
"        ...   .XX.   ...        ",
"              .XXX.             ",
"               .XXX.            ",
"                .XX.            ",
"                 ..             ",
"                                ",
"                                "
};
