/* XPM */
static char *up[] = {
/* columns rows colors chars-per-pixel */
"32 32 3 1 ",
"  c None",
". c black",
"X c white",
/* pixels */
"              ....              ",
"         .....XXXX.....         ",
"           .XXXXXXXX.           ",
"         ..XX.XXXX.XX..         ",
"         .XXX.XXXX.XXX.         ",
"         .XXX.XXXX.XXX.         ",
"        .XXXXXXXXXXXXXX.        ",
"        .....XXXXXX.....        ",
"        .XXXXXXXXXXXXXX.        ",
"         .XXX.XXX.XXXX.         ",
"         ....XXXXX.....         ",
"         ..XXXXXXXXXX..         ",
"       .......XXXX.......       ",
"      ..XX.XXXXXXXXXX.XX..      ",
"      .XX.XXXXXXXXXXXX.XX.      ",
"      .XX.XXXXXXXXXXXX.XX.      ",
"      .X.XXXXXXXXXXXXXX.X.      ",
"      .XXXXXXXXXXXXXXXXXX.      ",
"       .XXXXXXXXXXXXXXXX.       ",
"       .XXXXXXXXXXXXXXXX.       ",
"       .XXXXXXXXXXXXXXXX.       ",
"       .XXXXXXXXXXXXXXXX.       ",
"        .XXXXXXXXXXXXXX.        ",
"         ..XXXXXXXXXX..         ",
"           ....XX....           ",
"              .XX.              ",
"              .XX.              ",
"              .XX.              ",
"              .XX.              ",
"               ..               ",
"                                ",
"                                "
};
