/* XPM */
static char *up_left[] = {
/* columns rows colors chars-per-pixel */
"32 32 3 1 ",
"  c None",
". c black",
"X c white",
/* pixels */
"                ...             ",
"       .........XX.             ",
"      .XXXX....XXX.             ",
"     ....X.XX.XXXX.             ",
" .. ..XXX.XXX.XXXX.             ",
"   ..XXX.XXXX.XXXX.             ",
"    .XXXXXXXX.XXXX.             ",
"    .XXXXXXXXXXXXX.             ",
"    .XXXXXXXXXXXX.....          ",
"     .XXXXXXXXXX.XXXXX...       ",
"     .XXXXXXXXXXXXXXXXXXX.      ",
"      ..XXXXXXXXXXXXXXXXXX.     ",
"        .XXXXXXXXXXXXXXXXXX.    ",
"        .XXXXXXXXXXXXXXXXXX.    ",
"        .XXXXXXXXXXXXXXXXXXX.   ",
"        .XXXXXXXXXXXXXXXXXXXX.  ",
"        ..XXXX..XXXXXXXXXXXXX.  ",
"         .XXX.XXXXXXXXXXXXXXX.  ",
"         .XX..XXXXXXXXXXXXXXX.  ",
"         .XXX.XXXXXXXXXXXXXX..  ",
"          .XX.XXXXXXXXXXXXXX..  ",
"          .XX..XXXXXXXXXXXXXX.  ",
"           ..X..XXXXXX..XX.XX.. ",
"            ..X..XXXXX.X....XX. ",
"            ..X...XXXX.XX. ..XX.",
"            ...XXXXX......  .XX.",
"            .XXXX....        .. ",
"            ......              ",
"                                ",
"                                ",
"                                ",
"                                "
};
