/* XPM */
static char *up_left_alt[] = {
/* columns rows colors chars-per-pixel */
"32 32 3 1 ",
"  c None",
". c black",
"X c white",
/* pixels */
"                                ",
"                                ",
"        ........                ",
"       .XXXX..X..               ",
"      .X...XXXXXX.....          ",
"     ..XXXXXXX..XXXXX.          ",
"   .. .XXXX...X.XXXX.           ",
"      .XXXX.XXX.XXXX.           ",
" .... .XXXXXXXX.XXX.            ",
" .XX....XXXXXXX.XXX.            ",
" ..XXX..XXXXXXXXXX.X.           ",
"  ..XXX...XXXXXXXX.XX.          ",
"   ..XXXXXXXXXXXX.XXXX.  ...    ",
"    ..XXXXXX.X.X.XXXXXX..XX.    ",
"      .XXXXXXXXXXXXXXXXX.XX.    ",
"       ..XXXXXXXXXXXXXX.XX.     ",
"         .XXXXXXXXXXXXX.XX..    ",
"          .XXXXXXXXXXX.XX.X.    ",
"           .XXXXXXXXXXXXX.XX..  ",
"            .XXXXXXXXXXXXXXXXX. ",
"            .XXXXXXXX.XXXXXXXX. ",
"            .XXXXXXXXX.XXXXXXX. ",
"            .XXXXXXXXXX.XXXXXX. ",
"             .XXXXXXXXX....XXXX.",
"             .XXXXXXXXX.   .XXX.",
"              .XXXXXXXX.    .XX.",
"               .....XXX.    .XX.",
"                    .XX.     .X.",
"                    .XX.      ..",
"                    .XX.        ",
"                    .XX.        ",
"                     ..         "
};
