/* XPM */
static char *up_right[] = {
/* columns rows colors chars-per-pixel */
"32 32 3 1 ",
"  c None",
". c black",
"X c white",
/* pixels */
"             ...                ",
"             .XX.........       ",
"             .XXX....XXXX.      ",
"             .XXXX.XX.X....     ",
"             .XXXX.XXX.XXX.. .. ",
"             .XXXX.XXXX.XXX..   ",
"             .XXXX.XXXXXXXX.    ",
"             .XXXXXXXXXXXXX.    ",
"          .....XXXXXXXXXXXX.    ",
"       ...XXXXX.XXXXXXXXXX.     ",
"      .XXXXXXXXXXXXXXXXXXX.     ",
"     .XXXXXXXXXXXXXXXXXX..      ",
"    .XXXXXXXXXXXXXXXXXX.        ",
"    .XXXXXXXXXXXXXXXXXX.        ",
"   .XXXXXXXXXXXXXXXXXXX.        ",
"  .XXXXXXXXXXXXXXXXXXXX.        ",
"  .XXXXXXXXXXXXX..XXXX..        ",
"  .XXXXXXXXXXXXXXX.XXX.         ",
"  .XXXXXXXXXXXXXXX..XX.         ",
"  ..XXXXXXXXXXXXXX.XXX.         ",
"  ..XXXXXXXXXXXXXX.XX.          ",
"  .XXXXXXXXXXXXXX..XX.          ",
" ..XX.XX..XXXXXX..X..           ",
" .XX....X.XXXXX..XX.            ",
".XX.. .XX.XXXX...X..            ",
".XX.  ......XXXXX...            ",
" ..        ....XXXX.            ",
"              ......            ",
"                                ",
"                                ",
"                                ",
"                                "
};
