/* XPM */
static char *right_up_alt[] = {
/* columns rows colors chars-per-pixel */
"32 32 3 1 ",
"  c None",
". c black",
"X c white",
/* pixels */
"                                ",
"                                ",
"                ........        ",
"               ..X..XXXX.       ",
"          .....XXXXXX...X.      ",
"          .XXXXX..XXXXXXX..     ",
"           .XXXX.X...XXXX.X..   ",
"           .XXXX.XXX.XXXX.XXX   ",
"            .XXX.XXXXXXXX.X.... ",
"            .XXX.XXXXXXX....XX. ",
"           .X.XXXXXXXXXX..XXX.. ",
"          .XX.XXXXXXXX...XXX..  ",
"    ...  .XXXX.XXXXXXXXXXXX..   ",
"    .XX..XXXXXX.X.X.XXXXXX..    ",
"    .XX.XXXXXXXXXXXXXXXXX.      ",
"     .XX.XXXXXXXXXXXXXX..       ",
"    ..XX.XXXXXXXXXXXXX.         ",
"    .X.XX.XXXXXXXXXXX.          ",
"  ..XX.XXXXXXXXXXXXX.           ",
" .XXXXXXXXXXXXXXXXX.            ",
" .XXXXXXXX.XXXXXXXX.            ",
" .XXXXXXX.XXXXXXXXX.            ",
" .XXXXXX.XXXXXXXXXX.            ",
".XXXX....XXXXXXXXX.             ",
".XXX.   .XXXXXXXXX.             ",
".XX.    .XXXXXXXX.              ",
".XX.    .XXX.....               ",
".X.     .XX.                    ",
"..      .XX.                    ",
"        .XX.                    ",
"        .XX.                    ",
"         ..                     "
};
