/* XPM */
static char *yawn[] = {
/* columns rows colors chars-per-pixel */
"32 32 3 1 ",
"  c None",
". c black",
"X c white",
/* pixels */
"                                ",
"                                ",
"                                ",
"            .       .           ",
"           .X.     .X.          ",
"           .XX.   .XX.          ",
"          .XXX.   .XXX.         ",
"          .XXXX. .XXXX.         ",
"         .XXXXX...XXXXX.        ",
"         .X...XXXXX...X.        ",
"         .XXXX.X.X.XXXX.        ",
"         .XX.XX..XXX.XX.        ",
"         ...XX.XX.XXX...        ",
"         .XXXX.XX.XXXXX.        ",
"         .XXXX.XX.XXXXX.        ",
"          .XXX.XX.XXXX.         ",
"           .XXX..XXXX.          ",
"            ...XXX...           ",
"              .XXX.             ",
"             .XXXXX.            ",
"            .XXXXXXX.           ",
"           .XXXXXXXXX.          ",
"        .. .XXXXXXXXX. ..       ",
"       .XX..XXXX.XXXX..XX.      ",
"      .XXXX..XXX.XXX..XXXX.     ",
"      .XXXXX.XXX.XXX.XXXXX.     ",
"      ...XXX.XXX.XXX.XXX....... ",
"     ..XXXXX.XX...XX.XXXXX.XXXX.",
"     ........... .............. ",
"                                ",
"                                ",
"                                "
};
